<!-- Generator: Adobe Illustrator 25.1.0, SVG Export Plug-In  -->
<svg version="1.1" xmlns="http://www.w3.org/2000/svg" xmlns:xlink="http://www.w3.org/1999/xlink" x="0px" y="0px"
	 width="683.78px" height="741.17px" viewBox="0 0 683.78 741.17"
	 style="overflow:visible;enable-background:new 0 0 683.78 741.17;" xml:space="preserve">
<style type="text/css">
	.st0{clip-path:url(#SVGID_2_);fill:url(#SVGID_3_);}
	.st1{clip-path:url(#SVGID_5_);fill:url(#SVGID_6_);}
</style>
<defs>
</defs>
<g>
	<defs>
		<path id="SVGID_1_" d="M192.25,396.12l126.1-72.8c0-56.61,0.01-113.22,0.01-169.83l70.51,40.71v145.6l68.22,39.4l78.83,45.52
			l-70.5,40.7l-126.1-72.8l-147.07,84.9L192.25,396.12z M388.86,58.99l116.87,67.47l-0.02,112.55
			c-9.07,6.96-14.92,17.91-14.92,30.23c0,21.03,17.05,38.08,38.08,38.08c21.03,0,38.08-17.05,38.08-38.08
			c0-12.32-5.84-23.26-14.91-30.22V99.7L388.86,5.49V58.99z M582.52,533.04l-116.86,67.47l-97.46-56.29
			c-1.49-11.33-8.05-21.88-18.72-28.03c-18.21-10.51-41.5-4.27-52.02,13.94c-10.51,18.22-4.27,41.5,13.94,52.02
			c10.66,6.16,23.06,6.57,33.63,2.2L465.67,654l163.18-94.21L582.52,533.04z M75.15,463.73V328.79l97.48-56.26
			c10.56,4.37,22.97,3.96,33.63-2.19c18.21-10.52,24.46-33.81,13.94-52.02c-10.52-18.21-33.81-24.46-52.02-13.94
			c-10.67,6.16-17.22,16.69-18.72,28.03L28.82,302.06l0,188.42L75.15,463.73z M80.93,190.56l191.1-110.33l0,216.34l-126.34,72.94
			l0.23,30.1v104.66l-86.61,50.01l260.11,150.16c1.93,10.63,8.34,20.38,18.43,26.21c18.21,10.52,41.5,4.28,52.02-13.93
			c10.48-18.15,4.75-41.23-13.94-52.02c-11.22-6.48-24.37-6.6-35.27-1.47l-96.09-55.48l-92.6-53.47l187.36-108.17l126.33,72.94
			l116.6-67.59l3.28,1.9l83.33,48.11l0-304.71c9.07-6.96,14.92-17.91,14.92-30.23c0-21.03-17.05-38.08-38.08-38.08
			c-21.03,0-38.08,17.05-38.08,38.08c0,12.32,5.85,23.27,14.92,30.23l0,224.47l-125.91-72.7l-61.44-35.48V167.19L409,152.34
			L318.35,100l0-100L59.91,149.22c-10.94-5.21-24.17-5.13-35.45,1.39C6.24,161.12,0,184.41,10.52,202.63
			c10.51,18.21,33.81,24.46,52.02,13.94C72.56,210.78,78.96,201.12,80.93,190.56z"/>
	</defs>
	<clipPath id="SVGID_2_">
		<use xlink:href="#SVGID_1_"  style="overflow:visible;"/>
	</clipPath>
	<linearGradient id="SVGID_3_" gradientUnits="userSpaceOnUse" x1="171.4171" y1="688.1733" x2="519.3542" y2="39.9825">
		<stop  offset="0" style="stop-color:#AF0BD4"/>
		<stop  offset="1" style="stop-color:#14DCFF"/>
	</linearGradient>
	<rect class="st0" width="683.78" height="741.17"/>
</g>
</svg>
