<?xml version="1.0" standalone="no"?>
<!DOCTYPE svg PUBLIC "-//W3C//DTD SVG 1.1//EN" "http://www.w3.org/Graphics/SVG/1.1/DTD/svg11.dtd" >
<svg xmlns="http://www.w3.org/2000/svg" xmlns:xlink="http://www.w3.org/1999/xlink" version="1.1">
<metadata>
Created by FontForge 20170731 at Sun Sep  4 12:17:46 2011
 By Aleksey,,,
Copyright (c) 2011 by Mans Greba:ck. All rights reserved. Personal use only! Mail mawns@live.se for commercial license
</metadata>
<defs>
<font id="Optien" horiz-adv-x="550" >
  <font-face 
    font-family="Optien"
    font-weight="900"
    font-stretch="normal"
    units-per-em="1000"
    panose-1="2 0 0 0 0 0 0 0 0 0"
    ascent="750"
    descent="-250"
    x-height="500"
    cap-height="630"
    bbox="-372 -353 953 974"
    underline-thickness="50"
    underline-position="-150"
    unicode-range="U+0020-FB02"
  />
<missing-glyph horiz-adv-x="500" 
 />
    <glyph glyph-name=".notdef" horiz-adv-x="500" 
 />
    <glyph glyph-name=".null" horiz-adv-x="0" 
 />
    <glyph glyph-name="nonmarkingreturn" horiz-adv-x="500" 
 />
    <glyph glyph-name="space" unicode=" " horiz-adv-x="264" 
 />
    <glyph glyph-name="space" unicode="&#xa0;" horiz-adv-x="264" 
 />
    <glyph glyph-name="exclam" unicode="!" horiz-adv-x="178" 
d="M128 130v-130h-128v130h128zM0 162v468h128v-468h-128z" />
    <glyph glyph-name="quotedbl" unicode="&#x22;" horiz-adv-x="351" 
d="M131 630v-277h-131v277h131zM301 630v-277h-131v277h131z" />
    <glyph glyph-name="numbersign" unicode="#" horiz-adv-x="518" 
d="M0 398h70v70h128v-70h72v70h128v-70h70v-128h-70v-72h70v-128h-70v-70h-128v70h-72v-70h-128v70h-70v128h70v72h-70v128zM198 198h72v72h-72v-72z" />
    <glyph glyph-name="dollar" unicode="$" horiz-adv-x="522" 
d="M147 0h-147v121h147v132h-3q-41 0 -75.5 16.5t-60.5 43.5v1q-23 25 -36.5 57.5t-13.5 69.5t13.5 69.5t36.5 57.5v1q26 27 60.5 43.5t75.5 16.5h3v101h128v-101h155v-121h-155v-132h11q41 0 75.5 -16.5t60.5 -43.5q0 -1 -1 -1q23 -25 36.5 -57.5t14.5 -69.5
q-1 -37 -14.5 -69.5t-36.5 -57.5q1 0 1 -1q-26 -27 -60.5 -43.5t-75.5 -16.5h-11v-100h-128v100zM275 254v-133h13q25 4 41.5 22.5t16.5 43.5v1q0 25 -16 43t-40 23h-15zM84 441q0 -25 16 -43t39 -23h8v133h-5q-25 -4 -41.5 -22.5t-16.5 -43.5v-1z" />
    <glyph glyph-name="percent" unicode="%" horiz-adv-x="579" 
d="M0 537q0 35 24 59t59 24t59 -24t24 -59t-24 -59t-59 -24t-59 24t-24 59zM62 537q0 -9 6 -14.5t15 -5.5t15 5.5t6 14.5t-6 15t-15 6t-15 -6t-6 -15zM330 77q0 35 24 59t59 24t59 -24t24 -59t-24 -59t-59 -24t-59 24t-24 59zM392 77q0 -9 6 -14.5t15 -5.5t15 5.5t6 14.5
t-6 15t-15 6t-15 -6t-6 -15zM371 630h158l-400 -630h-158z" />
    <glyph glyph-name="ampersand" unicode="&#x26;" horiz-adv-x="522" 
d="M472 630v-121h-288q-25 -4 -41.5 -22.5t-16.5 -43.5q0 -26 17 -45t43 -21h286v-377h-286q-39 0 -72.5 15t-59 40.5t-40 59t-14.5 72.5q0 38 13.5 70.5t36.5 57.5q-23 25 -36.5 57.5t-13.5 70.5q0 39 14.5 72.5t40 59t59 40.5t72.5 15h286zM126 188q0 -25 16 -43t39 -23
h160v132h-150q-27 -1 -46 -20t-19 -46z" />
    <glyph glyph-name="quotesingle" unicode="'" horiz-adv-x="181" 
d="M131 630v-277h-131v277h131z" />
    <glyph glyph-name="parenleft" unicode="(" horiz-adv-x="366" 
d="M315 0q-65 0 -122.5 24.5t-100.5 67.5t-67.5 100.5t-24.5 122.5t24.5 122.5t67.5 100t100.5 67.5t122.5 25l1 -127q-39 0 -73 -15t-59.5 -40.5t-40 -59.5t-14.5 -73t14.5 -73t40 -59.5t59.5 -40.5t73 -15z" />
    <glyph glyph-name="parenright" unicode=")" horiz-adv-x="366" 
d="M1 630q65 0 122.5 -25t100 -67.5t67.5 -100t25 -122.5t-25 -122.5t-67.5 -100.5t-100 -67.5t-122.5 -24.5l-1 127q39 0 73 14.5t59.5 40t40 60t14.5 73.5t-14.5 73t-40 59.5t-59.5 40.5t-73 15z" />
    <glyph glyph-name="asterisk" unicode="*" horiz-adv-x="333" 
d="M-5 429l51 51l-52 52l93 92l51 -52l53 53l92 -93l-52 -52l52 -52l-93 -92l-52 51l-51 -51z" />
    <glyph glyph-name="plus" unicode="+" horiz-adv-x="328" 
d="M1 327h72v73h131v-73h74v-131h-74v-73h-131v73h-72v131z" />
    <glyph glyph-name="comma" unicode="," horiz-adv-x="181" 
d="M131 172v-277h-131v277h131z" />
    <glyph glyph-name="hyphen" unicode="-" horiz-adv-x="328" 
d="M1 327h277v-131h-277v131z" />
    <glyph glyph-name="period" unicode="." horiz-adv-x="176" 
d="M0 63q0 26 18.5 44.5t44.5 18.5t44.5 -18.5t18.5 -44.5t-18.5 -44.5t-44.5 -18.5t-44.5 18.5t-18.5 44.5z" />
    <glyph glyph-name="slash" unicode="/" horiz-adv-x="608" 
d="M400 630h158l-400 -630h-158z" />
    <glyph glyph-name="zero" unicode="0" 
d="M250 630q52 0 97.5 -19.5t79.5 -53.5t53.5 -79.5t19.5 -97.5v-130q0 -52 -19.5 -97.5t-53.5 -79.5t-79.5 -53.5t-97.5 -19.5t-97.5 19.5t-79.5 53.5t-53.5 79.5t-19.5 97.5v130q0 52 19.5 97.5t53.5 79.5t79.5 53.5t97.5 19.5zM372 380q0 25 -9.5 47.5t-26 39t-39 26
t-47.5 9.5t-47.5 -9.5t-39 -26t-26 -39t-9.5 -47.5v-130q0 -25 9.5 -47.5t26 -39t39 -26t47.5 -9.5t47.5 9.5t39 26t26 39t9.5 47.5v130z" />
    <glyph glyph-name="one" unicode="1" horiz-adv-x="178" 
d="M0 630h128v-630h-128v630z" />
    <glyph glyph-name="two" unicode="2" horiz-adv-x="563" 
d="M463 569q23 -25 36.5 -57.5t13.5 -69.5t-13.5 -69.5t-36.5 -57.5l1 -1q-26 -27 -60.5 -43.5t-75.5 -16.5h-86v1h-61q-23 -5 -39 -23t-16 -43v-1q0 -25 16.5 -43.5t40.5 -22.5h288v-121h-285q-41 0 -76 16.5t-60 43.5v1q-23 25 -36.5 57.5t-13.5 69.5t13.5 69.5t36.5 57.5
v1q25 27 60 43.5t76 16.5h95v-1h51q23 5 39 23t16 43v1q0 25 -16.5 43.5t-40.5 22.5h-288v121h286q41 0 75.5 -16.5t60.5 -43.5q0 -1 -1 -1z" />
    <glyph glyph-name="three" unicode="3" horiz-adv-x="522" 
d="M286 630q39 0 72.5 -15t59 -40.5t40 -59t14.5 -72.5q0 -38 -13.5 -70.5t-36.5 -57.5q23 -25 36.5 -57.5t13.5 -70.5q0 -39 -14.5 -72.5t-40 -59t-59 -40.5t-72.5 -15h-286v121h289q24 4 40.5 22.5t16.5 43.5q0 26 -17 45t-43 21h-182v123h177q27 1 46 20t19 46
q0 25 -16 43t-39 23h-291v122h286v0z" />
    <glyph glyph-name="four" unicode="4" horiz-adv-x="539" 
d="M361 630h128v-630h-128v240h-111q-52 0 -97.5 19.5t-79.5 53.5t-53.5 79.5t-19.5 97.5v140h128v-140q0 -25 9.5 -47.5t26 -39t39 -26t47.5 -9.5h111v262z" />
    <glyph glyph-name="five" unicode="5" horiz-adv-x="564" 
d="M464 316q23 -25 36.5 -57.5t13.5 -69.5t-13.5 -69.5t-36.5 -57.5v-1q-26 -27 -60.5 -43.5t-75.5 -16.5h-286v121h289q24 4 40.5 22.5t16.5 43.5v1q0 25 -16 43t-39 23h-61v-1h-86q-41 0 -75.5 16.5t-60.5 43.5q0 1 1 1q-23 25 -36.5 57.5t-14.5 69.5v188h472v-121h-346
l1 -66v-1q0 -25 15.5 -43t39.5 -23h51v1h95q41 0 75.5 -16.5t60.5 -43.5v-1v0z" />
    <glyph glyph-name="six" unicode="6" horiz-adv-x="597" 
d="M359 377q39 0 73 -15t59.5 -40.5t40.5 -60t15 -73.5t-15 -73t-40.5 -59.5t-59.5 -40.5t-73 -15h-173q-39 0 -72.5 15t-59 40.5t-40 59t-14.5 72.5q0 38 13.5 70.5t36.5 57.5q-23 25 -36.5 57.5t-13.5 70.5q0 39 14.5 72.5t40 59t59 40.5t72.5 15h286v-121h-289
q-24 -4 -40.5 -22.5t-16.5 -43.5q0 -26 17 -45t43 -21h173zM360 123q27 0 46.5 19t19.5 46t-19.5 46.5t-46.5 19.5h-169q-27 -1 -46 -20t-19 -46q0 -25 16 -43t39 -23h173q1 0 2 0.5t2 0.5h2z" />
    <glyph glyph-name="seven" unicode="7" horiz-adv-x="501" 
d="M199 0h-154l196 502h-241v128h451z" />
    <glyph glyph-name="eight" unicode="8" horiz-adv-x="557" 
d="M507 443q0 -38 -13.5 -70.5t-36.5 -57.5q23 -25 36.5 -57.5t13.5 -70.5q0 -39 -14.5 -72.5t-39.5 -59t-59 -40.5t-72 -15h-136q-39 0 -72.5 15t-59 40.5t-40 59t-14.5 72.5q0 38 13.5 70.5t36.5 57.5q-23 25 -36.5 57.5t-13.5 70.5q0 39 14.5 72.5t40 59t59 40.5t72.5 15
h136q38 0 72 -15t59 -40.5t39.5 -59t14.5 -72.5zM324 122q24 4 40.5 22t16.5 43q0 26 -17 45t-42 21h-131q-27 -1 -46 -19.5t-19 -45.5q0 -25 16 -43t39 -23h143zM316 377q27 1 46 19.5t19 45.5q0 25 -16 43t-39 23h-143q-24 -4 -40.5 -22t-16.5 -43q0 -26 17 -45t43 -21
h130z" />
    <glyph glyph-name="nine" unicode="9" horiz-adv-x="597" 
d="M188 253q-39 0 -73.5 15t-60 40.5t-40 60t-14.5 73.5t14.5 73t40 59.5t60 40.5t73.5 15h173q39 0 72.5 -15t59 -40.5t40 -59t14.5 -72.5q0 -38 -13.5 -70.5t-36.5 -57.5q23 -25 36.5 -57.5t13.5 -70.5q0 -39 -14.5 -72.5t-40 -59t-59 -40.5t-72.5 -15h-286v121h289
q24 4 40.5 22.5t16.5 43.5q0 26 -17 45t-43 21h-173zM187 507q-27 0 -46.5 -19t-19.5 -46t19.5 -46.5t46.5 -19.5h169q27 1 46 20t19 46q0 25 -16 43t-39 23h-173q-1 -1 -4 -1h-2z" />
    <glyph glyph-name="colon" unicode=":" horiz-adv-x="178" 
d="M128 130v-130h-128v130h128zM128 500v-130h-128v130h128z" />
    <glyph glyph-name="semicolon" unicode=";" horiz-adv-x="181" 
d="M131 172v-277h-131v277h131zM128 500v-130h-128v130h128z" />
    <glyph glyph-name="less" unicode="&#x3c;" horiz-adv-x="412" 
d="M362 128l-91 -91l-268 268l268 268l91 -91l-177 -177z" />
    <glyph glyph-name="equal" unicode="=" horiz-adv-x="450" 
d="M1 247h399v-131h-399v131zM1 427h399v-131h-399v131z" />
    <glyph glyph-name="greater" unicode="&#x3e;" horiz-adv-x="411" 
d="M2 482l91 91l268 -268l-268 -268l-91 91l177 177z" />
    <glyph glyph-name="question" unicode="?" horiz-adv-x="563" 
d="M140 162v215h192q23 5 39 22.5t16 42.5v1q0 25 -16.5 43.5t-40.5 22.5h-288v121h286q41 0 75.5 -16.5t60.5 -43.5q0 -1 -1 -1q23 -25 36.5 -57.5t13.5 -69.5t-13.5 -69.5t-36.5 -57.5l1 -1q-26 -27 -60.5 -43.5t-75.5 -16.5h-60v-92h-128zM268 130v-130h-128v130h128z
" />
    <glyph glyph-name="at" unicode="@" horiz-adv-x="662" 
d="M316 127q62 0 109.5 35.5t67.5 89.5l119 -42q-16 -46 -45 -84.5t-68 -66.5t-86 -43.5t-98 -15.5q-65 0 -122.5 24.5t-100.5 67.5t-67.5 100.5t-24.5 122.5t24.5 122.5t67.5 100t100.5 67.5t122.5 25q51 0 96.5 -15t84 -42t67.5 -64t46 -82l-59 -22v-8q0 -35 -13 -65.5
t-36 -53.5t-53.5 -36t-65.5 -13t-65.5 13t-53.5 36t-36 53.5t-13 65.5q0 50 26 90q-50 -23 -80.5 -69t-30.5 -103q0 -39 14.5 -73t40 -59.5t59.5 -40.5t73 -15zM382 315q34 0 58 24t24 58t-24 58t-58 24t-58 -24t-24 -58t24 -58t58 -24z" />
    <glyph glyph-name="A" unicode="A" 
d="M250 630q52 0 97.5 -19.5t79.5 -53.5t53.5 -79.5t19.5 -97.5v-380h-128v126h-244v-126h-128v380q0 52 19.5 97.5t53.5 79.5t79.5 53.5t97.5 19.5zM372 380q0 25 -9.5 47.5t-26 39t-39 26t-47.5 9.5t-47.5 -9.5t-39 -26t-26 -39t-9.5 -47.5v-126h244v126z" />
    <glyph glyph-name="B" unicode="B" horiz-adv-x="521" 
d="M285 630q39 0 72.5 -15t59 -40.5t40 -59t14.5 -72.5q0 -38 -13.5 -70.5t-36.5 -57.5q23 -25 36.5 -57.5t13.5 -70.5q0 -39 -14.5 -72.5t-40 -59t-59 -40.5t-72.5 -15h-285v121h288q24 4 40.5 22.5t16.5 43.5q0 26 -17 45t-43 21h-285v123h280q27 1 46 20t19 46
q0 25 -16 43t-39 23h-290v122h285v0z" />
    <glyph glyph-name="C" unicode="C" horiz-adv-x="662" 
d="M316 127q62 0 109.5 35.5t67.5 89.5l119 -42q-16 -46 -45 -84.5t-68 -66.5t-86 -43.5t-98 -15.5q-65 0 -122.5 24.5t-100.5 67.5t-67.5 100.5t-24.5 122.5t24.5 122.5t67.5 100t100.5 67.5t122.5 25q51 0 96.5 -15t84 -42t67.5 -64t46 -82l-118 -43q-20 53 -67.5 86
t-107.5 33q-39 0 -73 -15t-59.5 -40.5t-40 -59.5t-14.5 -73t14.5 -73t40 -59.5t59.5 -40.5t73 -15z" />
    <glyph glyph-name="D" unicode="D" horiz-adv-x="545" 
d="M180 630q65 0 122.5 -25t100 -67.5t67.5 -100t25 -122.5t-24.5 -122t-67 -100t-99.5 -68t-122 -25h-182v127h181q39 0 73 15t59.5 40.5t40.5 59.5t15 73t-15 73t-40.5 59.5t-59.5 40.5t-73 15h-181v127h180v0z" />
    <glyph glyph-name="E" unicode="E" horiz-adv-x="522" 
d="M472 630v-121h-288q-25 -4 -41.5 -22.5t-16.5 -43.5q0 -26 17 -45t43 -21h286v-123h-281q-27 -1 -46 -20t-19 -46q0 -25 16 -43t39 -23h291v-122h-286q-39 0 -72.5 15t-59 40.5t-40 59t-14.5 72.5q0 38 13.5 70.5t36.5 57.5q-23 25 -36.5 57.5t-13.5 70.5q0 39 14.5 72.5
t40 59t59 40.5t72.5 15h286z" />
    <glyph glyph-name="F" unicode="F" horiz-adv-x="522" 
d="M472 630v-121h-288q-25 -4 -41.5 -22.5t-16.5 -43.5q0 -26 17 -45t43 -21h286v-123h-281q-27 -1 -46 -20t-19 -46v-188h-126v188q0 37 13.5 69.5t36.5 57.5q-23 25 -36.5 57.5t-13.5 70.5q0 39 14.5 72.5t40 59t59 40.5t72.5 15h286z" />
    <glyph glyph-name="G" unicode="G" horiz-adv-x="662" 
d="M484 268h128v-380h-128v161q-37 -23 -79.5 -36t-89.5 -13q-65 0 -122.5 24.5t-100.5 67.5t-67.5 100.5t-24.5 122.5t24.5 122.5t67.5 100t100.5 67.5t122.5 25q50 0 96 -15t84.5 -42t67.5 -64t46 -82l-118 -43q-20 53 -67.5 86t-107.5 33q-39 0 -73 -15t-59.5 -40.5
t-40 -59.5t-14.5 -73t14.5 -73t40 -59.5t59.5 -40.5t73 -15q56 0 100.5 29t67.5 75v37z" />
    <glyph glyph-name="H" unicode="H" horiz-adv-x="559" 
d="M381 630h128v-630h-128v228h-202v128h202v274zM0 630h128v-630h-128v630z" />
    <glyph glyph-name="I" unicode="I" horiz-adv-x="316" 
d="M266 502h-69v-374h69v-128h-266v128h69v374h-69v128h266v-128z" />
    <glyph glyph-name="J" unicode="J" 
d="M372 630h128v-380q0 -52 -19.5 -97.5t-53.5 -79.5t-79.5 -53.5t-97.5 -19.5t-97.5 19.5t-79.5 53.5t-53.5 79.5t-19.5 97.5h128q0 -25 9.5 -47.5t26 -39t39 -26t47.5 -9.5t47.5 9.5t39 26t26 39t9.5 47.5v380z" />
    <glyph glyph-name="K" unicode="K" horiz-adv-x="551" 
d="M501 630q0 -100 -45.5 -181.5t-121.5 -132.5q38 -26 69 -60t52.5 -74.5t33.5 -86.5t12 -95h-127q0 50 -18.5 94.5t-50.5 78.5t-75.5 55t-92.5 24h-9v-252h-128v630h128v-249h9q49 3 92.5 23.5t75.5 54t50.5 77.5t18.5 94h127v0z" />
    <glyph glyph-name="L" unicode="L" horiz-adv-x="457" 
d="M128 128h279v-128h-407v630h128v-502z" />
    <glyph glyph-name="M" unicode="M" horiz-adv-x="718" 
d="M469 630q41 0 77 -15.5t63 -42t43 -62.5t16 -77v-433h-128v441q-4 26 -24 44t-47 18q-28 0 -48 -18.5t-23 -45.5v-439h-128v432q0 29 -21 50t-50 21q-27 0 -46.5 -17t-24.5 -43v-443h-128v433q0 41 16 77t43 62.5t63 42t77 15.5q39 0 74 -14t61 -39q27 25 61.5 39
t73.5 14z" />
    <glyph glyph-name="N" unicode="N" 
d="M250 630q52 0 97.5 -19.5t79.5 -53.5t53.5 -79.5t19.5 -97.5v-380h-128v380q0 25 -9.5 47.5t-26 39t-39 26t-47.5 9.5t-47.5 -9.5t-39 -26t-26 -39t-9.5 -47.5v-380h-128v380q0 52 19.5 97.5t53.5 79.5t79.5 53.5t97.5 19.5z" />
    <glyph glyph-name="O" unicode="O" horiz-adv-x="680" 
d="M315 630q65 0 122.5 -25t100 -67.5t67.5 -100t25 -122.5t-25 -122.5t-67.5 -100.5t-100 -67.5t-122.5 -24.5t-122.5 24.5t-100.5 67.5t-67.5 100.5t-24.5 122.5t24.5 122.5t67.5 100t100.5 67.5t122.5 25zM316 127q39 0 73 15t59.5 40.5t40.5 59.5t15 73t-15 73
t-40.5 59.5t-59.5 40.5t-73 15t-73 -15t-59.5 -40.5t-40 -59.5t-14.5 -73t14.5 -73t40 -59.5t59.5 -40.5t73 -15z" />
    <glyph glyph-name="P" unicode="P" horiz-adv-x="577" 
d="M330 630q41 0 77 -16t62.5 -43t42 -63t15.5 -77q0 -36 -12 -68.5t-33 -58t-50 -43t-63 -24.5l1 -5h-183v128h142q29 1 50 21.5t21 49.5q0 27 -17 46.5t-43 24.5h-212v-502h-128v630h330v0z" />
    <glyph glyph-name="Q" unicode="Q" horiz-adv-x="680" 
d="M315 630q65 0 122.5 -25t100 -67.5t67.5 -100t25 -122.5q0 -53 -16 -100.5t-45 -86.5h58v-128h-314q-65 0 -122 25t-99.5 68t-67 100t-24.5 122t24.5 122.5t67.5 100t100.5 67.5t122.5 25zM129 315q0 -38 14.5 -72t39.5 -59.5t58.5 -40.5t71.5 -15h17q36 3 68 18.5
t55.5 40.5t37 58t13.5 70q0 39 -15 73t-40.5 59.5t-59.5 40.5t-73 15t-73 -15t-59.5 -40.5t-40 -59.5t-14.5 -73z" />
    <glyph glyph-name="R" unicode="R" horiz-adv-x="579" 
d="M529 443q0 -38 -13.5 -70.5t-36.5 -57.5q23 -25 36.5 -57.5t13.5 -69.5v-188h-126v188q0 27 -19 46t-46 20h-157v123h163q25 2 42 21t17 45q0 25 -16.5 43.5t-40.5 22.5h-218v-509h-128v630h344q38 0 72 -15t59 -40.5t39.5 -59t14.5 -72.5z" />
    <glyph glyph-name="S" unicode="S" horiz-adv-x="562" 
d="M461 315q23 -25 36.5 -57.5t14.5 -69.5q-1 -37 -14.5 -69.5t-36.5 -57.5q1 0 1 -1q-26 -27 -60.5 -43.5t-75.5 -16.5h-286v121h288q25 4 41.5 22.5t16.5 43.5v1q0 25 -16 42.5t-40 22.5h-146q-41 0 -75.5 16.5t-60.5 43.5v1q-23 25 -36.5 57.5t-13.5 69.5t13.5 69.5
t36.5 57.5v1q26 27 60.5 43.5t75.5 16.5h286v-121h-288q-25 -4 -41.5 -22.5t-16.5 -43.5v-1q0 -25 16 -43t39 -23h147q41 0 75.5 -16t60.5 -43q0 -1 -1 -1z" />
    <glyph glyph-name="T" unicode="T" horiz-adv-x="581" 
d="M531 502h-201v-502h-128v502h-202v128h531v-128z" />
    <glyph glyph-name="U" unicode="U" 
d="M372 630h128v-380q0 -52 -19.5 -97.5t-53.5 -79.5t-79.5 -53.5t-97.5 -19.5t-97.5 19.5t-79.5 53.5t-53.5 79.5t-19.5 97.5v380h128v-380q0 -25 9.5 -47.5t26 -39t39 -26t47.5 -9.5t47.5 9.5t39 26t26 39t9.5 47.5v380z" />
    <glyph glyph-name="V" unicode="V" horiz-adv-x="561" 
d="M373 630h138l-184 -630h-142l-184 630h138l117 -401z" />
    <glyph glyph-name="W" unicode="W" horiz-adv-x="718" 
d="M540 630h128v-433q0 -41 -16 -77t-43 -62.5t-63 -42t-77 -15.5q-39 0 -73.5 14t-61.5 39q-26 -25 -61 -39t-74 -14q-41 0 -77 15.5t-63 42t-43 62.5t-16 77v433h128v-441q4 -26 24 -44t47 -18q28 0 48 18.5t23 45.5v439h128v-432q1 -29 21.5 -50t50.5 -21q26 0 45.5 17
t24.5 43v443z" />
    <glyph glyph-name="X" unicode="X" horiz-adv-x="544" 
d="M370 311q55 -42 88 -104t36 -136v-71h-131v60q0 29 -8.5 55.5t-24 49t-37 39.5t-46.5 27q-51 -20 -84 -66t-33 -105v-60h-130v60q0 76 33 141t89 108q-57 44 -90 108.5t-34 141.5v71h131v-70q0 -29 8.5 -55.5t24 -49t36.5 -39.5t47 -27q51 20 84 66t33 105v70h130v-70h1
q0 -76 -33 -141t-90 -108z" />
    <glyph glyph-name="Y" unicode="Y" 
d="M372 630h128v-169q0 -43 -13.5 -81.5t-37.5 -70t-57 -54.5t-72 -34v-221h-128v218q-41 10 -76.5 32.5t-61 54.5t-40 72t-14.5 84v169h128v-169q0 -25 9.5 -47.5t26 -39t39 -26t47.5 -9.5t47.5 9.5t39 26t26 39t9.5 47.5v169z" />
    <glyph glyph-name="Z" unicode="Z" horiz-adv-x="566" 
d="M516 128v-128h-531l306 502h-291v128h511l-306 -502h311z" />
    <glyph glyph-name="bracketleft" unicode="[" horiz-adv-x="290" 
d="M238 501h-110v-373h112v-128h-240v630h238v-129z" />
    <glyph glyph-name="backslash" unicode="\" horiz-adv-x="376" 
d="M-198 643l111 64l413 -720l-111 -64z" />
    <glyph glyph-name="bracketright" unicode="]" horiz-adv-x="290" 
d="M2 129h110v373h-112v128h240v-630h-238v129z" />
    <glyph glyph-name="asciicircum" unicode="^" horiz-adv-x="485" 
d="M90 414l-91 91l218 218l218 -218l-91 -91l-127 127z" />
    <glyph glyph-name="underscore" unicode="_" horiz-adv-x="629" 
d="M1 -3h578v-131h-578v131z" />
    <glyph glyph-name="grave" unicode="`" horiz-adv-x="342" 
d="M52 763l240 -139l-65 -113l-240 139z" />
    <glyph glyph-name="a" unicode="a" 
d="M97 448q32 25 71 38.5t82 13.5q52 0 97.5 -19.5t79.5 -53.5t53.5 -79.5t19.5 -97.5t-19.5 -97.5t-53.5 -79.5t-79.5 -53.5t-97.5 -19.5t-97.5 19.5t-79.5 53.5t-53.5 79.5t-19.5 97.5q0 16 2 31t5 29h349q-16 28 -44 45t-62 17q-20 0 -38 -6t-33 -17zM250 128
q32 0 58 14.5t43 39.5h-202q17 -25 43 -39.5t58 -14.5z" />
    <glyph glyph-name="b" unicode="b" 
d="M128 468q27 15 58 23.5t64 8.5q52 0 97.5 -19.5t79.5 -53.5t53.5 -79.5t19.5 -97.5t-19.5 -97.5t-53.5 -79.5t-79.5 -53.5t-97.5 -19.5t-97.5 19.5t-79.5 53.5t-53.5 79.5t-19.5 97.5v380h128v-162zM250 128q25 0 47.5 9.5t39 26t26 39t9.5 47.5t-9.5 47.5t-26 39t-39 26
t-47.5 9.5t-47 -9.5t-38.5 -25t-26 -37t-10.5 -45.5v-5q0 -25 9.5 -47.5t26 -39t39 -26t47.5 -9.5z" />
    <glyph glyph-name="c" unicode="c" 
d="M500 235q-3 -49 -23.5 -92t-54.5 -74.5t-78 -50t-94 -18.5q-52 0 -97.5 19.5t-79.5 53.5t-53.5 79.5t-19.5 97.5t19.5 97.5t53.5 79.5t79.5 53.5t97.5 19.5q50 0 94 -18.5t78 -50t54.5 -74.5t23.5 -92h-129q-3 22 -13.5 42t-26.5 34t-37 22.5t-44 8.5q-25 0 -47.5 -9.5
t-39 -26t-26 -39t-9.5 -47.5t9.5 -47.5t26 -39t39 -26t47.5 -9.5q23 0 44 8.5t37 22.5t26.5 33.5t13.5 42.5h129z" />
    <glyph glyph-name="d" unicode="d" 
d="M0 250q0 52 19.5 97.5t53.5 79.5t79.5 53.5t97.5 19.5q33 0 64 -8.5t58 -23.5v162h128v-380q0 -52 -19.5 -97.5t-53.5 -79.5t-79.5 -53.5t-97.5 -19.5t-97.5 19.5t-79.5 53.5t-53.5 79.5t-19.5 97.5zM128 250q0 -25 9.5 -47.5t26 -39t39 -26t47.5 -9.5t47.5 9.5t39 26
t26 39t9.5 47.5t-9.5 47.5t-26 39t-39 26t-47.5 9.5t-47.5 -9.5t-39 -26t-26 -39t-9.5 -47.5z" />
    <glyph glyph-name="e" unicode="e" 
d="M403 52q-32 -25 -71 -38.5t-82 -13.5q-52 0 -97.5 19.5t-79.5 53.5t-53.5 79.5t-19.5 97.5t19.5 97.5t53.5 79.5t79.5 53.5t97.5 19.5t97.5 -19.5t79.5 -53.5t53.5 -79.5t19.5 -97.5q0 -16 -2 -31t-5 -29h-349q16 -28 44 -45t62 -17q20 0 38 6t33 17zM250 372
q-32 0 -58 -15t-43 -39h202q-17 24 -43 39t-58 15z" />
    <glyph glyph-name="f" unicode="f" 
d="M250 630q52 0 97.5 -19.5t79.5 -53.5t53.5 -79.5t19.5 -97.5h-128q0 25 -9.5 47.5t-26 39t-39 26t-47.5 9.5t-47.5 -9.5t-39 -26t-26 -39t-9.5 -47.5v-142h301v-128h-301v-110h-128v380q0 52 19.5 97.5t53.5 79.5t79.5 53.5t97.5 19.5z" />
    <glyph glyph-name="g" unicode="g" 
d="M250 -250q-52 0 -97.5 19.5t-79.5 53.5t-53.5 79.5t-19.5 97.5h128q0 -25 9.5 -47.5t26 -39t39 -26t47.5 -9.5t47.5 9.5t39 26t26 39t9.5 47.5v31q-56 -31 -122 -31q-52 0 -97.5 19.5t-79.5 53.5t-53.5 79.5t-19.5 97.5t19.5 97.5t53.5 79.5t79.5 53.5t97.5 19.5
t97.5 -19.5t79.5 -53.5t53.5 -79.5t19.5 -97.5v-250q0 -52 -19.5 -97.5t-53.5 -79.5t-79.5 -53.5t-97.5 -19.5zM250 128q24 0 46 9t38.5 25t26.5 37.5t11 45.5v5q0 25 -9.5 47.5t-26 39t-39 26t-47.5 9.5t-47.5 -9.5t-39 -26t-26 -39t-9.5 -47.5t9.5 -47.5t26 -39t39 -26
t47.5 -9.5z" />
    <glyph glyph-name="h" unicode="h" 
d="M372 250q0 25 -9.5 47.5t-26 39t-39 26t-47.5 9.5t-47.5 -9.5t-39 -26t-26 -39t-9.5 -47.5v-250h-128v630h128v-162q27 15 58 23.5t64 8.5q52 0 97.5 -19.5t79.5 -53.5t53.5 -79.5t19.5 -97.5v-250h-128v250v0z" />
    <glyph glyph-name="i" unicode="i" horiz-adv-x="178" 
d="M0 500v130h128v-130h-128zM128 468v-468h-128v468h128z" />
    <glyph glyph-name="j" unicode="j" horiz-adv-x="178" 
d="M128 468v-468q0 -52 -19.5 -97.5t-53.5 -79.5t-79.5 -53.5t-97.5 -19.5t-97.5 19.5t-79.5 53.5t-53.5 79.5t-19.5 97.5h128q0 -25 9.5 -47.5t26 -39t39 -26t47.5 -9.5t47.5 9.5t39 26t26 39t9.5 47.5v468h128zM0 500v130h128v-130h-128z" />
    <glyph glyph-name="k" unicode="k" horiz-adv-x="494" 
d="M128 0h-128v630h128v-314q38 0 71.5 14.5t58.5 39.5t39.5 58.5t14.5 71.5h130q0 -77 -33 -141.5t-89 -107.5q57 -44 90.5 -109t33.5 -142h-131q0 38 -14.5 72t-39.5 59t-59 39.5t-72 14.5v-185z" />
    <glyph glyph-name="l" unicode="l" horiz-adv-x="178" 
d="M128 0h-128v630h128v-630z" />
    <glyph glyph-name="m" unicode="m" horiz-adv-x="718" 
d="M540 313q-5 26 -24.5 43t-46.5 17q-28 0 -48.5 -19t-22.5 -47v-307h-128v303q-1 29 -21.5 49.5t-49.5 20.5q-27 0 -47 -17t-24 -43v-313h-128v303q0 41 16 77t43 62.5t63 42t77 15.5q39 0 73.5 -14.5t61.5 -39.5q26 25 61 39.5t74 14.5q41 0 77 -15.5t63 -42t43 -62.5
t16 -77v-303h-128v313z" />
    <glyph glyph-name="n" unicode="n" 
d="M500 0h-128v250q0 25 -9.5 47.5t-26 39t-39 26t-47.5 9.5t-47.5 -9.5t-39 -26t-26 -39t-9.5 -47.5v-250h-128v250q0 52 19.5 97.5t53.5 79.5t79.5 53.5t97.5 19.5t97.5 -19.5t79.5 -53.5t53.5 -79.5t19.5 -97.5v-250z" />
    <glyph glyph-name="o" unicode="o" 
d="M250 500q52 0 97.5 -19.5t79.5 -53.5t53.5 -79.5t19.5 -97.5t-19.5 -97.5t-53.5 -79.5t-79.5 -53.5t-97.5 -19.5t-97.5 19.5t-79.5 53.5t-53.5 79.5t-19.5 97.5t19.5 97.5t53.5 79.5t79.5 53.5t97.5 19.5zM250 128q25 0 47.5 9.5t39 26t26 39t9.5 47.5t-9.5 47.5t-26 39
t-39 26t-47.5 9.5t-47.5 -9.5t-39 -26t-26 -39t-9.5 -47.5t9.5 -47.5t26 -39t39 -26t47.5 -9.5z" />
    <glyph glyph-name="p" unicode="p" 
d="M500 250q0 -52 -19.5 -97.5t-53.5 -79.5t-79.5 -53.5t-97.5 -19.5q-66 0 -122 31v-161h-128v380q0 52 19.5 97.5t53.5 79.5t79.5 53.5t97.5 19.5t97.5 -19.5t79.5 -53.5t53.5 -79.5t19.5 -97.5zM372 250q0 25 -9.5 47.5t-26 39t-39 26t-47.5 9.5t-47.5 -9.5t-39 -26
t-26 -39t-9.5 -47.5t9.5 -47.5t26 -39t39 -26t47.5 -9.5t47.5 9.5t39 26t26 39t9.5 47.5z" />
    <glyph glyph-name="q" unicode="q" 
d="M372 31q-56 -31 -122 -31q-52 0 -97.5 19.5t-79.5 53.5t-53.5 79.5t-19.5 97.5t19.5 97.5t53.5 79.5t79.5 53.5t97.5 19.5t97.5 -19.5t79.5 -53.5t53.5 -79.5t19.5 -97.5v-380h-128v161zM250 372q-25 0 -47.5 -9.5t-39 -26t-26 -39t-9.5 -47.5t9.5 -47.5t26 -39t39 -26
t47.5 -9.5t47.5 9.5t39 26t26 39t9.5 47.5t-9.5 47.5t-26 39t-39 26t-47.5 9.5z" />
    <glyph glyph-name="r" unicode="r" 
d="M372 250q0 25 -9.5 47.5t-26 39t-39 26t-47.5 9.5t-47.5 -9.5t-39 -26t-26 -39t-9.5 -47.5v-250h-128v250q0 52 19.5 97.5t53.5 79.5t79.5 53.5t97.5 19.5t97.5 -19.5t79.5 -53.5t53.5 -79.5t19.5 -97.5h-128z" />
    <glyph glyph-name="s" unicode="s" 
d="M250 500q44 0 82.5 -14t70.5 -38l-78 -102q-15 12 -34.5 19t-40.5 7q-34 0 -62 -17t-44 -45h349v-1q7 -27 7 -59q0 -52 -19.5 -97.5t-53.5 -79.5t-79.5 -53.5t-97.5 -19.5q-43 0 -81 13.5t-70 36.5l78 102q16 -11 34.5 -17.5t38.5 -6.5q34 0 62 17t44 45h-349
q-3 14 -5 29t-2 31q0 52 19.5 97.5t53.5 79.5t79.5 53.5t97.5 19.5z" />
    <glyph glyph-name="t" unicode="t" 
d="M250 0q-52 0 -97.5 19.5t-79.5 53.5t-53.5 79.5t-19.5 97.5v380h128v-130h308v-128h-308v-122q0 -25 9.5 -47.5t26 -39t39 -26t47.5 -9.5t47.5 9.5t39 26t26 39t9.5 47.5h128q0 -52 -19.5 -97.5t-53.5 -79.5t-79.5 -53.5t-97.5 -19.5z" />
    <glyph glyph-name="u" unicode="u" 
d="M0 500h128v-250q0 -25 9.5 -47.5t26 -39t39 -26t47.5 -9.5t47.5 9.5t39 26t26 39t9.5 47.5v250h128v-250q0 -52 -19.5 -97.5t-53.5 -79.5t-79.5 -53.5t-97.5 -19.5t-97.5 19.5t-79.5 53.5t-53.5 79.5t-19.5 97.5v250z" />
    <glyph glyph-name="v" unicode="v" horiz-adv-x="530" 
d="M-30 500h138l117 -318l117 318h138l-184 -500h-142z" />
    <glyph glyph-name="w" unicode="w" horiz-adv-x="718" 
d="M128 187q4 -26 24 -43t47 -17q29 0 50 21t21 51v301h128v-303q1 -29 21.5 -49.5t49.5 -20.5q27 0 46.5 17t24.5 43v313h128v-301q0 -41 -15.5 -77.5t-42.5 -63.5t-63.5 -42.5t-77.5 -15.5q-39 0 -74 14t-61 39q-27 -25 -61.5 -39t-73.5 -14q-41 0 -77.5 15.5t-63.5 42.5
t-42.5 63.5t-15.5 77.5v301h128v-313z" />
    <glyph glyph-name="x" unicode="x" horiz-adv-x="544" 
d="M363 0q0 29 -8.5 55.5t-24 49t-37 39.5t-46.5 27q-52 -20 -84.5 -66t-32.5 -105h-130q0 76 32.5 140.5t89.5 108.5q-57 43 -90.5 108t-33.5 143h131q0 -59 32.5 -105t83.5 -67q51 20 84 66.5t33 105.5h130q0 -77 -33 -141.5t-89 -107.5q57 -44 90.5 -109t33.5 -142h-131z
" />
    <glyph glyph-name="y" unicode="y" 
d="M0 500h128v-250q0 -25 9.5 -47.5t26 -39t39 -26t47.5 -9.5t47.5 9.5t39 26t26 39t9.5 47.5v250h128v-500q0 -52 -19.5 -97.5t-53.5 -79.5t-79.5 -53.5t-97.5 -19.5t-97.5 19.5t-79.5 53.5t-53.5 79.5t-19.5 97.5h128q0 -25 9.5 -47.5t26 -39t39 -26t47.5 -9.5t47.5 9.5
t39 26t26 39t9.5 47.5v31q-56 -31 -122 -31q-52 0 -97.5 19.5t-79.5 53.5t-53.5 79.5t-19.5 97.5v250z" />
    <glyph glyph-name="z" unicode="z" horiz-adv-x="571" 
d="M-10 500h531l-286 -372h271v-128h-531l285 372h-270v128z" />
    <glyph glyph-name="braceleft" unicode="{" horiz-adv-x="314" 
d="M198 188q0 -25 18.5 -43t41.5 -23v-126q-39 0 -72.5 15.5t-59 42t-40 61t-14.5 73.5q0 27 -19 46t-46 20h-7v123h13q25 2 42 21t17 45q0 39 15.5 72.5t42 59t61 40t73.5 14.5v-131q-25 0 -43 -16t-23 -39q0 -38 -13.5 -70.5t-36.5 -57.5q23 -25 36.5 -57.5t13.5 -69.5z
" />
    <glyph glyph-name="bar" unicode="|" horiz-adv-x="178" 
d="M0 730h128v-830h-128v830z" />
    <glyph glyph-name="braceright" unicode="}" horiz-adv-x="314" 
d="M66 436q0 25 -18.5 43t-41.5 23v126q39 0 72.5 -16t59 -42t40 -60.5t14.5 -73.5q0 -27 19 -46t46 -20h7v-123h-13q-25 -2 -42 -21t-17 -45q0 -39 -16 -72.5t-42 -59t-60.5 -40t-73.5 -14.5v131q25 0 43 16t23 39q0 38 13.5 70.5t36.5 57.5q-23 25 -36.5 57.5t-13.5 69.5z
" />
    <glyph glyph-name="asciitilde" unicode="~" horiz-adv-x="403" 
d="M18 217q0 29 11.5 55t30.5 45t45 30t55 11q58 0 96 -38q19 18 44 28t53 10v-95q-19 0 -33.5 -15t-16.5 -35h-93q0 21 -14.5 35.5t-35.5 14.5q-19 0 -32.5 -14.5t-17.5 -31.5h-92v0z" />
    <glyph glyph-name="exclamdown" unicode="&#xa1;" horiz-adv-x="178" 
d="M128 500.008v129.992h-128v-129.992h128zM0 468.01v-467.972h128v467.972h-128z" />
    <glyph glyph-name="cent" unicode="&#xa2;" 
d="M186 8q-40 11 -74 34t-59 54.5t-39 70.5t-14 83q0 43 14 82.5t39 71t59 54t74 33.5v193h128v-193q38 -10 71 -31.5t57.5 -51t39.5 -66t18 -77.5h-129q-4 28 -19 51t-38 37v-207q23 14 38 37t19 52h129q-3 -41 -18 -77.5t-39.5 -66.5t-57.5 -51.5t-71 -31.5v-154h-128v154
zM128 250q0 -33 16 -60t42 -44v207q-26 -16 -42 -43.5t-16 -59.5z" />
    <glyph glyph-name="sterling" unicode="&#xa3;" 
d="M250 630q52 0 97.5 -19.5t79.5 -53.5t53.5 -79.5t19.5 -97.5h-128q0 25 -9.5 47.5t-26 39t-39 26t-47.5 9.5t-47.5 -9.5t-39 -26t-26 -39t-9.5 -47.5v-60h239v-131h-239v-61h279v-128h-407v380q0 52 19.5 97.5t53.5 79.5t79.5 53.5t97.5 19.5z" />
    <glyph glyph-name="currency" unicode="&#xa4;" horiz-adv-x="737" 
d="M119 671l114 -114q26 14 55.5 21.5t61.5 7.5q36 0 69.5 -10t62.5 -28l113 113l92 -93l-116 -116q29 -52 29 -116q0 -36 -10 -69t-27 -62l114 -114l-93 -92l-117 116q-26 -14 -55.5 -21.5t-61.5 -7.5q-72 0 -131 36l-112 -112l-92 93l114 114q-29 53 -29 119q0 72 37 131
l-111 112zM350 214q25 0 47.5 9.5t39 26t26 39t9.5 47.5t-9.5 47.5t-26 39t-39 26t-47.5 9.5t-47.5 -9.5t-39 -26t-26 -39t-9.5 -47.5t9.5 -47.5t26 -39t39 -26t47.5 -9.5z" />
    <glyph glyph-name="yen" unicode="&#xa5;" 
d="M56 196h136v22q-41 10 -76.5 32.5t-61 54.5t-40 72t-14.5 84v169h128v-169q0 -25 9.5 -47.5t26 -39t39 -26t47.5 -9.5t47.5 9.5t39 26t26 39t9.5 47.5v169h128v-169q0 -43 -13.5 -81.5t-37.5 -70t-57 -54.5t-72 -34v-25h135v-131h-135v-65h-128v65h-136v131z" />
    <glyph glyph-name="brokenbar" unicode="&#xa6;" horiz-adv-x="178" 
d="M128 240v-367h-128v367h128zM128 690v-370h-128v370h128z" />
    <glyph glyph-name="section" unicode="&#xa7;" horiz-adv-x="562" 
d="M461 392q23 -25 36.5 -57.5t14.5 -69.5q-1 -37 -14.5 -69.5t-36.5 -57.5h1v-1l-1 -1q23 -25 36.5 -57t14.5 -69q-1 -37 -14.5 -69.5t-36.5 -57.5q1 0 1 -1q-26 -27 -60.5 -43.5t-75.5 -16.5h-286v121h288q25 4 41.5 22.5t16.5 43.5v1q0 25 -16 42.5t-40 22.5h-146
q-41 0 -75.5 16.5t-60.5 43.5v1q-23 25 -36.5 57.5t-13.5 69.5t13.5 69.5t36.5 57.5v1q-23 25 -36.5 57.5t-13.5 69.5t13.5 69.5t36.5 57.5v1q26 27 60.5 43.5t75.5 16.5h286v-121h-288q-25 -4 -41.5 -22.5t-16.5 -43.5v-1q0 -25 16 -43t39 -23h147q41 0 75.5 -16t60.5 -43
q0 -1 -1 -1zM124 263q0 -25 16 -42.5t39 -22.5h149q25 4 41.5 22.5t16.5 43.5v1q0 25 -16 42.5t-40 22.5h-148q-25 -4 -41.5 -22.5t-16.5 -43.5v-1z" />
    <glyph glyph-name="dieresis" unicode="&#xa8;" horiz-adv-x="378" 
d="M0 540v130h128v-130h-128zM200 540v130h128v-130h-128z" />
    <glyph glyph-name="copyright" unicode="&#xa9;" horiz-adv-x="680" 
d="M315 630q65 0 122.5 -25t100 -67.5t67.5 -100t25 -122.5t-25 -122.5t-67.5 -100.5t-100 -67.5t-122.5 -24.5t-122.5 24.5t-100.5 67.5t-67.5 100.5t-24.5 122.5t24.5 122.5t67.5 100t100.5 67.5t122.5 25zM316 127q39 0 73 15t59.5 40.5t40.5 59.5t15 73t-15 73
t-40.5 59.5t-59.5 40.5t-73 15t-73 -15t-59.5 -40.5t-40 -59.5t-14.5 -73t14.5 -73t40 -59.5t59.5 -40.5t73 -15zM473 304q-2 -30 -15 -57t-34 -46.5t-48.5 -31t-58.5 -11.5q-32 0 -60 12.5t-49 33.5t-33.5 49t-12.5 60t12.5 60.5t33.5 49.5t49 33.5t60 12.5
q31 0 58.5 -11.5t48.5 -31t34 -46.5t15 -57h-81q-3 28 -24.5 47t-50.5 19q-31 0 -53 -22t-22 -54q0 -31 22 -53t53 -22q29 0 50.5 19t24.5 47h81z" />
    <glyph glyph-name="ordfeminine" unicode="&#xaa;" horiz-adv-x="434" 
d="M74.4961 640.066q24.5762 19.2002 54.5293 29.5684q29.9521 10.3682 62.9756 10.3682q39.9365 0 74.8809 -14.9766q34.9443 -14.9756 61.0566 -41.0879t41.0879 -61.0566q14.9766 -34.9443 14.9766 -74.8809q0 -39.9355 -14.9766 -74.8799
q-14.9756 -34.9443 -41.0879 -61.0566t-61.0566 -41.0879q-34.9443 -14.9766 -74.8809 -14.9766q-39.9355 0 -74.8799 14.9766q-34.9443 14.9756 -61.0566 41.0879t-41.0879 61.0566q-14.9766 34.9443 -14.9766 74.8799q0 12.2881 1.53613 23.8086t3.83984 22.2725h268.034
q-12.2881 21.5039 -33.793 34.5596q-21.5039 13.0566 -47.6162 13.0566q-15.3594 0 -29.1836 -4.6084q-13.8242 -4.60742 -25.3447 -13.0557zM192.001 394.305q24.5762 0 44.5449 11.1357q19.9678 11.1367 33.0244 30.3369h-155.138q13.0566 -19.2002 33.0244 -30.3369
q19.9678 -11.1357 44.5439 -11.1357z" />
    <glyph glyph-name="guillemotleft" unicode="&#xab;" horiz-adv-x="612" 
d="M362 128l-91 -91l-268 268l268 268l91 -91l-177 -177zM562 128l-91 -91l-268 268l268 268l91 -91l-177 -177z" />
    <glyph glyph-name="logicalnot" unicode="&#xac;" horiz-adv-x="450" 
d="M1 327h399v-131h-399v131z" />
    <glyph glyph-name="uni00AD" unicode="&#xad;" horiz-adv-x="450" 
d="M1 327h399v-131h-399v131z" />
    <glyph glyph-name="registered" unicode="&#xae;" horiz-adv-x="680" 
d="M315 630q65 0 122.5 -25t100 -67.5t67.5 -100t25 -122.5t-25 -122.5t-67.5 -100.5t-100 -67.5t-122.5 -24.5t-122.5 24.5t-100.5 67.5t-67.5 100.5t-24.5 122.5t24.5 122.5t67.5 100t100.5 67.5t122.5 25zM316 127q43 0 83 19v96q0 14 -10.5 24.5t-24.5 10.5h-85v67h88
q14 2 23 12t9 24t-8.5 24t-22.5 12h-118v-276h-3q16 -7 33.5 -10t35.5 -3zM467 380q0 -41 -27 -70q27 -27 27 -68v-39q17 23 27 51.5t10 60.5q0 39 -15 73t-40.5 59.5t-59.5 40.5t-73 15q-47 0 -88 -22h139q21 0 39 -8t31.5 -21.5t21.5 -32t8 -39.5zM129 315q0 -38 14 -71
t38 -59v260q-24 -26 -38 -59t-14 -71z" />
    <glyph glyph-name="macron" unicode="&#xaf;" horiz-adv-x="450" 
d="M1 667h399v-131h-399v131z" />
    <glyph glyph-name="macron" unicode="&#x2c9;" horiz-adv-x="450" 
d="M1 667h399v-131h-399v131z" />
    <glyph glyph-name="degree" unicode="&#xb0;" horiz-adv-x="266" 
d="M50 517q0 35 24 59t59 24t59 -24t24 -59t-24 -59t-59 -24t-59 24t-24 59zM112 517q0 -9 6 -14.5t15 -5.5t15 5.5t6 14.5t-6 15t-15 6t-15 -6t-6 -15z" />
    <glyph glyph-name="plusminus" unicode="&#xb1;" horiz-adv-x="328" 
d="M1 327h72v73h131v-73h74v-131h-74v-73h-131v73h-72v131zM1 87h277v-131h-277v131z" />
    <glyph glyph-name="twosuperior" unicode="&#xb2;" horiz-adv-x="322" 
d="M245.488 597.239q12.1953 -13.2354 19.3525 -30.4414q7.1582 -17.2061 7.1582 -36.7949q0 -19.5879 -7.1582 -36.7939q-7.15723 -17.207 -19.3525 -30.4424l0.530273 -0.529297q-13.7852 -14.2939 -32.0781 -23.0293q-18.292 -8.73535 -40.0303 -8.73535h-45.5986
v0.529297h-32.3428q-12.1953 -2.64746 -20.6787 -12.1768t-8.4834 -22.7646v-0.529297q0 -13.2363 8.74902 -23.0303q8.74805 -9.79395 21.4736 -11.9121h152.701v-64.0596h-151.111q-21.7383 0 -40.2959 8.73535t-31.8125 23.0303v0.529297
q-12.1953 13.2354 -19.3525 30.4414q-7.1582 17.2061 -7.1582 36.7949q0 19.5879 7.1582 36.7939q7.15723 17.2061 19.3525 30.4424v0.529297q13.2549 14.2939 31.8125 23.0293t40.2959 8.73535h50.3701v-0.529297h27.041q12.1953 2.64746 20.6787 12.1768t8.4834 22.7646
v0.529297q0 13.2354 -8.74902 23.0303q-8.74805 9.79395 -21.4736 11.9121h-152.701v64.0596h151.642q21.7383 0 40.0303 -8.73535q18.293 -8.73535 32.0781 -23.0303q0 -0.529297 -0.530273 -0.529297z" />
    <glyph glyph-name="threesuperior" unicode="&#xb3;" horiz-adv-x="300" 
d="M151.483 629.995q20.6572 0 38.4004 -7.95215q17.7441 -7.95215 31.251 -21.4707q13.5059 -13.5195 21.1865 -31.2793q7.67969 -17.7598 7.67969 -38.4355q0 -20.1465 -7.15039 -37.376t-19.333 -30.4834q12.1826 -13.2539 19.333 -30.4844
q7.15039 -17.2295 7.15039 -37.375q0 -20.6758 -7.67969 -38.4365q-7.68066 -17.7598 -21.1865 -31.2783q-13.5068 -13.5195 -31.251 -21.4717q-17.7432 -7.95215 -38.4004 -7.95215h-151.483v64.1484h153.072q12.7119 2.12012 21.4521 11.9287
q8.73926 9.80762 8.73926 23.0615q0 13.7832 -9.00488 23.8564q-9.00391 10.0732 -22.7754 11.1328h-96.3984v65.209h93.75q14.3018 0.530273 24.3652 10.6025q10.0635 10.0732 10.0635 24.3877q0 13.2539 -8.47461 22.7959q-8.47461 9.54297 -20.6572 12.1934h-154.132
v64.6787h151.483v0z" />
    <glyph glyph-name="acute" unicode="&#xb4;" horiz-adv-x="342" 
d="M-14 625l241 138l65 -113l-240 -138z" />
    <glyph glyph-name="mu" unicode="&#xb5;" 
d="M0 500h128v-250q0 -25 9.5 -47.5t26 -39t39 -26t47.5 -9.5t47.5 9.5t39 26t26 39t9.5 47.5v250h128v-250q0 -52 -19.5 -97.5t-53.5 -79.5t-79.5 -53.5t-97.5 -19.5q-66 0 -122 31v-281h-128v750z" />
    <glyph glyph-name="mu" unicode="&#x3bc;" 
d="M0 500h128v-250q0 -25 9.5 -47.5t26 -39t39 -26t47.5 -9.5t47.5 9.5t39 26t26 39t9.5 47.5v250h128v-250q0 -52 -19.5 -97.5t-53.5 -79.5t-79.5 -53.5t-97.5 -19.5q-66 0 -122 31v-281h-128v750z" />
    <glyph glyph-name="paragraph" unicode="&#xb6;" horiz-adv-x="378" 
d="M200 599h-72v-699h-128v330q-52 0 -97.5 19.5t-79.5 53.5t-53.5 79.5t-19.5 97.5t19.5 97.5t53.5 79.5t79.5 53.5t97.5 19.5h328v-830h-128v699z" />
    <glyph glyph-name="periodcentered" unicode="&#xb7;" horiz-adv-x="176" 
d="M0 325q0 26 18.5 44.5t44.5 18.5t44.5 -18.5t18.5 -44.5t-18.5 -44.5t-44.5 -18.5t-44.5 18.5t-18.5 44.5z" />
    <glyph glyph-name="periodcentered" unicode="&#x2219;" horiz-adv-x="176" 
d="M0 325q0 26 18.5 44.5t44.5 18.5t44.5 -18.5t18.5 -44.5t-18.5 -44.5t-44.5 -18.5t-44.5 18.5t-18.5 44.5z" />
    <glyph glyph-name="cedilla" unicode="&#xb8;" horiz-adv-x="347" 
d="M76 92h94v-135q27 -5 50 -19t40.5 -34.5t27 -46t9.5 -53.5q0 -32 -12.5 -60t-33.5 -49t-49 -33t-60 -12t-60 12t-49 33t-33 49t-12 60h79q0 -31 22 -53t53 -22q32 0 54 22t22 53q0 29 -18.5 49.5t-45.5 25.5h-78v213z" />
    <glyph glyph-name="onesuperior" unicode="&#xb9;" horiz-adv-x="118" 
d="M0 629.996h68v-332.996h-68v332.996z" />
    <glyph glyph-name="ordmasculine" unicode="&#xba;" horiz-adv-x="363" 
d="M156.494 629.988q32.5508 0 61.0332 -12.207q28.4814 -12.2061 49.7646 -33.4893t33.4893 -49.7646q12.207 -28.4824 12.207 -61.0332t-12.207 -61.0332q-12.2061 -28.4814 -33.4893 -49.7646t-49.7646 -33.4893q-28.4824 -12.207 -61.0332 -12.207t-61.0332 12.207
q-28.4814 12.2061 -49.7646 33.4893t-33.4893 49.7646q-12.207 28.4824 -12.207 61.0332t12.207 61.0332q12.2061 28.4814 33.4893 49.7646t49.7646 33.4893q28.4824 12.207 61.0332 12.207zM156.494 397.125q15.6494 0 29.7344 5.94727q14.084 5.94629 24.4121 16.2754
q10.3291 10.3281 16.2754 24.4121q5.94727 14.085 5.94727 29.7344t-5.94727 29.7344q-5.94629 14.084 -16.2754 24.4121q-10.3281 10.3291 -24.4121 16.2754q-14.085 5.94727 -29.7344 5.94727t-29.7344 -5.94727q-14.084 -5.94629 -24.4121 -16.2754
q-10.3291 -10.3281 -16.2754 -24.4121q-5.94727 -14.085 -5.94727 -29.7344t5.94727 -29.7344q5.94629 -14.084 16.2754 -24.4121q10.3281 -10.3291 24.4121 -16.2754q14.085 -5.94727 29.7344 -5.94727z" />
    <glyph glyph-name="guillemotright" unicode="&#xbb;" horiz-adv-x="611" 
d="M2 482l91 91l268 -268l-268 -268l-91 91l177 177zM202 482l91 91l268 -268l-268 -268l-91 91l177 177z" />
    <glyph glyph-name="onequarter" unicode="&#xbc;" horiz-adv-x="736" 
d="M7 625.999h65v-319.999h-65v319.999zM403 630h158l-400 -630h-158zM618.732 330.996h67.2734v-330.996h-67.2734v126.094h-58.3389q-27.3301 0 -51.2432 10.2451q-23.9141 10.2451 -41.7832 28.1084q-17.8701 17.8633 -28.1182 41.7686q-10.249 23.9053 -10.249 51.2256
v73.5547h67.2734v-73.5547q0 -13.1348 4.99316 -24.9561t13.665 -20.4902t20.4971 -13.6602t24.9648 -4.99121h58.3389v137.652z" />
    <glyph glyph-name="onehalf" unicode="&#xbd;" horiz-adv-x="741" 
d="M24 629.997h66v-326.997h-66v326.997zM404 630h158l-400 -630h-158zM665.062 294.919q11.9258 -12.958 18.9248 -29.8027q7 -16.8457 7 -36.0225q0 -19.1777 -7 -36.0234q-6.99902 -16.8447 -18.9248 -29.8027l0.518555 -0.517578q-13.4805 -13.9951 -31.3691 -22.5469
q-17.8877 -8.55273 -39.1455 -8.55273h-44.5908v0.518555h-31.6279q-11.9258 -2.59082 -20.2217 -11.9209t-8.2959 -22.2871v-0.518555q0 -12.958 8.55566 -22.5469q8.55469 -9.58887 20.999 -11.6611h149.326v-62.7158h-147.771q-21.2578 0 -39.4053 8.55176
q-18.1475 8.55273 -31.1094 22.5469v0.517578q-11.9258 12.958 -18.9248 29.8037q-7 16.8447 -7 36.0225t7 36.0225q6.99902 16.8447 18.9248 29.8027v0.518555q12.9619 13.9941 31.1094 22.5459q18.1475 8.55273 39.4053 8.55273h49.2568v-0.518555h26.4434
q11.9258 2.5918 20.2217 11.9209q8.2959 9.33008 8.2959 22.2881v0.517578q0 12.958 -8.55566 22.5469q-8.55469 9.58887 -20.999 11.6621h-149.326v62.7148h148.29q21.2578 0 39.1455 -8.55176q17.8887 -8.55176 31.3691 -22.5459q0 -0.518555 -0.518555 -0.518555z" />
    <glyph glyph-name="threequarters" unicode="&#xbe;" horiz-adv-x="778" 
d="M155.279 629.996q20.4922 0 38.0947 -7.88086t31.002 -21.2783t21.0186 -30.998t7.61914 -38.0908q0 -19.9648 -7.09375 -37.04t-19.1797 -30.21q12.0859 -13.1348 19.1797 -30.21t7.09375 -37.04q0 -20.4902 -7.61914 -38.0908t-21.0186 -30.998t-31.002 -21.2783
t-38.0947 -7.88086h-150.279v63.5723h151.855q12.6113 2.10156 21.2812 11.8213t8.66992 22.8545q0 13.6602 -8.93262 23.6426t-22.5947 11.0332h-95.6328v64.623h93.0059q14.1865 0.525391 24.1699 10.5078q9.98438 9.98242 9.98438 24.168q0 13.1348 -8.40723 22.5918
t-20.4932 12.084h-152.906v64.0977h150.279v0zM505 630h158l-400 -630h-158zM666.493 303.003h61.5156v-303.003h-61.5156v115.43h-53.3457q-24.9902 0 -46.8574 9.37891t-38.207 25.7305q-16.3398 16.3535 -25.7119 38.2363q-9.37109 21.8838 -9.37109 46.8936v67.334
h61.5156v-67.334q0 -12.0244 4.56543 -22.8457t12.4951 -18.7568t18.7432 -12.5049t22.8281 -4.56934h53.3457v126.011z" />
    <glyph glyph-name="questiondown" unicode="&#xbf;" horiz-adv-x="563" 
d="M415.009 368.01v-214.986h-191.988q-22.999 -5 -38.998 -22.499t-15.999 -42.4971v-1q0 -24.999 16.499 -43.498q16.499 -18.498 40.498 -22.498h287.982v-120.993h-285.983q-40.9971 0 -75.4951 16.499t-60.4961 43.498q0 1 1 1q-22.999 24.998 -36.498 57.4961
t-13.499 69.4961q0 36.9971 13.499 69.4951t36.498 57.4971l-1 1q25.998 26.998 60.4961 43.4971t75.4951 16.499h59.9971v91.9941h127.992zM287.017 400.008v129.992h127.992v-129.992h-127.992z" />
    <glyph glyph-name="Agrave" unicode="&#xc0;" 
d="M250 630q52 0 97.5 -19.5t79.5 -53.5t53.5 -79.5t19.5 -97.5v-380h-128v126h-244v-126h-128v380q0 52 19.5 97.5t53.5 79.5t79.5 53.5t97.5 19.5zM372 380q0 25 -9.5 47.5t-26 39t-39 26t-47.5 9.5t-47.5 -9.5t-39 -26t-26 -39t-9.5 -47.5v-126h244v126zM187 893
l240 -139l-65 -113l-240 139z" />
    <glyph glyph-name="Aacute" unicode="&#xc1;" 
d="M250 630q52 0 97.5 -19.5t79.5 -53.5t53.5 -79.5t19.5 -97.5v-380h-128v126h-244v-126h-128v380q0 52 19.5 97.5t53.5 79.5t79.5 53.5t97.5 19.5zM372 380q0 25 -9.5 47.5t-26 39t-39 26t-47.5 9.5t-47.5 -9.5t-39 -26t-26 -39t-9.5 -47.5v-126h244v126zM122 755l241 138
l65 -113l-240 -138z" />
    <glyph glyph-name="Acircumflex" unicode="&#xc2;" 
d="M250 630q52 0 97.5 -19.5t79.5 -53.5t53.5 -79.5t19.5 -97.5v-380h-128v126h-244v-126h-128v380q0 52 19.5 97.5t53.5 79.5t79.5 53.5t97.5 19.5zM372 380q0 25 -9.5 47.5t-26 39t-39 26t-47.5 9.5t-47.5 -9.5t-39 -26t-26 -39t-9.5 -47.5v-126h244v126zM134 644l-91 91
l218 218l218 -218l-91 -91l-127 127z" />
    <glyph glyph-name="Atilde" unicode="&#xc3;" 
d="M250 630q52 0 97.5 -19.5t79.5 -53.5t53.5 -79.5t19.5 -97.5v-380h-128v126h-244v-126h-128v380q0 52 19.5 97.5t53.5 79.5t79.5 53.5t97.5 19.5zM372 380q0 25 -9.5 47.5t-26 39t-39 26t-47.5 9.5t-47.5 -9.5t-39 -26t-26 -39t-9.5 -47.5v-126h244v126zM71 641
q0 29 11.5 55t30.5 45t45 30t55 11q58 0 96 -38q19 18 44 28t53 10v-95q-19 0 -33.5 -15t-16.5 -35h-93q0 21 -14.5 35.5t-35.5 14.5q-19 0 -32.5 -14.5t-17.5 -31.5h-92v0z" />
    <glyph glyph-name="Adieresis" unicode="&#xc4;" 
d="M250 630q52 0 97.5 -19.5t79.5 -53.5t53.5 -79.5t19.5 -97.5v-380h-128v126h-244v-126h-128v380q0 52 19.5 97.5t53.5 79.5t79.5 53.5t97.5 19.5zM372 380q0 25 -9.5 47.5t-26 39t-39 26t-47.5 9.5t-47.5 -9.5t-39 -26t-26 -39t-9.5 -47.5v-126h244v126zM79 670v130h128
v-130h-128zM279 670v130h128v-130h-128z" />
    <glyph glyph-name="Aring" unicode="&#xc5;" 
d="M250 630q52 0 97.5 -19.5t79.5 -53.5t53.5 -79.5t19.5 -97.5v-380h-128v126h-244v-126h-128v380q0 52 19.5 97.5t53.5 79.5t79.5 53.5t97.5 19.5zM372 380q0 25 -9.5 47.5t-26 39t-39 26t-47.5 9.5t-47.5 -9.5t-39 -26t-26 -39t-9.5 -47.5v-126h244v126zM192 747
q0 35 24 59t59 24t59 -24t24 -59t-24 -59t-59 -24t-59 24t-24 59zM254 747q0 -9 6 -14.5t15 -5.5t15 5.5t6 14.5t-6 15t-15 6t-15 -6t-6 -15z" />
    <glyph glyph-name="AE" unicode="&#xc6;" horiz-adv-x="892" 
d="M250 630q52 0 97.5 -19.5t79.5 -53.5t53.5 -79.5t19.5 -97.5v-380h-128v126h-244v-126h-128v380q0 52 19.5 97.5t53.5 79.5t79.5 53.5t97.5 19.5zM372 380q0 25 -9.5 47.5t-26 39t-39 26t-47.5 9.5t-47.5 -9.5t-39 -26t-26 -39t-9.5 -47.5v-126h244v126zM842 630v-121
h-288q-25 -4 -41.5 -22.5t-16.5 -43.5q0 -26 17 -45t43 -21h286v-123h-281q-27 -1 -46 -20t-19 -46q0 -25 16 -43t39 -23h291v-122h-286q-39 0 -72.5 15t-59 40.5t-40 59t-14.5 72.5q0 38 13.5 70.5t36.5 57.5q-23 25 -36.5 57.5t-13.5 70.5q0 39 14.5 72.5t40 59t59 40.5
t72.5 15h286z" />
    <glyph glyph-name="Ccedilla" unicode="&#xc7;" horiz-adv-x="662" 
d="M316 127q62 0 109.5 35.5t67.5 89.5l119 -42q-16 -46 -45 -84.5t-68 -66.5t-86 -43.5t-98 -15.5q-65 0 -122.5 24.5t-100.5 67.5t-67.5 100.5t-24.5 122.5t24.5 122.5t67.5 100t100.5 67.5t122.5 25q51 0 96.5 -15t84 -42t67.5 -64t46 -82l-118 -43q-20 53 -67.5 86
t-107.5 33q-39 0 -73 -15t-59.5 -40.5t-40 -59.5t-14.5 -73t14.5 -73t40 -59.5t59.5 -40.5t73 -15zM264 92h94v-135q27 -5 50 -19t40.5 -34.5t27 -46t9.5 -53.5q0 -32 -12.5 -60t-33.5 -49t-49 -33t-60 -12t-60 12t-49 33t-33 49t-12 60h79q0 -31 22 -53t53 -22q32 0 54 22
t22 53q0 29 -18.5 49.5t-45.5 25.5h-78v213z" />
    <glyph glyph-name="Egrave" unicode="&#xc8;" horiz-adv-x="522" 
d="M472 630v-121h-288q-25 -4 -41.5 -22.5t-16.5 -43.5q0 -26 17 -45t43 -21h286v-123h-281q-27 -1 -46 -20t-19 -46q0 -25 16 -43t39 -23h291v-122h-286q-39 0 -72.5 15t-59 40.5t-40 59t-14.5 72.5q0 38 13.5 70.5t36.5 57.5q-23 25 -36.5 57.5t-13.5 70.5q0 39 14.5 72.5
t40 59t59 40.5t72.5 15h286zM173 893l240 -139l-65 -113l-240 139z" />
    <glyph glyph-name="Eacute" unicode="&#xc9;" horiz-adv-x="522" 
d="M472 630v-121h-288q-25 -4 -41.5 -22.5t-16.5 -43.5q0 -26 17 -45t43 -21h286v-123h-281q-27 -1 -46 -20t-19 -46q0 -25 16 -43t39 -23h291v-122h-286q-39 0 -72.5 15t-59 40.5t-40 59t-14.5 72.5q0 38 13.5 70.5t36.5 57.5q-23 25 -36.5 57.5t-13.5 70.5q0 39 14.5 72.5
t40 59t59 40.5t72.5 15h286zM108 755l241 138l65 -113l-240 -138z" />
    <glyph glyph-name="Ecircumflex" unicode="&#xca;" horiz-adv-x="529" 
d="M472 630v-121h-288q-25 -4 -41.5 -22.5t-16.5 -43.5q0 -26 17 -45t43 -21h286v-123h-281q-27 -1 -46 -20t-19 -46q0 -25 16 -43t39 -23h291v-122h-286q-39 0 -72.5 15t-59 40.5t-40 59t-14.5 72.5q0 38 13.5 70.5t36.5 57.5q-23 25 -36.5 57.5t-13.5 70.5q0 39 14.5 72.5
t40 59t59 40.5t72.5 15h286zM134 644l-91 91l218 218l218 -218l-91 -91l-127 127z" />
    <glyph glyph-name="Edieresis" unicode="&#xcb;" horiz-adv-x="522" 
d="M472 630v-121h-288q-25 -4 -41.5 -22.5t-16.5 -43.5q0 -26 17 -45t43 -21h286v-123h-281q-27 -1 -46 -20t-19 -46q0 -25 16 -43t39 -23h291v-122h-286q-39 0 -72.5 15t-59 40.5t-40 59t-14.5 72.5q0 38 13.5 70.5t36.5 57.5q-23 25 -36.5 57.5t-13.5 70.5q0 39 14.5 72.5
t40 59t59 40.5t72.5 15h286zM97 670v130h128v-130h-128zM297 670v130h128v-130h-128z" />
    <glyph glyph-name="Igrave" unicode="&#xcc;" horiz-adv-x="360" 
d="M266 502h-69v-374h69v-128h-266v128h69v374h-69v128h266v-128zM70 893l240 -139l-65 -113l-240 139z" />
    <glyph glyph-name="Iacute" unicode="&#xcd;" horiz-adv-x="361" 
d="M266 502h-69v-374h69v-128h-266v128h69v374h-69v128h266v-128zM5 755l241 138l65 -113l-240 -138z" />
    <glyph glyph-name="Icircumflex" unicode="&#xce;" horiz-adv-x="399" 
d="M266 502h-69v-374h69v-128h-266v128h69v374h-69v128h266v-128zM5 644l-91 91l218 218l218 -218l-91 -91l-127 127z" />
    <glyph glyph-name="Idieresis" unicode="&#xcf;" horiz-adv-x="345" 
d="M266 502h-69v-374h69v-128h-266v128h69v374h-69v128h266v-128zM-32 670v130h128v-130h-128zM168 670v130h128v-130h-128z" />
    <glyph glyph-name="Eth" unicode="&#xd0;" horiz-adv-x="545" 
d="M180 630q65 0 122.5 -25t100 -67.5t67.5 -100t25 -122.5t-24.5 -122t-67 -100t-99.5 -68t-122 -25h-182v630h180zM128 503v-125h152v-131h-152v-120h53q39 0 73 15t59.5 40.5t40.5 59.5t15 73t-15 73t-40.5 59.5t-59.5 40.5t-73 15h-53z" />
    <glyph glyph-name="Ntilde" unicode="&#xd1;" 
d="M250 630q52 0 97.5 -19.5t79.5 -53.5t53.5 -79.5t19.5 -97.5v-380h-128v380q0 25 -9.5 47.5t-26 39t-39 26t-47.5 9.5t-47.5 -9.5t-39 -26t-26 -39t-9.5 -47.5v-380h-128v380q0 52 19.5 97.5t53.5 79.5t79.5 53.5t97.5 19.5zM75 641q0 29 11.5 55t30.5 45t45 30t55 11
q58 0 96 -38q19 18 44 28t53 10v-95q-19 0 -33.5 -15t-16.5 -35h-93q0 21 -14.5 35.5t-35.5 14.5q-19 0 -32.5 -14.5t-17.5 -31.5h-92v0z" />
    <glyph glyph-name="Ograve" unicode="&#xd2;" horiz-adv-x="680" 
d="M315 630q65 0 122.5 -25t100 -67.5t67.5 -100t25 -122.5t-25 -122.5t-67.5 -100.5t-100 -67.5t-122.5 -24.5t-122.5 24.5t-100.5 67.5t-67.5 100.5t-24.5 122.5t24.5 122.5t67.5 100t100.5 67.5t122.5 25zM316 127q39 0 73 15t59.5 40.5t40.5 59.5t15 73t-15 73
t-40.5 59.5t-59.5 40.5t-73 15t-73 -15t-59.5 -40.5t-40 -59.5t-14.5 -73t14.5 -73t40 -59.5t59.5 -40.5t73 -15zM252 893l240 -139l-65 -113l-240 139z" />
    <glyph glyph-name="Oacute" unicode="&#xd3;" horiz-adv-x="680" 
d="M315 630q65 0 122.5 -25t100 -67.5t67.5 -100t25 -122.5t-25 -122.5t-67.5 -100.5t-100 -67.5t-122.5 -24.5t-122.5 24.5t-100.5 67.5t-67.5 100.5t-24.5 122.5t24.5 122.5t67.5 100t100.5 67.5t122.5 25zM316 127q39 0 73 15t59.5 40.5t40.5 59.5t15 73t-15 73
t-40.5 59.5t-59.5 40.5t-73 15t-73 -15t-59.5 -40.5t-40 -59.5t-14.5 -73t14.5 -73t40 -59.5t59.5 -40.5t73 -15zM187 755l241 138l65 -113l-240 -138z" />
    <glyph glyph-name="Ocircumflex" unicode="&#xd4;" horiz-adv-x="680" 
d="M315 630q65 0 122.5 -25t100 -67.5t67.5 -100t25 -122.5t-25 -122.5t-67.5 -100.5t-100 -67.5t-122.5 -24.5t-122.5 24.5t-100.5 67.5t-67.5 100.5t-24.5 122.5t24.5 122.5t67.5 100t100.5 67.5t122.5 25zM316 127q39 0 73 15t59.5 40.5t40.5 59.5t15 73t-15 73
t-40.5 59.5t-59.5 40.5t-73 15t-73 -15t-59.5 -40.5t-40 -59.5t-14.5 -73t14.5 -73t40 -59.5t59.5 -40.5t73 -15zM193 644l-91 91l218 218l218 -218l-91 -91l-127 127z" />
    <glyph glyph-name="Otilde" unicode="&#xd5;" horiz-adv-x="680" 
d="M315 630q65 0 122.5 -25t100 -67.5t67.5 -100t25 -122.5t-25 -122.5t-67.5 -100.5t-100 -67.5t-122.5 -24.5t-122.5 24.5t-100.5 67.5t-67.5 100.5t-24.5 122.5t24.5 122.5t67.5 100t100.5 67.5t122.5 25zM316 127q39 0 73 15t59.5 40.5t40.5 59.5t15 73t-15 73
t-40.5 59.5t-59.5 40.5t-73 15t-73 -15t-59.5 -40.5t-40 -59.5t-14.5 -73t14.5 -73t40 -59.5t59.5 -40.5t73 -15zM132 641q0 29 11.5 55t30.5 45t45 30t55 11q58 0 96 -38q19 18 44 28t53 10v-95q-19 0 -33.5 -15t-16.5 -35h-93q0 21 -14.5 35.5t-35.5 14.5
q-19 0 -32.5 -14.5t-17.5 -31.5h-92v0z" />
    <glyph glyph-name="Odieresis" unicode="&#xd6;" horiz-adv-x="680" 
d="M315 630q65 0 122.5 -25t100 -67.5t67.5 -100t25 -122.5t-25 -122.5t-67.5 -100.5t-100 -67.5t-122.5 -24.5t-122.5 24.5t-100.5 67.5t-67.5 100.5t-24.5 122.5t24.5 122.5t67.5 100t100.5 67.5t122.5 25zM316 127q39 0 73 15t59.5 40.5t40.5 59.5t15 73t-15 73
t-40.5 59.5t-59.5 40.5t-73 15t-73 -15t-59.5 -40.5t-40 -59.5t-14.5 -73t14.5 -73t40 -59.5t59.5 -40.5t73 -15zM146 670v130h128v-130h-128zM346 670v130h128v-130h-128z" />
    <glyph glyph-name="multiply" unicode="&#xd7;" horiz-adv-x="343" 
d="M5 210l51 51l-52 52l93 92l51 -52l53 53l92 -93l-52 -52l52 -52l-93 -92l-52 51l-51 -51z" />
    <glyph glyph-name="Oslash" unicode="&#xd8;" horiz-adv-x="680" 
d="M315 630q65 0 122.5 -25t100 -67.5t67.5 -100t25 -122.5t-25 -122.5t-67.5 -100.5t-100 -67.5t-122.5 -24.5t-122.5 24.5t-100.5 67.5t-67.5 100.5t-24.5 122.5t24.5 122.5t67.5 100t100.5 67.5t122.5 25zM316 127q39 0 73 15t59.5 40.5t40.5 59.5t15 73t-15 73
t-40.5 59.5t-59.5 40.5t-73 15t-73 -15t-59.5 -40.5t-40 -59.5t-14.5 -73t14.5 -73t40 -59.5t59.5 -40.5t73 -15zM441 630h158l-400 -630h-158z" />
    <glyph glyph-name="Ugrave" unicode="&#xd9;" 
d="M372 630h128v-380q0 -52 -19.5 -97.5t-53.5 -79.5t-79.5 -53.5t-97.5 -19.5t-97.5 19.5t-79.5 53.5t-53.5 79.5t-19.5 97.5v380h128v-380q0 -25 9.5 -47.5t26 -39t39 -26t47.5 -9.5t47.5 9.5t39 26t26 39t9.5 47.5v380zM177 893l240 -139l-65 -113l-240 139z" />
    <glyph glyph-name="Uacute" unicode="&#xda;" 
d="M372 630h128v-380q0 -52 -19.5 -97.5t-53.5 -79.5t-79.5 -53.5t-97.5 -19.5t-97.5 19.5t-79.5 53.5t-53.5 79.5t-19.5 97.5v380h128v-380q0 -25 9.5 -47.5t26 -39t39 -26t47.5 -9.5t47.5 9.5t39 26t26 39t9.5 47.5v380zM122 755l241 138l65 -113l-240 -138z" />
    <glyph glyph-name="Ucircumflex" unicode="&#xdb;" 
d="M372 630h128v-380q0 -52 -19.5 -97.5t-53.5 -79.5t-79.5 -53.5t-97.5 -19.5t-97.5 19.5t-79.5 53.5t-53.5 79.5t-19.5 97.5v380h128v-380q0 -25 9.5 -47.5t26 -39t39 -26t47.5 -9.5t47.5 9.5t39 26t26 39t9.5 47.5v380zM128 644l-91 91l218 218l218 -218l-91 -91
l-127 127z" />
    <glyph glyph-name="Udieresis" unicode="&#xdc;" 
d="M372 630h128v-380q0 -52 -19.5 -97.5t-53.5 -79.5t-79.5 -53.5t-97.5 -19.5t-97.5 19.5t-79.5 53.5t-53.5 79.5t-19.5 97.5v380h128v-380q0 -25 9.5 -47.5t26 -39t39 -26t47.5 -9.5t47.5 9.5t39 26t26 39t9.5 47.5v380zM91 670v130h128v-130h-128zM291 670v130h128v-130
h-128z" />
    <glyph glyph-name="Yacute" unicode="&#xdd;" 
d="M372 630h128v-169q0 -43 -13.5 -81.5t-37.5 -70t-57 -54.5t-72 -34v-221h-128v218q-41 10 -76.5 32.5t-61 54.5t-40 72t-14.5 84v169h128v-169q0 -25 9.5 -47.5t26 -39t39 -26t47.5 -9.5t47.5 9.5t39 26t26 39t9.5 47.5v169zM112 755l241 138l65 -113l-240 -138z" />
    <glyph glyph-name="Thorn" unicode="&#xde;" 
d="M128 0h-128v630h128v-66h122q52 0 97.5 -19.5t79.5 -53.5t53.5 -79.5t19.5 -97.5t-19.5 -97.5t-53.5 -79.5t-79.5 -53.5t-97.5 -19.5h-122v-64zM250 192q25 0 47.5 9.5t39 26t26 39t9.5 47.5t-9.5 47.5t-26 39t-39 26t-47.5 9.5h-122v-244h122z" />
    <glyph glyph-name="germandbls" unicode="&#xdf;" horiz-adv-x="521" 
d="M126 0h-126v446q0 38 15 71.5t40 58t59 39.5t72 15h99q39 0 72.5 -15t59 -40.5t40 -59t14.5 -72.5q0 -38 -13.5 -70.5t-36.5 -57.5q23 -25 36.5 -57.5t13.5 -70.5q0 -39 -14.5 -72.5t-40 -59t-59 -40.5t-72.5 -15h-95v121h98q24 4 40.5 22.5t16.5 43.5q0 26 -17 45
t-43 21h-95v123h90q27 1 46 20t19 46q0 25 -16 43t-39 23h-110q-23 -5 -38 -22.5t-16 -39.5v-446z" />
    <glyph glyph-name="agrave" unicode="&#xe0;" 
d="M97 448q32 25 71 38.5t82 13.5q52 0 97.5 -19.5t79.5 -53.5t53.5 -79.5t19.5 -97.5t-19.5 -97.5t-53.5 -79.5t-79.5 -53.5t-97.5 -19.5t-97.5 19.5t-79.5 53.5t-53.5 79.5t-19.5 97.5q0 16 2 31t5 29h349q-16 28 -44 45t-62 17q-20 0 -38 -6t-33 -17zM250 128
q32 0 58 14.5t43 39.5h-202q17 -25 43 -39.5t58 -14.5zM187 763l240 -139l-65 -113l-240 139z" />
    <glyph glyph-name="aacute" unicode="&#xe1;" 
d="M97 448q32 25 71 38.5t82 13.5q52 0 97.5 -19.5t79.5 -53.5t53.5 -79.5t19.5 -97.5t-19.5 -97.5t-53.5 -79.5t-79.5 -53.5t-97.5 -19.5t-97.5 19.5t-79.5 53.5t-53.5 79.5t-19.5 97.5q0 16 2 31t5 29h349q-16 28 -44 45t-62 17q-20 0 -38 -6t-33 -17zM250 128
q32 0 58 14.5t43 39.5h-202q17 -25 43 -39.5t58 -14.5zM122 625l241 138l65 -113l-240 -138z" />
    <glyph glyph-name="acircumflex" unicode="&#xe2;" 
d="M97 448q32 25 71 38.5t82 13.5q52 0 97.5 -19.5t79.5 -53.5t53.5 -79.5t19.5 -97.5t-19.5 -97.5t-53.5 -79.5t-79.5 -53.5t-97.5 -19.5t-97.5 19.5t-79.5 53.5t-53.5 79.5t-19.5 97.5q0 16 2 31t5 29h349q-16 28 -44 45t-62 17q-20 0 -38 -6t-33 -17zM250 128
q32 0 58 14.5t43 39.5h-202q17 -25 43 -39.5t58 -14.5zM148 514l-91 91l218 218l218 -218l-91 -91l-127 127z" />
    <glyph glyph-name="atilde" unicode="&#xe3;" 
d="M97 448q32 25 71 38.5t82 13.5q52 0 97.5 -19.5t79.5 -53.5t53.5 -79.5t19.5 -97.5t-19.5 -97.5t-53.5 -79.5t-79.5 -53.5t-97.5 -19.5t-97.5 19.5t-79.5 53.5t-53.5 79.5t-19.5 97.5q0 16 2 31t5 29h349q-16 28 -44 45t-62 17q-20 0 -38 -6t-33 -17zM250 128
q32 0 58 14.5t43 39.5h-202q17 -25 43 -39.5t58 -14.5zM107 511q0 29 11.5 55t30.5 45t45 30t55 11q58 0 96 -38q19 18 44 28t53 10v-95q-19 0 -33.5 -15t-16.5 -35h-93q0 21 -14.5 35.5t-35.5 14.5q-19 0 -32.5 -14.5t-17.5 -31.5h-92v0z" />
    <glyph glyph-name="adieresis" unicode="&#xe4;" 
d="M97 448q32 25 71 38.5t82 13.5q52 0 97.5 -19.5t79.5 -53.5t53.5 -79.5t19.5 -97.5t-19.5 -97.5t-53.5 -79.5t-79.5 -53.5t-97.5 -19.5t-97.5 19.5t-79.5 53.5t-53.5 79.5t-19.5 97.5q0 16 2 31t5 29h349q-16 28 -44 45t-62 17q-20 0 -38 -6t-33 -17zM250 128
q32 0 58 14.5t43 39.5h-202q17 -25 43 -39.5t58 -14.5zM111 540v130h128v-130h-128zM311 540v130h128v-130h-128z" />
    <glyph glyph-name="aring" unicode="&#xe5;" 
d="M97 448q32 25 71 38.5t82 13.5q52 0 97.5 -19.5t79.5 -53.5t53.5 -79.5t19.5 -97.5t-19.5 -97.5t-53.5 -79.5t-79.5 -53.5t-97.5 -19.5t-97.5 19.5t-79.5 53.5t-53.5 79.5t-19.5 97.5q0 16 2 31t5 29h349q-16 28 -44 45t-62 17q-20 0 -38 -6t-33 -17zM250 128
q32 0 58 14.5t43 39.5h-202q17 -25 43 -39.5t58 -14.5zM192 617q0 35 24 59t59 24t59 -24t24 -59t-24 -59t-59 -24t-59 24t-24 59zM254 617q0 -9 6 -14.5t15 -5.5t15 5.5t6 14.5t-6 15t-15 6t-15 -6t-6 -15z" />
    <glyph glyph-name="ae" unicode="&#xe6;" horiz-adv-x="902" 
d="M97 448q32 25 71 38.5t82 13.5q52 0 97.5 -19.5t79.5 -53.5t53.5 -79.5t19.5 -97.5t-19.5 -97.5t-53.5 -79.5t-79.5 -53.5t-97.5 -19.5t-97.5 19.5t-79.5 53.5t-53.5 79.5t-19.5 97.5q0 16 2 31t5 29h349q-16 28 -44 45t-62 17q-20 0 -38 -6t-33 -17zM250 128
q32 0 58 14.5t43 39.5h-202q17 -25 43 -39.5t58 -14.5zM755 52q-32 -25 -71 -38.5t-82 -13.5q-52 0 -97.5 19.5t-79.5 53.5t-53.5 79.5t-19.5 97.5t19.5 97.5t53.5 79.5t79.5 53.5t97.5 19.5t97.5 -19.5t79.5 -53.5t53.5 -79.5t19.5 -97.5q0 -16 -2 -31t-5 -29h-349
q16 -28 44 -45t62 -17q20 0 38 6t33 17zM602 372q-32 0 -58 -15t-43 -39h202q-17 24 -43 39t-58 15z" />
    <glyph glyph-name="ccedilla" unicode="&#xe7;" 
d="M500 235q-3 -49 -23.5 -92t-54.5 -74.5t-78 -50t-94 -18.5q-52 0 -97.5 19.5t-79.5 53.5t-53.5 79.5t-19.5 97.5t19.5 97.5t53.5 79.5t79.5 53.5t97.5 19.5q50 0 94 -18.5t78 -50t54.5 -74.5t23.5 -92h-129q-3 22 -13.5 42t-26.5 34t-37 22.5t-44 8.5q-25 0 -47.5 -9.5
t-39 -26t-26 -39t-9.5 -47.5t9.5 -47.5t26 -39t39 -26t47.5 -9.5q23 0 44 8.5t37 22.5t26.5 33.5t13.5 42.5h129zM208 92h94v-135q27 -5 50 -19t40.5 -34.5t27 -46t9.5 -53.5q0 -32 -12.5 -60t-33.5 -49t-49 -33t-60 -12t-60 12t-49 33t-33 49t-12 60h79q0 -31 22 -53
t53 -22q32 0 54 22t22 53q0 29 -18.5 49.5t-45.5 25.5h-78v213z" />
    <glyph glyph-name="egrave" unicode="&#xe8;" 
d="M403 52q-32 -25 -71 -38.5t-82 -13.5q-52 0 -97.5 19.5t-79.5 53.5t-53.5 79.5t-19.5 97.5t19.5 97.5t53.5 79.5t79.5 53.5t97.5 19.5t97.5 -19.5t79.5 -53.5t53.5 -79.5t19.5 -97.5q0 -16 -2 -31t-5 -29h-349q16 -28 44 -45t62 -17q20 0 38 6t33 17zM250 372
q-32 0 -58 -15t-43 -39h202q-17 24 -43 39t-58 15zM187 763l240 -139l-65 -113l-240 139z" />
    <glyph glyph-name="eacute" unicode="&#xe9;" 
d="M403 52q-32 -25 -71 -38.5t-82 -13.5q-52 0 -97.5 19.5t-79.5 53.5t-53.5 79.5t-19.5 97.5t19.5 97.5t53.5 79.5t79.5 53.5t97.5 19.5t97.5 -19.5t79.5 -53.5t53.5 -79.5t19.5 -97.5q0 -16 -2 -31t-5 -29h-349q16 -28 44 -45t62 -17q20 0 38 6t33 17zM250 372
q-32 0 -58 -15t-43 -39h202q-17 24 -43 39t-58 15zM122 625l241 138l65 -113l-240 -138z" />
    <glyph glyph-name="ecircumflex" unicode="&#xea;" 
d="M403 52q-32 -25 -71 -38.5t-82 -13.5q-52 0 -97.5 19.5t-79.5 53.5t-53.5 79.5t-19.5 97.5t19.5 97.5t53.5 79.5t79.5 53.5t97.5 19.5t97.5 -19.5t79.5 -53.5t53.5 -79.5t19.5 -97.5q0 -16 -2 -31t-5 -29h-349q16 -28 44 -45t62 -17q20 0 38 6t33 17zM250 372
q-32 0 -58 -15t-43 -39h202q-17 24 -43 39t-58 15zM128 514l-91 91l218 218l218 -218l-91 -91l-127 127z" />
    <glyph glyph-name="edieresis" unicode="&#xeb;" 
d="M403 52q-32 -25 -71 -38.5t-82 -13.5q-52 0 -97.5 19.5t-79.5 53.5t-53.5 79.5t-19.5 97.5t19.5 97.5t53.5 79.5t79.5 53.5t97.5 19.5t97.5 -19.5t79.5 -53.5t53.5 -79.5t19.5 -97.5q0 -16 -2 -31t-5 -29h-349q16 -28 44 -45t62 -17q20 0 38 6t33 17zM250 372
q-32 0 -58 -15t-43 -39h202q-17 24 -43 39t-58 15zM91 540v130h128v-130h-128zM291 540v130h128v-130h-128z" />
    <glyph glyph-name="igrave" unicode="&#xec;" horiz-adv-x="292" 
d="M128 468v-468h-128v468h128zM2 763l240 -139l-65 -113l-240 139z" />
    <glyph glyph-name="iacute" unicode="&#xed;" horiz-adv-x="292" 
d="M128 468v-468h-128v468h128zM-64 625l241 138l65 -113l-240 -138z" />
    <glyph glyph-name="icircumflex" unicode="&#xee;" horiz-adv-x="337" 
d="M0 468v-468h128v468h-128zM-58 514l-91 91l218 218l218 -218l-91 -91l-127 127z" />
    <glyph glyph-name="idieresis" unicode="&#xef;" horiz-adv-x="280" 
d="M128 468v-468h-128v468h128zM-98 540v130h128v-130h-128zM102 540v130h128v-130h-128z" />
    <glyph glyph-name="eth" unicode="&#xf0;" horiz-adv-x="597" 
d="M189 431l1 277h130v-277h-131zM188 377h173q26 2 43 21t17 45q0 25 -16.5 43.5t-40.5 22.5h-289v121h286q39 0 72.5 -15t59 -40.5t40 -59t14.5 -72.5q0 -38 -13.5 -70.5t-36.5 -57.5q23 -25 36.5 -57.5t13.5 -70.5q0 -39 -14.5 -72.5t-40 -59t-59 -40.5t-72.5 -15h-173
q-39 0 -73.5 15t-60 40.5t-40 59.5t-14.5 73t14.5 73.5t40 60t60 40.5t73.5 15zM187 123h2q1 0 2 -0.5t2 -0.5h173q23 5 39 23t16 43q0 27 -19 46t-46 20h-169q-27 0 -46.5 -19.5t-19.5 -46.5t19.5 -46t46.5 -19z" />
    <glyph glyph-name="ntilde" unicode="&#xf1;" 
d="M500 0h-128v250q0 25 -9.5 47.5t-26 39t-39 26t-47.5 9.5t-47.5 -9.5t-39 -26t-26 -39t-9.5 -47.5v-250h-128v250q0 52 19.5 97.5t53.5 79.5t79.5 53.5t97.5 19.5t97.5 -19.5t79.5 -53.5t53.5 -79.5t19.5 -97.5v-250zM107 511q0 29 11.5 55t30.5 45t45 30t55 11
q58 0 96 -38q19 18 44 28t53 10v-95q-19 0 -33.5 -15t-16.5 -35h-93q0 21 -14.5 35.5t-35.5 14.5q-19 0 -32.5 -14.5t-17.5 -31.5h-92v0z" />
    <glyph glyph-name="ograve" unicode="&#xf2;" 
d="M250 500q52 0 97.5 -19.5t79.5 -53.5t53.5 -79.5t19.5 -97.5t-19.5 -97.5t-53.5 -79.5t-79.5 -53.5t-97.5 -19.5t-97.5 19.5t-79.5 53.5t-53.5 79.5t-19.5 97.5t19.5 97.5t53.5 79.5t79.5 53.5t97.5 19.5zM250 128q25 0 47.5 9.5t39 26t26 39t9.5 47.5t-9.5 47.5t-26 39
t-39 26t-47.5 9.5t-47.5 -9.5t-39 -26t-26 -39t-9.5 -47.5t9.5 -47.5t26 -39t39 -26t47.5 -9.5zM187 763l240 -139l-65 -113l-240 139z" />
    <glyph glyph-name="oacute" unicode="&#xf3;" 
d="M250 500q52 0 97.5 -19.5t79.5 -53.5t53.5 -79.5t19.5 -97.5t-19.5 -97.5t-53.5 -79.5t-79.5 -53.5t-97.5 -19.5t-97.5 19.5t-79.5 53.5t-53.5 79.5t-19.5 97.5t19.5 97.5t53.5 79.5t79.5 53.5t97.5 19.5zM250 128q25 0 47.5 9.5t39 26t26 39t9.5 47.5t-9.5 47.5t-26 39
t-39 26t-47.5 9.5t-47.5 -9.5t-39 -26t-26 -39t-9.5 -47.5t9.5 -47.5t26 -39t39 -26t47.5 -9.5zM122 625l241 138l65 -113l-240 -138z" />
    <glyph glyph-name="ocircumflex" unicode="&#xf4;" 
d="M250 500q52 0 97.5 -19.5t79.5 -53.5t53.5 -79.5t19.5 -97.5t-19.5 -97.5t-53.5 -79.5t-79.5 -53.5t-97.5 -19.5t-97.5 19.5t-79.5 53.5t-53.5 79.5t-19.5 97.5t19.5 97.5t53.5 79.5t79.5 53.5t97.5 19.5zM250 128q25 0 47.5 9.5t39 26t26 39t9.5 47.5t-9.5 47.5t-26 39
t-39 26t-47.5 9.5t-47.5 -9.5t-39 -26t-26 -39t-9.5 -47.5t9.5 -47.5t26 -39t39 -26t47.5 -9.5zM128 514l-91 91l218 218l218 -218l-91 -91l-127 127z" />
    <glyph glyph-name="otilde" unicode="&#xf5;" 
d="M250 500q52 0 97.5 -19.5t79.5 -53.5t53.5 -79.5t19.5 -97.5t-19.5 -97.5t-53.5 -79.5t-79.5 -53.5t-97.5 -19.5t-97.5 19.5t-79.5 53.5t-53.5 79.5t-19.5 97.5t19.5 97.5t53.5 79.5t79.5 53.5t97.5 19.5zM250 128q25 0 47.5 9.5t39 26t26 39t9.5 47.5t-9.5 47.5t-26 39
t-39 26t-47.5 9.5t-47.5 -9.5t-39 -26t-26 -39t-9.5 -47.5t9.5 -47.5t26 -39t39 -26t47.5 -9.5zM77 511q0 29 11.5 55t30.5 45t45 30t55 11q58 0 96 -38q19 18 44 28t53 10v-95q-19 0 -33.5 -15t-16.5 -35h-93q0 21 -14.5 35.5t-35.5 14.5q-19 0 -32.5 -14.5t-17.5 -31.5
h-92v0z" />
    <glyph glyph-name="odieresis" unicode="&#xf6;" 
d="M250 500q52 0 97.5 -19.5t79.5 -53.5t53.5 -79.5t19.5 -97.5t-19.5 -97.5t-53.5 -79.5t-79.5 -53.5t-97.5 -19.5t-97.5 19.5t-79.5 53.5t-53.5 79.5t-19.5 97.5t19.5 97.5t53.5 79.5t79.5 53.5t97.5 19.5zM250 128q25 0 47.5 9.5t39 26t26 39t9.5 47.5t-9.5 47.5t-26 39
t-39 26t-47.5 9.5t-47.5 -9.5t-39 -26t-26 -39t-9.5 -47.5t9.5 -47.5t26 -39t39 -26t47.5 -9.5zM81 540v130h128v-130h-128zM281 540v130h128v-130h-128z" />
    <glyph glyph-name="divide" unicode="&#xf7;" horiz-adv-x="449" 
d="M258 130v-130h-128v130h128zM258 500v-130h-128v130h128zM1 327h399v-131h-399v131z" />
    <glyph glyph-name="oslash" unicode="&#xf8;" horiz-adv-x="554" 
d="M250 500q52 0 97.5 -19.5t79.5 -53.5t53.5 -79.5t19.5 -97.5t-19.5 -97.5t-53.5 -79.5t-79.5 -53.5t-97.5 -19.5t-97.5 19.5t-79.5 53.5t-53.5 79.5t-19.5 97.5t19.5 97.5t53.5 79.5t79.5 53.5t97.5 19.5zM250 128q25 0 47.5 9.5t39 26t26 39t9.5 47.5t-9.5 47.5t-26 39
t-39 26t-47.5 9.5t-47.5 -9.5t-39 -26t-26 -39t-9.5 -47.5t9.5 -47.5t26 -39t39 -26t47.5 -9.5zM361.16 498.993h143.844l-364.16 -498.993h-143.844z" />
    <glyph glyph-name="ugrave" unicode="&#xf9;" 
d="M0 500h128v-250q0 -25 9.5 -47.5t26 -39t39 -26t47.5 -9.5t47.5 9.5t39 26t26 39t9.5 47.5v250h128v-250q0 -52 -19.5 -97.5t-53.5 -79.5t-79.5 -53.5t-97.5 -19.5t-97.5 19.5t-79.5 53.5t-53.5 79.5t-19.5 97.5v250zM187 763l240 -139l-65 -113l-240 139z" />
    <glyph glyph-name="uacute" unicode="&#xfa;" 
d="M0 500h128v-250q0 -25 9.5 -47.5t26 -39t39 -26t47.5 -9.5t47.5 9.5t39 26t26 39t9.5 47.5v250h128v-250q0 -52 -19.5 -97.5t-53.5 -79.5t-79.5 -53.5t-97.5 -19.5t-97.5 19.5t-79.5 53.5t-53.5 79.5t-19.5 97.5v250zM122 625l241 138l65 -113l-240 -138z" />
    <glyph glyph-name="ucircumflex" unicode="&#xfb;" 
d="M0 500h128v-250q0 -25 9.5 -47.5t26 -39t39 -26t47.5 -9.5t47.5 9.5t39 26t26 39t9.5 47.5v250h128v-250q0 -52 -19.5 -97.5t-53.5 -79.5t-79.5 -53.5t-97.5 -19.5t-97.5 19.5t-79.5 53.5t-53.5 79.5t-19.5 97.5v250zM128 514l-91 91l218 218l218 -218l-91 -91l-127 127z
" />
    <glyph glyph-name="udieresis" unicode="&#xfc;" 
d="M0 500h128v-250q0 -25 9.5 -47.5t26 -39t39 -26t47.5 -9.5t47.5 9.5t39 26t26 39t9.5 47.5v250h128v-250q0 -52 -19.5 -97.5t-53.5 -79.5t-79.5 -53.5t-97.5 -19.5t-97.5 19.5t-79.5 53.5t-53.5 79.5t-19.5 97.5v250zM91 540v130h128v-130h-128zM291 540v130h128v-130
h-128z" />
    <glyph glyph-name="yacute" unicode="&#xfd;" 
d="M0 500h128v-250q0 -25 9.5 -47.5t26 -39t39 -26t47.5 -9.5t47.5 9.5t39 26t26 39t9.5 47.5v250h128v-500q0 -52 -19.5 -97.5t-53.5 -79.5t-79.5 -53.5t-97.5 -19.5t-97.5 19.5t-79.5 53.5t-53.5 79.5t-19.5 97.5h128q0 -25 9.5 -47.5t26 -39t39 -26t47.5 -9.5t47.5 9.5
t39 26t26 39t9.5 47.5v31q-56 -31 -122 -31q-52 0 -97.5 19.5t-79.5 53.5t-53.5 79.5t-19.5 97.5v250zM122 625l241 138l65 -113l-240 -138z" />
    <glyph glyph-name="thorn" unicode="&#xfe;" horiz-adv-x="549" 
d="M0 229q0 5 -0.5 10.5t-0.5 10.5v380h129v-162q27 15 57.5 23.5t63.5 8.5q52 0 97.5 -19.5t79.5 -53.5t53.5 -79.5t19.5 -97.5t-19.5 -97.5t-53.5 -79.5t-79.5 -53.5t-97.5 -19.5q-65 0 -121 31v-231h-128v429zM249 128q25 0 47.5 9.5t39 26t26 39t9.5 47.5t-9.5 47.5
t-26 39t-39 26t-47.5 9.5q-47 0 -81 -30t-40 -75v-32q3 -23 13.5 -42.5t26.5 -33.5t37 -22.5t44 -8.5z" />
    <glyph glyph-name="ydieresis" unicode="&#xff;" 
d="M0 500h128v-250q0 -25 9.5 -47.5t26 -39t39 -26t47.5 -9.5t47.5 9.5t39 26t26 39t9.5 47.5v250h128v-500q0 -52 -19.5 -97.5t-53.5 -79.5t-79.5 -53.5t-97.5 -19.5t-97.5 19.5t-79.5 53.5t-53.5 79.5t-19.5 97.5h128q0 -25 9.5 -47.5t26 -39t39 -26t47.5 -9.5t47.5 9.5
t39 26t26 39t9.5 47.5v31q-56 -31 -122 -31q-52 0 -97.5 19.5t-79.5 53.5t-53.5 79.5t-19.5 97.5v250zM90 540v130h128v-130h-128zM290 540v130h128v-130h-128z" />
    <glyph glyph-name="Amacron" unicode="&#x100;" 
d="M250 630q52 0 97.5 -19.5t79.5 -53.5t53.5 -79.5t19.5 -97.5v-380h-128v126h-244v-126h-128v380q0 52 19.5 97.5t53.5 79.5t79.5 53.5t97.5 19.5zM372 380q0 25 -9.5 47.5t-26 39t-39 26t-47.5 9.5t-47.5 -9.5t-39 -26t-26 -39t-9.5 -47.5v-126h244v126zM75 797h399v-131
h-399v131z" />
    <glyph glyph-name="amacron" unicode="&#x101;" 
d="M97 448q32 25 71 38.5t82 13.5q52 0 97.5 -19.5t79.5 -53.5t53.5 -79.5t19.5 -97.5t-19.5 -97.5t-53.5 -79.5t-79.5 -53.5t-97.5 -19.5t-97.5 19.5t-79.5 53.5t-53.5 79.5t-19.5 97.5q0 16 2 31t5 29h349q-16 28 -44 45t-62 17q-20 0 -38 -6t-33 -17zM250 128
q32 0 58 14.5t43 39.5h-202q17 -25 43 -39.5t58 -14.5zM75 667h399v-131h-399v131z" />
    <glyph glyph-name="Abreve" unicode="&#x102;" 
d="M250 630q52 0 97.5 -19.5t79.5 -53.5t53.5 -79.5t19.5 -97.5v-380h-128v126h-244v-126h-128v380q0 52 19.5 97.5t53.5 79.5t79.5 53.5t97.5 19.5zM372 380q0 25 -9.5 47.5t-26 39t-39 26t-47.5 9.5t-47.5 -9.5t-39 -26t-26 -39t-9.5 -47.5v-126h244v126zM274 746
q32 0 54.5 22.5t22.5 53.5v4h80v-4q0 -32 -12.5 -60.5t-33.5 -49.5t-49.5 -33.5t-61.5 -12.5q-32 0 -60.5 12.5t-49.5 33.5t-33.5 49.5t-12.5 60.5v4h80v-4q0 -31 22.5 -53.5t53.5 -22.5z" />
    <glyph glyph-name="abreve" unicode="&#x103;" 
d="M97 448q32 25 71 38.5t82 13.5q52 0 97.5 -19.5t79.5 -53.5t53.5 -79.5t19.5 -97.5t-19.5 -97.5t-53.5 -79.5t-79.5 -53.5t-97.5 -19.5t-97.5 19.5t-79.5 53.5t-53.5 79.5t-19.5 97.5q0 16 2 31t5 29h349q-16 28 -44 45t-62 17q-20 0 -38 -6t-33 -17zM250 128
q32 0 58 14.5t43 39.5h-202q17 -25 43 -39.5t58 -14.5zM274 616q32 0 54.5 22.5t22.5 53.5v4h80v-4q0 -32 -12.5 -60.5t-33.5 -49.5t-49.5 -33.5t-61.5 -12.5q-32 0 -60.5 12.5t-49.5 33.5t-33.5 49.5t-12.5 60.5v4h80v-4q0 -31 22.5 -53.5t53.5 -22.5z" />
    <glyph glyph-name="Aogonek" unicode="&#x104;" 
d="M250 630q52 0 97.5 -19.5t79.5 -53.5t53.5 -79.5t19.5 -97.5v-380h-128v126h-244v-126h-128v380q0 52 19.5 97.5t53.5 79.5t79.5 53.5t97.5 19.5zM372 380q0 25 -9.5 47.5t-26 39t-39 26t-47.5 9.5t-47.5 -9.5t-39 -26t-26 -39t-9.5 -47.5v-126h244v126zM488 -122h-78
q-27 -5 -45.5 -26t-18.5 -50q0 -31 22 -53t54 -22q31 0 53 22t22 53h80q0 -32 -12 -60t-33 -49t-49.5 -33.5t-60.5 -12.5t-60.5 12.5t-49.5 33.5t-33.5 49t-12.5 60q0 29 9.5 54.5t27 46t41 34.5t50.5 19v136h94v-214z" />
    <glyph glyph-name="aogonek" unicode="&#x105;" 
d="M97 448q32 25 71 38.5t82 13.5q52 0 97.5 -19.5t79.5 -53.5t53.5 -79.5t19.5 -97.5t-19.5 -97.5t-53.5 -79.5t-79.5 -53.5t-97.5 -19.5t-97.5 19.5t-79.5 53.5t-53.5 79.5t-19.5 97.5q0 16 2 31t5 29h349q-16 28 -44 45t-62 17q-20 0 -38 -6t-33 -17zM250 128
q32 0 58 14.5t43 39.5h-202q17 -25 43 -39.5t58 -14.5zM411 -122h-78q-27 -5 -45.5 -26t-18.5 -50q0 -31 22 -53t54 -22q31 0 53 22t22 53h80q0 -32 -12 -60t-33 -49t-49.5 -33.5t-60.5 -12.5t-60.5 12.5t-49.5 33.5t-33.5 49t-12.5 60q0 29 9.5 54.5t27 46t41 34.5t50.5 19
v136h94v-214z" />
    <glyph glyph-name="Cacute" unicode="&#x106;" horiz-adv-x="662" 
d="M316 127q62 0 109.5 35.5t67.5 89.5l119 -42q-16 -46 -45 -84.5t-68 -66.5t-86 -43.5t-98 -15.5q-65 0 -122.5 24.5t-100.5 67.5t-67.5 100.5t-24.5 122.5t24.5 122.5t67.5 100t100.5 67.5t122.5 25q51 0 96.5 -15t84 -42t67.5 -64t46 -82l-118 -43q-20 53 -67.5 86
t-107.5 33q-39 0 -73 -15t-59.5 -40.5t-40 -59.5t-14.5 -73t14.5 -73t40 -59.5t59.5 -40.5t73 -15zM178 755l241 138l65 -113l-240 -138z" />
    <glyph glyph-name="cacute" unicode="&#x107;" 
d="M500 235q-3 -49 -23.5 -92t-54.5 -74.5t-78 -50t-94 -18.5q-52 0 -97.5 19.5t-79.5 53.5t-53.5 79.5t-19.5 97.5t19.5 97.5t53.5 79.5t79.5 53.5t97.5 19.5q50 0 94 -18.5t78 -50t54.5 -74.5t23.5 -92h-129q-3 22 -13.5 42t-26.5 34t-37 22.5t-44 8.5q-25 0 -47.5 -9.5
t-39 -26t-26 -39t-9.5 -47.5t9.5 -47.5t26 -39t39 -26t47.5 -9.5q23 0 44 8.5t37 22.5t26.5 33.5t13.5 42.5h129zM122 625l241 138l65 -113l-240 -138z" />
    <glyph glyph-name="Ccircumflex" unicode="&#x108;" horiz-adv-x="662" 
d="M316 127q62 0 109.5 35.5t67.5 89.5l119 -42q-16 -46 -45 -84.5t-68 -66.5t-86 -43.5t-98 -15.5q-65 0 -122.5 24.5t-100.5 67.5t-67.5 100.5t-24.5 122.5t24.5 122.5t67.5 100t100.5 67.5t122.5 25q51 0 96.5 -15t84 -42t67.5 -64t46 -82l-118 -43q-20 53 -67.5 86
t-107.5 33q-39 0 -73 -15t-59.5 -40.5t-40 -59.5t-14.5 -73t14.5 -73t40 -59.5t59.5 -40.5t73 -15zM204 644l-91 91l218 218l218 -218l-91 -91l-127 127z" />
    <glyph glyph-name="ccircumflex" unicode="&#x109;" 
d="M500 235q-3 -49 -23.5 -92t-54.5 -74.5t-78 -50t-94 -18.5q-52 0 -97.5 19.5t-79.5 53.5t-53.5 79.5t-19.5 97.5t19.5 97.5t53.5 79.5t79.5 53.5t97.5 19.5q50 0 94 -18.5t78 -50t54.5 -74.5t23.5 -92h-129q-3 22 -13.5 42t-26.5 34t-37 22.5t-44 8.5q-25 0 -47.5 -9.5
t-39 -26t-26 -39t-9.5 -47.5t9.5 -47.5t26 -39t39 -26t47.5 -9.5q23 0 44 8.5t37 22.5t26.5 33.5t13.5 42.5h129zM148 514l-91 91l218 218l218 -218l-91 -91l-127 127z" />
    <glyph glyph-name="Cdotaccent" unicode="&#x10a;" horiz-adv-x="662" 
d="M316 127q62 0 109.5 35.5t67.5 89.5l119 -42q-16 -46 -45 -84.5t-68 -66.5t-86 -43.5t-98 -15.5q-65 0 -122.5 24.5t-100.5 67.5t-67.5 100.5t-24.5 122.5t24.5 122.5t67.5 100t100.5 67.5t122.5 25q51 0 96.5 -15t84 -42t67.5 -64t46 -82l-118 -43q-20 53 -67.5 86
t-107.5 33q-39 0 -73 -15t-59.5 -40.5t-40 -59.5t-14.5 -73t14.5 -73t40 -59.5t59.5 -40.5t73 -15zM267 811h127v-127h-127v127z" />
    <glyph glyph-name="cdotaccent" unicode="&#x10b;" 
d="M500 235q-3 -49 -23.5 -92t-54.5 -74.5t-78 -50t-94 -18.5q-52 0 -97.5 19.5t-79.5 53.5t-53.5 79.5t-19.5 97.5t19.5 97.5t53.5 79.5t79.5 53.5t97.5 19.5q50 0 94 -18.5t78 -50t54.5 -74.5t23.5 -92h-129q-3 22 -13.5 42t-26.5 34t-37 22.5t-44 8.5q-25 0 -47.5 -9.5
t-39 -26t-26 -39t-9.5 -47.5t9.5 -47.5t26 -39t39 -26t47.5 -9.5q23 0 44 8.5t37 22.5t26.5 33.5t13.5 42.5h129zM211 681h127v-127h-127v127z" />
    <glyph glyph-name="Ccaron" unicode="&#x10c;" horiz-adv-x="662" 
d="M316 127q62 0 109.5 35.5t67.5 89.5l119 -42q-16 -46 -45 -84.5t-68 -66.5t-86 -43.5t-98 -15.5q-65 0 -122.5 24.5t-100.5 67.5t-67.5 100.5t-24.5 122.5t24.5 122.5t67.5 100t100.5 67.5t122.5 25q51 0 96.5 -15t84 -42t67.5 -64t46 -82l-118 -43q-20 53 -67.5 86
t-107.5 33q-39 0 -73 -15t-59.5 -40.5t-40 -59.5t-14.5 -73t14.5 -73t40 -59.5t59.5 -40.5t73 -15zM458 952l91 -91l-218 -218l-218 218l91 91l127 -127z" />
    <glyph glyph-name="ccaron" unicode="&#x10d;" 
d="M500 235q-3 -49 -23.5 -92t-54.5 -74.5t-78 -50t-94 -18.5q-52 0 -97.5 19.5t-79.5 53.5t-53.5 79.5t-19.5 97.5t19.5 97.5t53.5 79.5t79.5 53.5t97.5 19.5q50 0 94 -18.5t78 -50t54.5 -74.5t23.5 -92h-129q-3 22 -13.5 42t-26.5 34t-37 22.5t-44 8.5q-25 0 -47.5 -9.5
t-39 -26t-26 -39t-9.5 -47.5t9.5 -47.5t26 -39t39 -26t47.5 -9.5q23 0 44 8.5t37 22.5t26.5 33.5t13.5 42.5h129zM381 822l91 -91l-218 -218l-218 218l91 91l127 -127z" />
    <glyph glyph-name="Dcaron" unicode="&#x10e;" horiz-adv-x="545" 
d="M180 630q65 0 122.5 -25t100 -67.5t67.5 -100t25 -122.5t-24.5 -122t-67 -100t-99.5 -68t-122 -25h-182v127h181q39 0 73 15t59.5 40.5t40.5 59.5t15 73t-15 73t-40.5 59.5t-59.5 40.5t-73 15h-181v127h180v0zM267 966l91 -91l-218 -218l-218 218l91 91l127 -127z" />
    <glyph glyph-name="dcaron" unicode="&#x10f;" horiz-adv-x="731" 
d="M0 250q0 52 19.5 97.5t53.5 79.5t79.5 53.5t97.5 19.5q33 0 64 -8.5t58 -23.5v162h128v-380q0 -52 -19.5 -97.5t-53.5 -79.5t-79.5 -53.5t-97.5 -19.5t-97.5 19.5t-79.5 53.5t-53.5 79.5t-19.5 97.5zM128 250q0 -25 9.5 -47.5t26 -39t39 -26t47.5 -9.5t47.5 9.5t39 26
t26 39t9.5 47.5t-9.5 47.5t-26 39t-39 26t-47.5 9.5t-47.5 -9.5t-39 -26t-26 -39t-9.5 -47.5zM681 630v-277h-131v277h131z" />
    <glyph glyph-name="Dcroat" unicode="&#x110;" horiz-adv-x="545" 
d="M180 630q65 0 122.5 -25t100 -67.5t67.5 -100t25 -122.5t-24.5 -122t-67 -100t-99.5 -68t-122 -25h-182v127h181q39 0 73 15t59.5 40.5t40.5 59.5t15 73t-15 73t-40.5 59.5t-59.5 40.5t-73 15h-181v127h180v0zM-79 383h399v-131h-399v131z" />
    <glyph glyph-name="dcroat" unicode="&#x111;" 
d="M0 250q0 52 19.5 97.5t53.5 79.5t79.5 53.5t97.5 19.5q33 0 64 -8.5t58 -23.5v162h128v-380q0 -52 -19.5 -97.5t-53.5 -79.5t-79.5 -53.5t-97.5 -19.5t-97.5 19.5t-79.5 53.5t-53.5 79.5t-19.5 97.5zM128 250q0 -25 9.5 -47.5t26 -39t39 -26t47.5 -9.5t47.5 9.5t39 26
t26 39t9.5 47.5t-9.5 47.5t-26 39t-39 26t-47.5 9.5t-47.5 -9.5t-39 -26t-26 -39t-9.5 -47.5zM287 653h277v-131h-277v131z" />
    <glyph glyph-name="Emacron" unicode="&#x112;" horiz-adv-x="522" 
d="M472 630v-121h-288q-25 -4 -41.5 -22.5t-16.5 -43.5q0 -26 17 -45t43 -21h286v-123h-281q-27 -1 -46 -20t-19 -46q0 -25 16 -43t39 -23h291v-122h-286q-39 0 -72.5 15t-59 40.5t-40 59t-14.5 72.5q0 38 13.5 70.5t36.5 57.5q-23 25 -36.5 57.5t-13.5 70.5q0 39 14.5 72.5
t40 59t59 40.5t72.5 15h286zM61 797h399v-131h-399v131z" />
    <glyph glyph-name="emacron" unicode="&#x113;" 
d="M403 52q-32 -25 -71 -38.5t-82 -13.5q-52 0 -97.5 19.5t-79.5 53.5t-53.5 79.5t-19.5 97.5t19.5 97.5t53.5 79.5t79.5 53.5t97.5 19.5t97.5 -19.5t79.5 -53.5t53.5 -79.5t19.5 -97.5q0 -16 -2 -31t-5 -29h-349q16 -28 44 -45t62 -17q20 0 38 6t33 17zM250 372
q-32 0 -58 -15t-43 -39h202q-17 24 -43 39t-58 15zM75 667h399v-131h-399v131z" />
    <glyph glyph-name="Edotaccent" unicode="&#x116;" horiz-adv-x="522" 
d="M472 630v-121h-288q-25 -4 -41.5 -22.5t-16.5 -43.5q0 -26 17 -45t43 -21h286v-123h-281q-27 -1 -46 -20t-19 -46q0 -25 16 -43t39 -23h291v-122h-286q-39 0 -72.5 15t-59 40.5t-40 59t-14.5 72.5q0 38 13.5 70.5t36.5 57.5q-23 25 -36.5 57.5t-13.5 70.5q0 39 14.5 72.5
t40 59t59 40.5t72.5 15h286zM197 811h127v-127h-127v127z" />
    <glyph glyph-name="edotaccent" unicode="&#x117;" 
d="M403 52q-32 -25 -71 -38.5t-82 -13.5q-52 0 -97.5 19.5t-79.5 53.5t-53.5 79.5t-19.5 97.5t19.5 97.5t53.5 79.5t79.5 53.5t97.5 19.5t97.5 -19.5t79.5 -53.5t53.5 -79.5t19.5 -97.5q0 -16 -2 -31t-5 -29h-349q16 -28 44 -45t62 -17q20 0 38 6t33 17zM250 372
q-32 0 -58 -15t-43 -39h202q-17 24 -43 39t-58 15zM190 681h127v-127h-127v127z" />
    <glyph glyph-name="Eogonek" unicode="&#x118;" horiz-adv-x="522" 
d="M472 630v-121h-288q-25 -4 -41.5 -22.5t-16.5 -43.5q0 -26 17 -45t43 -21h286v-123h-281q-27 -1 -46 -20t-19 -46q0 -25 16 -43t39 -23h291v-122h-286q-39 0 -72.5 15t-59 40.5t-40 59t-14.5 72.5q0 38 13.5 70.5t36.5 57.5q-23 25 -36.5 57.5t-13.5 70.5q0 39 14.5 72.5
t40 59t59 40.5t72.5 15h286zM327 -122h-78q-27 -5 -45.5 -26t-18.5 -50q0 -31 22 -53t54 -22q31 0 53 22t22 53h80q0 -32 -12 -60t-33 -49t-49.5 -33.5t-60.5 -12.5t-60.5 12.5t-49.5 33.5t-33.5 49t-12.5 60q0 29 9.5 54.5t27 46t41 34.5t50.5 19v136h94v-214z" />
    <glyph glyph-name="eogonek" unicode="&#x119;" 
d="M403 52q-32 -25 -71 -38.5t-82 -13.5q-52 0 -97.5 19.5t-79.5 53.5t-53.5 79.5t-19.5 97.5t19.5 97.5t53.5 79.5t79.5 53.5t97.5 19.5t97.5 -19.5t79.5 -53.5t53.5 -79.5t19.5 -97.5q0 -16 -2 -31t-5 -29h-349q16 -28 44 -45t62 -17q20 0 38 6t33 17zM250 372
q-32 0 -58 -15t-43 -39h202q-17 24 -43 39t-58 15zM299 -122h-78q-27 -5 -45.5 -26t-18.5 -50q0 -31 22 -53t54 -22q31 0 53 22t22 53h80q0 -32 -12 -60t-33 -49t-49.5 -33.5t-60.5 -12.5t-60.5 12.5t-49.5 33.5t-33.5 49t-12.5 60q0 29 9.5 54.5t27 46t41 34.5t50.5 19v136
h94v-214z" />
    <glyph glyph-name="Ecaron" unicode="&#x11a;" horiz-adv-x="522" 
d="M472 630v-121h-288q-25 -4 -41.5 -22.5t-16.5 -43.5q0 -26 17 -45t43 -21h286v-123h-281q-27 -1 -46 -20t-19 -46q0 -25 16 -43t39 -23h291v-122h-286q-39 0 -72.5 15t-59 40.5t-40 59t-14.5 72.5q0 38 13.5 70.5t36.5 57.5q-23 25 -36.5 57.5t-13.5 70.5q0 39 14.5 72.5
t40 59t59 40.5t72.5 15h286zM388 952l91 -91l-218 -218l-218 218l91 91l127 -127z" />
    <glyph glyph-name="ecaron" unicode="&#x11b;" 
d="M403 52q-32 -25 -71 -38.5t-82 -13.5q-52 0 -97.5 19.5t-79.5 53.5t-53.5 79.5t-19.5 97.5t19.5 97.5t53.5 79.5t79.5 53.5t97.5 19.5t97.5 -19.5t79.5 -53.5t53.5 -79.5t19.5 -97.5q0 -16 -2 -31t-5 -29h-349q16 -28 44 -45t62 -17q20 0 38 6t33 17zM250 372
q-32 0 -58 -15t-43 -39h202q-17 24 -43 39t-58 15zM378 822l91 -91l-218 -218l-218 218l91 91l127 -127z" />
    <glyph glyph-name="Gcircumflex" unicode="&#x11c;" horiz-adv-x="662" 
d="M484 268h128v-380h-128v161q-37 -23 -79.5 -36t-89.5 -13q-65 0 -122.5 24.5t-100.5 67.5t-67.5 100.5t-24.5 122.5t24.5 122.5t67.5 100t100.5 67.5t122.5 25q50 0 96 -15t84.5 -42t67.5 -64t46 -82l-118 -43q-20 53 -67.5 86t-107.5 33q-39 0 -73 -15t-59.5 -40.5
t-40 -59.5t-14.5 -73t14.5 -73t40 -59.5t59.5 -40.5t73 -15q56 0 100.5 29t67.5 75v37zM204 644l-91 91l218 218l218 -218l-91 -91l-127 127z" />
    <glyph glyph-name="gcircumflex" unicode="&#x11d;" 
d="M250 -250q-52 0 -97.5 19.5t-79.5 53.5t-53.5 79.5t-19.5 97.5h128q0 -25 9.5 -47.5t26 -39t39 -26t47.5 -9.5t47.5 9.5t39 26t26 39t9.5 47.5v31q-56 -31 -122 -31q-52 0 -97.5 19.5t-79.5 53.5t-53.5 79.5t-19.5 97.5t19.5 97.5t53.5 79.5t79.5 53.5t97.5 19.5
t97.5 -19.5t79.5 -53.5t53.5 -79.5t19.5 -97.5v-250q0 -52 -19.5 -97.5t-53.5 -79.5t-79.5 -53.5t-97.5 -19.5zM250 128q24 0 46 9t38.5 25t26.5 37.5t11 45.5v5q0 25 -9.5 47.5t-26 39t-39 26t-47.5 9.5t-47.5 -9.5t-39 -26t-26 -39t-9.5 -47.5t9.5 -47.5t26 -39t39 -26
t47.5 -9.5zM148 514l-91 91l218 218l218 -218l-91 -91l-127 127z" />
    <glyph glyph-name="Gbreve" unicode="&#x11e;" horiz-adv-x="662" 
d="M484 268h128v-380h-128v161q-37 -23 -79.5 -36t-89.5 -13q-65 0 -122.5 24.5t-100.5 67.5t-67.5 100.5t-24.5 122.5t24.5 122.5t67.5 100t100.5 67.5t122.5 25q50 0 96 -15t84.5 -42t67.5 -64t46 -82l-118 -43q-20 53 -67.5 86t-107.5 33q-39 0 -73 -15t-59.5 -40.5
t-40 -59.5t-14.5 -73t14.5 -73t40 -59.5t59.5 -40.5t73 -15q56 0 100.5 29t67.5 75v37zM330 746q32 0 54.5 22.5t22.5 53.5v4h80v-4q0 -32 -12.5 -60.5t-33.5 -49.5t-49.5 -33.5t-61.5 -12.5q-32 0 -60.5 12.5t-49.5 33.5t-33.5 49.5t-12.5 60.5v4h80v-4q0 -31 22.5 -53.5
t53.5 -22.5z" />
    <glyph glyph-name="gbreve" unicode="&#x11f;" 
d="M250 -250q-52 0 -97.5 19.5t-79.5 53.5t-53.5 79.5t-19.5 97.5h128q0 -25 9.5 -47.5t26 -39t39 -26t47.5 -9.5t47.5 9.5t39 26t26 39t9.5 47.5v31q-56 -31 -122 -31q-52 0 -97.5 19.5t-79.5 53.5t-53.5 79.5t-19.5 97.5t19.5 97.5t53.5 79.5t79.5 53.5t97.5 19.5
t97.5 -19.5t79.5 -53.5t53.5 -79.5t19.5 -97.5v-250q0 -52 -19.5 -97.5t-53.5 -79.5t-79.5 -53.5t-97.5 -19.5zM250 128q24 0 46 9t38.5 25t26.5 37.5t11 45.5v5q0 25 -9.5 47.5t-26 39t-39 26t-47.5 9.5t-47.5 -9.5t-39 -26t-26 -39t-9.5 -47.5t9.5 -47.5t26 -39t39 -26
t47.5 -9.5zM274 616q32 0 54.5 22.5t22.5 53.5v4h80v-4q0 -32 -12.5 -60.5t-33.5 -49.5t-49.5 -33.5t-61.5 -12.5q-32 0 -60.5 12.5t-49.5 33.5t-33.5 49.5t-12.5 60.5v4h80v-4q0 -31 22.5 -53.5t53.5 -22.5z" />
    <glyph glyph-name="Gdotaccent" unicode="&#x120;" horiz-adv-x="662" 
d="M484 268h128v-380h-128v161q-37 -23 -79.5 -36t-89.5 -13q-65 0 -122.5 24.5t-100.5 67.5t-67.5 100.5t-24.5 122.5t24.5 122.5t67.5 100t100.5 67.5t122.5 25q50 0 96 -15t84.5 -42t67.5 -64t46 -82l-118 -43q-20 53 -67.5 86t-107.5 33q-39 0 -73 -15t-59.5 -40.5
t-40 -59.5t-14.5 -73t14.5 -73t40 -59.5t59.5 -40.5t73 -15q56 0 100.5 29t67.5 75v37zM267 811h127v-127h-127v127z" />
    <glyph glyph-name="gdotaccent" unicode="&#x121;" 
d="M250 -250q-52 0 -97.5 19.5t-79.5 53.5t-53.5 79.5t-19.5 97.5h128q0 -25 9.5 -47.5t26 -39t39 -26t47.5 -9.5t47.5 9.5t39 26t26 39t9.5 47.5v31q-56 -31 -122 -31q-52 0 -97.5 19.5t-79.5 53.5t-53.5 79.5t-19.5 97.5t19.5 97.5t53.5 79.5t79.5 53.5t97.5 19.5
t97.5 -19.5t79.5 -53.5t53.5 -79.5t19.5 -97.5v-250q0 -52 -19.5 -97.5t-53.5 -79.5t-79.5 -53.5t-97.5 -19.5zM250 128q24 0 46 9t38.5 25t26.5 37.5t11 45.5v5q0 25 -9.5 47.5t-26 39t-39 26t-47.5 9.5t-47.5 -9.5t-39 -26t-26 -39t-9.5 -47.5t9.5 -47.5t26 -39t39 -26
t47.5 -9.5zM211 681h127v-127h-127v127z" />
    <glyph glyph-name="Gcommaaccent" unicode="&#x122;" horiz-adv-x="662" 
d="M484 268h128v-380h-128v161q-37 -23 -79.5 -36t-89.5 -13q-65 0 -122.5 24.5t-100.5 67.5t-67.5 100.5t-24.5 122.5t24.5 122.5t67.5 100t100.5 67.5t122.5 25q50 0 96 -15t84.5 -42t67.5 -64t46 -82l-118 -43q-20 53 -67.5 86t-107.5 33q-39 0 -73 -15t-59.5 -40.5
t-40 -59.5t-14.5 -73t14.5 -73t40 -59.5t59.5 -40.5t73 -15q56 0 100.5 29t67.5 75v37zM378 -44v-277h-131v277h131z" />
    <glyph glyph-name="gcommaaccent" unicode="&#x123;" 
d="M250 -250q-52 0 -97.5 19.5t-79.5 53.5t-53.5 79.5t-19.5 97.5h128q0 -25 9.5 -47.5t26 -39t39 -26t47.5 -9.5t47.5 9.5t39 26t26 39t9.5 47.5v31q-56 -31 -122 -31q-52 0 -97.5 19.5t-79.5 53.5t-53.5 79.5t-19.5 97.5t19.5 97.5t53.5 79.5t79.5 53.5t97.5 19.5
t97.5 -19.5t79.5 -53.5t53.5 -79.5t19.5 -97.5v-250q0 -52 -19.5 -97.5t-53.5 -79.5t-79.5 -53.5t-97.5 -19.5zM250 128q24 0 46 9t38.5 25t26.5 37.5t11 45.5v5q0 25 -9.5 47.5t-26 39t-39 26t-47.5 9.5t-47.5 -9.5t-39 -26t-26 -39t-9.5 -47.5t9.5 -47.5t26 -39t39 -26
t47.5 -9.5zM320 808v-277h-131v277h131z" />
    <glyph glyph-name="Hcircumflex" unicode="&#x124;" horiz-adv-x="559" 
d="M381 630h128v-630h-128v228h-202v128h202v274zM0 630h128v-630h-128v630zM125 644l-91 91l218 218l218 -218l-91 -91l-127 127z" />
    <glyph glyph-name="hcircumflex" unicode="&#x125;" 
d="M372 250q0 25 -9.5 47.5t-26 39t-39 26t-47.5 9.5t-47.5 -9.5t-39 -26t-26 -39t-9.5 -47.5v-250h-128v630h128v-162q27 15 58 23.5t64 8.5q52 0 97.5 -19.5t79.5 -53.5t53.5 -79.5t19.5 -97.5v-250h-128v250v0zM137 665l-91 91l218 218l218 -218l-91 -91l-127 127z" />
    <glyph glyph-name="Hbar" unicode="&#x126;" horiz-adv-x="559" 
d="M381 630h128v-630h-128v228h-202v128h202v274zM0 630h128v-630h-128v630zM53 561h399v-131h-399v131z" />
    <glyph glyph-name="hbar" unicode="&#x127;" 
d="M372 250q0 25 -9.5 47.5t-26 39t-39 26t-47.5 9.5t-47.5 -9.5t-39 -26t-26 -39t-9.5 -47.5v-250h-128v630h128v-162q27 15 58 23.5t64 8.5q52 0 97.5 -19.5t79.5 -53.5t53.5 -79.5t19.5 -97.5v-250h-128v250v0zM-2 671h399v-131h-399v131z" />
    <glyph glyph-name="Itilde" unicode="&#x128;" horiz-adv-x="316" 
d="M266 502h-69v-374h69v-128h-266v128h69v374h-69v128h266v-128zM-8 641q0 29 11.5 55t30.5 45t45 30t55 11q58 0 96 -38q19 18 44 28t53 10v-95q-19 0 -33.5 -15t-16.5 -35h-93q0 21 -14.5 35.5t-35.5 14.5q-19 0 -32.5 -14.5t-17.5 -31.5h-92v0z" />
    <glyph glyph-name="itilde" unicode="&#x129;" horiz-adv-x="178" 
d="M128 468v-468h-128v468h128zM-78 511q0 29 11.5 55t30.5 45t45 30t55 11q58 0 96 -38q19 18 44 28t53 10v-95q-19 0 -33.5 -15t-16.5 -35h-93q0 21 -14.5 35.5t-35.5 14.5q-19 0 -32.5 -14.5t-17.5 -31.5h-92z" />
    <glyph glyph-name="Imacron" unicode="&#x12a;" horiz-adv-x="316" 
d="M266 502h-69v-374h69v-128h-266v128h69v374h-69v128h266v-128zM-65 797h399v-131h-399v131z" />
    <glyph glyph-name="imacron" unicode="&#x12b;" horiz-adv-x="178" 
d="M128 468v-468h-128v468h128zM-126 667h399v-131h-399v131z" />
    <glyph glyph-name="Iogonek" unicode="&#x12e;" horiz-adv-x="316" 
d="M266 502h-69v-374h69v-128h-266v128h69v374h-69v128h266v-128zM178 -122h-78q-27 -5 -45.5 -26t-18.5 -50q0 -31 22 -53t54 -22q31 0 53 22t22 53h80q0 -32 -12 -60t-33 -49t-49.5 -33.5t-60.5 -12.5t-60.5 12.5t-49.5 33.5t-33.5 49t-12.5 60q0 29 9.5 54.5t27 46
t41 34.5t50.5 19v136h94v-214z" />
    <glyph glyph-name="iogonek" unicode="&#x12f;" horiz-adv-x="178" 
d="M0 500v130h128v-130h-128zM128 468v-468h-128v468h128zM111 -122h-78q-27 -5 -45.5 -26t-18.5 -50q0 -31 22 -53t54 -22q31 0 53 22t22 53h80q0 -32 -12 -60t-33 -49t-49.5 -33.5t-60.5 -12.5t-60.5 12.5t-49.5 33.5t-33.5 49t-12.5 60q0 29 9.5 54.5t27 46t41 34.5
t50.5 19v136h94v-214z" />
    <glyph glyph-name="Idotaccent" unicode="&#x130;" horiz-adv-x="316" 
d="M266 502h-69v-374h69v-128h-266v128h69v374h-69v128h266v-128zM70 811h127v-127h-127v127z" />
    <glyph glyph-name="dotlessi" unicode="&#x131;" horiz-adv-x="178" 
d="M128 468v-468h-128v468h128z" />
    <glyph glyph-name="Jcircumflex" unicode="&#x134;" 
d="M372 630h128v-380q0 -52 -19.5 -97.5t-53.5 -79.5t-79.5 -53.5t-97.5 -19.5t-97.5 19.5t-79.5 53.5t-53.5 79.5t-19.5 97.5h128q0 -25 9.5 -47.5t26 -39t39 -26t47.5 -9.5t47.5 9.5t39 26t26 39t9.5 47.5v380zM148 644l-91 91l218 218l218 -218l-91 -91l-127 127z" />
    <glyph glyph-name="jcircumflex" unicode="&#x135;" horiz-adv-x="178" 
d="M0 468v-468q0 -25 -9.5 -47.5t-26 -39t-39 -26t-47.5 -9.5t-47.5 9.5t-39 26t-26 39t-9.5 47.5h-128q0 -52 19.5 -97.5t53.5 -79.5t79.5 -53.5t97.5 -19.5t97.5 19.5t79.5 53.5t53.5 79.5t19.5 97.5v468h-128zM-65 514l-91 91l218 218l218 -218l-91 -91l-127 127z" />
    <glyph glyph-name="Kcommaaccent" unicode="&#x136;" horiz-adv-x="551" 
d="M501 630q0 -100 -45.5 -181.5t-121.5 -132.5q38 -26 69 -60t52.5 -74.5t33.5 -86.5t12 -95h-127q0 50 -18.5 94.5t-50.5 78.5t-75.5 55t-92.5 24h-9v-252h-128v630h128v-249h9q49 3 92.5 23.5t75.5 54t50.5 77.5t18.5 94h127v0zM321 -21v-277h-131v277h131z" />
    <glyph glyph-name="kcommaaccent" unicode="&#x137;" horiz-adv-x="494" 
d="M128 0h-128v630h128v-314q38 0 71.5 14.5t58.5 39.5t39.5 58.5t14.5 71.5h130q0 -77 -33 -141.5t-89 -107.5q57 -44 90.5 -109t33.5 -142h-131q0 38 -14.5 72t-39.5 59t-59 39.5t-72 14.5v-185zM278 -21v-277h-131v277h131z" />
    <glyph glyph-name="kgreenlandic" unicode="&#x138;" horiz-adv-x="494" 
d="M128 0h-128v499h128v-183q38 0 71.5 14.5t58.5 39.5t39.5 58.5t14.5 71.5h130q0 -77 -33 -141.5t-89 -107.5q57 -44 90.5 -109t33.5 -142h-131q0 38 -14.5 72t-39.5 59t-59 39.5t-72 14.5v-185z" />
    <glyph glyph-name="Lacute" unicode="&#x139;" horiz-adv-x="457" 
d="M128 128h279v-128h-407v630h128v-502zM75 755l241 138l65 -113l-240 -138z" />
    <glyph glyph-name="lacute" unicode="&#x13a;" horiz-adv-x="178" 
d="M128 0h-128v630h128v-630zM-58 766l241 138l65 -113l-240 -138z" />
    <glyph glyph-name="Lcommaaccent" unicode="&#x13b;" horiz-adv-x="457" 
d="M128 128h279v-128h-407v630h128v-502zM276 -21v-277h-131v277h131z" />
    <glyph glyph-name="lcommaaccent" unicode="&#x13c;" horiz-adv-x="178" 
d="M128 0h-128v630h128v-630zM131 -21v-277h-131v277h131z" />
    <glyph glyph-name="Lcaron" unicode="&#x13d;" horiz-adv-x="457" 
d="M128 128h279v-128h-407v630h128v-502zM294 760v-277h-131v277h131z" />
    <glyph glyph-name="lcaron" unicode="&#x13e;" horiz-adv-x="359" 
d="M128 0h-128v630h128v-630zM309 630v-277h-131v277h131z" />
    <glyph glyph-name="Lslash" unicode="&#x141;" horiz-adv-x="457" 
d="M-67 246l345 199l66 -113l-346 -200zM128 128h279v-128h-407v630h128v-502z" />
    <glyph glyph-name="lslash" unicode="&#x142;" horiz-adv-x="345" 
d="M-116 254l345 199l66 -113l-346 -200zM128 0h-128v630h128v-630z" />
    <glyph glyph-name="Nacute" unicode="&#x143;" 
d="M250 630q52 0 97.5 -19.5t79.5 -53.5t53.5 -79.5t19.5 -97.5v-380h-128v380q0 25 -9.5 47.5t-26 39t-39 26t-47.5 9.5t-47.5 -9.5t-39 -26t-26 -39t-9.5 -47.5v-380h-128v380q0 52 19.5 97.5t53.5 79.5t79.5 53.5t97.5 19.5zM122 755l241 138l65 -113l-240 -138z" />
    <glyph glyph-name="nacute" unicode="&#x144;" 
d="M500 0h-128v250q0 25 -9.5 47.5t-26 39t-39 26t-47.5 9.5t-47.5 -9.5t-39 -26t-26 -39t-9.5 -47.5v-250h-128v250q0 52 19.5 97.5t53.5 79.5t79.5 53.5t97.5 19.5t97.5 -19.5t79.5 -53.5t53.5 -79.5t19.5 -97.5v-250zM122 625l241 138l65 -113l-240 -138z" />
    <glyph glyph-name="Ncommaaccent" unicode="&#x145;" 
d="M250 630q52 0 97.5 -19.5t79.5 -53.5t53.5 -79.5t19.5 -97.5v-380h-128v380q0 25 -9.5 47.5t-26 39t-39 26t-47.5 9.5t-47.5 -9.5t-39 -26t-26 -39t-9.5 -47.5v-380h-128v380q0 52 19.5 97.5t53.5 79.5t79.5 53.5t97.5 19.5zM321 -21v-277h-131v277h131z" />
    <glyph glyph-name="ncommaaccent" unicode="&#x146;" 
d="M500 0h-128v250q0 25 -9.5 47.5t-26 39t-39 26t-47.5 9.5t-47.5 -9.5t-39 -26t-26 -39t-9.5 -47.5v-250h-128v250q0 52 19.5 97.5t53.5 79.5t79.5 53.5t97.5 19.5t97.5 -19.5t79.5 -53.5t53.5 -79.5t19.5 -97.5v-250zM321 -21v-277h-131v277h131z" />
    <glyph glyph-name="Ncaron" unicode="&#x147;" 
d="M250 630q52 0 97.5 -19.5t79.5 -53.5t53.5 -79.5t19.5 -97.5v-380h-128v380q0 25 -9.5 47.5t-26 39t-39 26t-47.5 9.5t-47.5 -9.5t-39 -26t-26 -39t-9.5 -47.5v-380h-128v380q0 52 19.5 97.5t53.5 79.5t79.5 53.5t97.5 19.5zM376 952l91 -91l-218 -218l-218 218l91 91
l127 -127z" />
    <glyph glyph-name="ncaron" unicode="&#x148;" 
d="M500 0h-128v250q0 25 -9.5 47.5t-26 39t-39 26t-47.5 9.5t-47.5 -9.5t-39 -26t-26 -39t-9.5 -47.5v-250h-128v250q0 52 19.5 97.5t53.5 79.5t79.5 53.5t97.5 19.5t97.5 -19.5t79.5 -53.5t53.5 -79.5t19.5 -97.5v-250zM402 822l91 -91l-218 -218l-218 218l91 91l127 -127z
" />
    <glyph glyph-name="Eng" unicode="&#x14a;" 
d="M250 630q52 0 97.5 -19.5t79.5 -53.5t53.5 -79.5t19.5 -97.5v-380h-128v380q0 25 -9.5 47.5t-26 39t-39 26t-47.5 9.5t-47.5 -9.5t-39 -26t-26 -39t-9.5 -47.5v-380h-128v380q0 52 19.5 97.5t53.5 79.5t79.5 53.5t97.5 19.5zM372 326h128v-380q0 -52 -19.5 -97.5
t-53.5 -79.5t-79.5 -53.5t-97.5 -19.5t-97.5 19.5t-79.5 53.5t-53.5 79.5t-19.5 97.5h128q0 -25 9.5 -47.5t26 -39t39 -26t47.5 -9.5t47.5 9.5t39 26t26 39t9.5 47.5v380z" />
    <glyph glyph-name="eng" unicode="&#x14b;" 
d="M501 -234h-129v484q0 25 -9.5 47.5t-26 39t-39 26t-47.5 9.5t-47.5 -9.5t-39 -26t-26 -39t-9.5 -47.5v-250h-128v250q0 52 19.5 97.5t53.5 79.5t79.5 53.5t97.5 19.5t97.5 -19.5t79.5 -53.5t53.5 -79.5t19.5 -97.5z" />
    <glyph glyph-name="Omacron" unicode="&#x14c;" horiz-adv-x="680" 
d="M315 630q65 0 122.5 -25t100 -67.5t67.5 -100t25 -122.5t-25 -122.5t-67.5 -100.5t-100 -67.5t-122.5 -24.5t-122.5 24.5t-100.5 67.5t-67.5 100.5t-24.5 122.5t24.5 122.5t67.5 100t100.5 67.5t122.5 25zM316 127q39 0 73 15t59.5 40.5t40.5 59.5t15 73t-15 73
t-40.5 59.5t-59.5 40.5t-73 15t-73 -15t-59.5 -40.5t-40 -59.5t-14.5 -73t14.5 -73t40 -59.5t59.5 -40.5t73 -15zM113 797h399v-131h-399v131z" />
    <glyph glyph-name="omacron" unicode="&#x14d;" 
d="M250 500q52 0 97.5 -19.5t79.5 -53.5t53.5 -79.5t19.5 -97.5t-19.5 -97.5t-53.5 -79.5t-79.5 -53.5t-97.5 -19.5t-97.5 19.5t-79.5 53.5t-53.5 79.5t-19.5 97.5t19.5 97.5t53.5 79.5t79.5 53.5t97.5 19.5zM250 128q25 0 47.5 9.5t39 26t26 39t9.5 47.5t-9.5 47.5t-26 39
t-39 26t-47.5 9.5t-47.5 -9.5t-39 -26t-26 -39t-9.5 -47.5t9.5 -47.5t26 -39t39 -26t47.5 -9.5zM54 667h399v-131h-399v131z" />
    <glyph glyph-name="Ohungarumlaut" unicode="&#x150;" horiz-adv-x="680" 
d="M315 630q65 0 122.5 -25t100 -67.5t67.5 -100t25 -122.5t-25 -122.5t-67.5 -100.5t-100 -67.5t-122.5 -24.5t-122.5 24.5t-100.5 67.5t-67.5 100.5t-24.5 122.5t24.5 122.5t67.5 100t100.5 67.5t122.5 25zM316 127q39 0 73 15t59.5 40.5t40.5 59.5t15 73t-15 73
t-40.5 59.5t-59.5 40.5t-73 15t-73 -15t-59.5 -40.5t-40 -59.5t-14.5 -73t14.5 -73t40 -59.5t59.5 -40.5t73 -15zM16 755l241 138l65 -113l-240 -138zM358 755l241 138l65 -113l-240 -138z" />
    <glyph glyph-name="ohungarumlaut" unicode="&#x151;" 
d="M250 500q52 0 97.5 -19.5t79.5 -53.5t53.5 -79.5t19.5 -97.5t-19.5 -97.5t-53.5 -79.5t-79.5 -53.5t-97.5 -19.5t-97.5 19.5t-79.5 53.5t-53.5 79.5t-19.5 97.5t19.5 97.5t53.5 79.5t79.5 53.5t97.5 19.5zM250 128q25 0 47.5 9.5t39 26t26 39t9.5 47.5t-9.5 47.5t-26 39
t-39 26t-47.5 9.5t-47.5 -9.5t-39 -26t-26 -39t-9.5 -47.5t9.5 -47.5t26 -39t39 -26t47.5 -9.5zM-48 625l241 138l65 -113l-240 -138zM294 625l241 138l65 -113l-240 -138z" />
    <glyph glyph-name="OE" unicode="&#x152;" horiz-adv-x="1003" 
d="M315 630q65 0 122.5 -25t100 -67.5t67.5 -100t25 -122.5t-25 -122.5t-67.5 -100.5t-100 -67.5t-122.5 -24.5t-122.5 24.5t-100.5 67.5t-67.5 100.5t-24.5 122.5t24.5 122.5t67.5 100t100.5 67.5t122.5 25zM316 127q39 0 73 15t59.5 40.5t40.5 59.5t15 73t-15 73
t-40.5 59.5t-59.5 40.5t-73 15t-73 -15t-59.5 -40.5t-40 -59.5t-14.5 -73t14.5 -73t40 -59.5t59.5 -40.5t73 -15zM953 630v-121h-288q-25 -4 -41.5 -22.5t-16.5 -43.5q0 -26 17 -45t43 -21h286v-123h-281q-27 -1 -46 -20t-19 -46q0 -25 16 -43t39 -23h291v-122h-286
q-39 0 -72.5 15t-59 40.5t-40 59t-14.5 72.5q0 38 13.5 70.5t36.5 57.5q-23 25 -36.5 57.5t-13.5 70.5q0 39 14.5 72.5t40 59t59 40.5t72.5 15h286z" />
    <glyph glyph-name="oe" unicode="&#x153;" horiz-adv-x="928" 
d="M250 500q52 0 97.5 -19.5t79.5 -53.5t53.5 -79.5t19.5 -97.5t-19.5 -97.5t-53.5 -79.5t-79.5 -53.5t-97.5 -19.5t-97.5 19.5t-79.5 53.5t-53.5 79.5t-19.5 97.5t19.5 97.5t53.5 79.5t79.5 53.5t97.5 19.5zM250 128q25 0 47.5 9.5t39 26t26 39t9.5 47.5t-9.5 47.5t-26 39
t-39 26t-47.5 9.5t-47.5 -9.5t-39 -26t-26 -39t-9.5 -47.5t9.5 -47.5t26 -39t39 -26t47.5 -9.5zM781 52q-32 -25 -71 -38.5t-82 -13.5q-52 0 -97.5 19.5t-79.5 53.5t-53.5 79.5t-19.5 97.5t19.5 97.5t53.5 79.5t79.5 53.5t97.5 19.5t97.5 -19.5t79.5 -53.5t53.5 -79.5
t19.5 -97.5q0 -16 -2 -31t-5 -29h-349q16 -28 44 -45t62 -17q20 0 38 6t33 17zM628 372q-32 0 -58 -15t-43 -39h202q-17 24 -43 39t-58 15z" />
    <glyph glyph-name="Racute" unicode="&#x154;" horiz-adv-x="579" 
d="M529 443q0 -38 -13.5 -70.5t-36.5 -57.5q23 -25 36.5 -57.5t13.5 -69.5v-188h-126v188q0 27 -19 46t-46 20h-157v123h163q25 2 42 21t17 45q0 25 -16.5 43.5t-40.5 22.5h-218v-509h-128v630h344q38 0 72 -15t59 -40.5t39.5 -59t14.5 -72.5zM136 755l241 138l65 -113
l-240 -138z" />
    <glyph glyph-name="racute" unicode="&#x155;" 
d="M372 250q0 25 -9.5 47.5t-26 39t-39 26t-47.5 9.5t-47.5 -9.5t-39 -26t-26 -39t-9.5 -47.5v-250h-128v250q0 52 19.5 97.5t53.5 79.5t79.5 53.5t97.5 19.5t97.5 -19.5t79.5 -53.5t53.5 -79.5t19.5 -97.5h-128zM122 625l241 138l65 -113l-240 -138z" />
    <glyph glyph-name="Rcommaaccent" unicode="&#x156;" horiz-adv-x="579" 
d="M529 443q0 -38 -13.5 -70.5t-36.5 -57.5q23 -25 36.5 -57.5t13.5 -69.5v-188h-126v188q0 27 -19 46t-46 20h-157v123h163q25 2 42 21t17 45q0 25 -16.5 43.5t-40.5 22.5h-218v-509h-128v630h344q38 0 72 -15t59 -40.5t39.5 -59t14.5 -72.5zM321 -21v-277h-131v277h131z
" />
    <glyph glyph-name="rcommaaccent" unicode="&#x157;" 
d="M372 250q0 25 -9.5 47.5t-26 39t-39 26t-47.5 9.5t-47.5 -9.5t-39 -26t-26 -39t-9.5 -47.5v-250h-128v250q0 52 19.5 97.5t53.5 79.5t79.5 53.5t97.5 19.5t97.5 -19.5t79.5 -53.5t53.5 -79.5t19.5 -97.5h-128zM131 -35v-277h-131v277h131z" />
    <glyph glyph-name="Rcaron" unicode="&#x158;" horiz-adv-x="579" 
d="M529 443q0 -38 -13.5 -70.5t-36.5 -57.5q23 -25 36.5 -57.5t13.5 -69.5v-188h-126v188q0 27 -19 46t-46 20h-157v123h163q25 2 42 21t17 45q0 25 -16.5 43.5t-40.5 22.5h-218v-509h-128v630h344q38 0 72 -15t59 -40.5t39.5 -59t14.5 -72.5zM384 952l91 -91l-218 -218
l-218 218l91 91l127 -127z" />
    <glyph glyph-name="rcaron" unicode="&#x159;" 
d="M372 250q0 25 -9.5 47.5t-26 39t-39 26t-47.5 9.5t-47.5 -9.5t-39 -26t-26 -39t-9.5 -47.5v-250h-128v250q0 52 19.5 97.5t53.5 79.5t79.5 53.5t97.5 19.5t97.5 -19.5t79.5 -53.5t53.5 -79.5t19.5 -97.5h-128zM382 822l91 -91l-218 -218l-218 218l91 91l127 -127z" />
    <glyph glyph-name="Sacute" unicode="&#x15a;" horiz-adv-x="562" 
d="M461 315q23 -25 36.5 -57.5t14.5 -69.5q-1 -37 -14.5 -69.5t-36.5 -57.5q1 0 1 -1q-26 -27 -60.5 -43.5t-75.5 -16.5h-286v121h288q25 4 41.5 22.5t16.5 43.5v1q0 25 -16 42.5t-40 22.5h-146q-41 0 -75.5 16.5t-60.5 43.5v1q-23 25 -36.5 57.5t-13.5 69.5t13.5 69.5
t36.5 57.5v1q26 27 60.5 43.5t75.5 16.5h286v-121h-288q-25 -4 -41.5 -22.5t-16.5 -43.5v-1q0 -25 16 -43t39 -23h147q41 0 75.5 -16t60.5 -43q0 -1 -1 -1zM128 755l241 138l65 -113l-240 -138z" />
    <glyph glyph-name="sacute" unicode="&#x15b;" 
d="M250 500q44 0 82.5 -14t70.5 -38l-78 -102q-15 12 -34.5 19t-40.5 7q-34 0 -62 -17t-44 -45h349v-1q7 -27 7 -59q0 -52 -19.5 -97.5t-53.5 -79.5t-79.5 -53.5t-97.5 -19.5q-43 0 -81 13.5t-70 36.5l78 102q16 -11 34.5 -17.5t38.5 -6.5q34 0 62 17t44 45h-349
q-3 14 -5 29t-2 31q0 52 19.5 97.5t53.5 79.5t79.5 53.5t97.5 19.5zM122 625l241 138l65 -113l-240 -138z" />
    <glyph glyph-name="Scircumflex" unicode="&#x15c;" horiz-adv-x="562" 
d="M461 315q23 -25 36.5 -57.5t14.5 -69.5q-1 -37 -14.5 -69.5t-36.5 -57.5q1 0 1 -1q-26 -27 -60.5 -43.5t-75.5 -16.5h-286v121h288q25 4 41.5 22.5t16.5 43.5v1q0 25 -16 42.5t-40 22.5h-146q-41 0 -75.5 16.5t-60.5 43.5v1q-23 25 -36.5 57.5t-13.5 69.5t13.5 69.5
t36.5 57.5v1q26 27 60.5 43.5t75.5 16.5h286v-121h-288q-25 -4 -41.5 -22.5t-16.5 -43.5v-1q0 -25 16 -43t39 -23h147q41 0 75.5 -16t60.5 -43q0 -1 -1 -1zM154 644l-91 91l218 218l218 -218l-91 -91l-127 127z" />
    <glyph glyph-name="scircumflex" unicode="&#x15d;" 
d="M250 500q44 0 82.5 -14t70.5 -38l-78 -102q-15 12 -34.5 19t-40.5 7q-34 0 -62 -17t-44 -45h349v-1q7 -27 7 -59q0 -52 -19.5 -97.5t-53.5 -79.5t-79.5 -53.5t-97.5 -19.5q-43 0 -81 13.5t-70 36.5l78 102q16 -11 34.5 -17.5t38.5 -6.5q34 0 62 17t44 45h-349
q-3 14 -5 29t-2 31q0 52 19.5 97.5t53.5 79.5t79.5 53.5t97.5 19.5zM148 514l-91 91l218 218l218 -218l-91 -91l-127 127z" />
    <glyph glyph-name="Scedilla" unicode="&#x15e;" horiz-adv-x="562" 
d="M461 315q23 -25 36.5 -57.5t14.5 -69.5q-1 -37 -14.5 -69.5t-36.5 -57.5q1 0 1 -1q-26 -27 -60.5 -43.5t-75.5 -16.5h-286v121h288q25 4 41.5 22.5t16.5 43.5v1q0 25 -16 42.5t-40 22.5h-146q-41 0 -75.5 16.5t-60.5 43.5v1q-23 25 -36.5 57.5t-13.5 69.5t13.5 69.5
t36.5 57.5v1q26 27 60.5 43.5t75.5 16.5h286v-121h-288q-25 -4 -41.5 -22.5t-16.5 -43.5v-1q0 -25 16 -43t39 -23h147q41 0 75.5 -16t60.5 -43q0 -1 -1 -1zM214 92h94v-135q27 -5 50 -19t40.5 -34.5t27 -46t9.5 -53.5q0 -32 -12.5 -60t-33.5 -49t-49 -33t-60 -12t-60 12
t-49 33t-33 49t-12 60h79q0 -31 22 -53t53 -22q32 0 54 22t22 53q0 29 -18.5 49.5t-45.5 25.5h-78v213z" />
    <glyph glyph-name="Scedilla" unicode="&#xf6c1;" horiz-adv-x="562" 
d="M461 315q23 -25 36.5 -57.5t14.5 -69.5q-1 -37 -14.5 -69.5t-36.5 -57.5q1 0 1 -1q-26 -27 -60.5 -43.5t-75.5 -16.5h-286v121h288q25 4 41.5 22.5t16.5 43.5v1q0 25 -16 42.5t-40 22.5h-146q-41 0 -75.5 16.5t-60.5 43.5v1q-23 25 -36.5 57.5t-13.5 69.5t13.5 69.5
t36.5 57.5v1q26 27 60.5 43.5t75.5 16.5h286v-121h-288q-25 -4 -41.5 -22.5t-16.5 -43.5v-1q0 -25 16 -43t39 -23h147q41 0 75.5 -16t60.5 -43q0 -1 -1 -1zM214 92h94v-135q27 -5 50 -19t40.5 -34.5t27 -46t9.5 -53.5q0 -32 -12.5 -60t-33.5 -49t-49 -33t-60 -12t-60 12
t-49 33t-33 49t-12 60h79q0 -31 22 -53t53 -22q32 0 54 22t22 53q0 29 -18.5 49.5t-45.5 25.5h-78v213z" />
    <glyph glyph-name="scedilla" unicode="&#x15f;" 
d="M250 500q44 0 82.5 -14t70.5 -38l-78 -102q-15 12 -34.5 19t-40.5 7q-34 0 -62 -17t-44 -45h349v-1q7 -27 7 -59q0 -52 -19.5 -97.5t-53.5 -79.5t-79.5 -53.5t-97.5 -19.5q-43 0 -81 13.5t-70 36.5l78 102q16 -11 34.5 -17.5t38.5 -6.5q34 0 62 17t44 45h-349
q-3 14 -5 29t-2 31q0 52 19.5 97.5t53.5 79.5t79.5 53.5t97.5 19.5zM208 92h94v-135q27 -5 50 -19t40.5 -34.5t27 -46t9.5 -53.5q0 -32 -12.5 -60t-33.5 -49t-49 -33t-60 -12t-60 12t-49 33t-33 49t-12 60h79q0 -31 22 -53t53 -22q32 0 54 22t22 53q0 29 -18.5 49.5
t-45.5 25.5h-78v213z" />
    <glyph glyph-name="scedilla" unicode="&#xf6c2;" 
d="M250 500q44 0 82.5 -14t70.5 -38l-78 -102q-15 12 -34.5 19t-40.5 7q-34 0 -62 -17t-44 -45h349v-1q7 -27 7 -59q0 -52 -19.5 -97.5t-53.5 -79.5t-79.5 -53.5t-97.5 -19.5q-43 0 -81 13.5t-70 36.5l78 102q16 -11 34.5 -17.5t38.5 -6.5q34 0 62 17t44 45h-349
q-3 14 -5 29t-2 31q0 52 19.5 97.5t53.5 79.5t79.5 53.5t97.5 19.5zM208 92h94v-135q27 -5 50 -19t40.5 -34.5t27 -46t9.5 -53.5q0 -32 -12.5 -60t-33.5 -49t-49 -33t-60 -12t-60 12t-49 33t-33 49t-12 60h79q0 -31 22 -53t53 -22q32 0 54 22t22 53q0 29 -18.5 49.5
t-45.5 25.5h-78v213z" />
    <glyph glyph-name="Scaron" unicode="&#x160;" horiz-adv-x="562" 
d="M461 315q23 -25 36.5 -57.5t14.5 -69.5q-1 -37 -14.5 -69.5t-36.5 -57.5q1 0 1 -1q-26 -27 -60.5 -43.5t-75.5 -16.5h-286v121h288q25 4 41.5 22.5t16.5 43.5v1q0 25 -16 42.5t-40 22.5h-146q-41 0 -75.5 16.5t-60.5 43.5v1q-23 25 -36.5 57.5t-13.5 69.5t13.5 69.5
t36.5 57.5v1q26 27 60.5 43.5t75.5 16.5h286v-121h-288q-25 -4 -41.5 -22.5t-16.5 -43.5v-1q0 -25 16 -43t39 -23h147q41 0 75.5 -16t60.5 -43q0 -1 -1 -1zM408 952l91 -91l-218 -218l-218 218l91 91l127 -127z" />
    <glyph glyph-name="scaron" unicode="&#x161;" 
d="M250 500q44 0 82.5 -14t70.5 -38l-78 -102q-15 12 -34.5 19t-40.5 7q-34 0 -62 -17t-44 -45h349v-1q7 -27 7 -59q0 -52 -19.5 -97.5t-53.5 -79.5t-79.5 -53.5t-97.5 -19.5q-43 0 -81 13.5t-70 36.5l78 102q16 -11 34.5 -17.5t38.5 -6.5q34 0 62 17t44 45h-349
q-3 14 -5 29t-2 31q0 52 19.5 97.5t53.5 79.5t79.5 53.5t97.5 19.5zM378 822l91 -91l-218 -218l-218 218l91 91l127 -127z" />
    <glyph glyph-name="Tcommaaccent" unicode="&#x162;" horiz-adv-x="581" 
d="M531 502h-201v-502h-128v502h-202v128h531v-128zM331 -21v-277h-131v277h131z" />
    <glyph glyph-name="Tcommaaccent" unicode="&#x21a;" horiz-adv-x="581" 
d="M531 502h-201v-502h-128v502h-202v128h531v-128zM331 -21v-277h-131v277h131z" />
    <glyph glyph-name="tcommaaccent" unicode="&#x163;" 
d="M250 0q-52 0 -97.5 19.5t-79.5 53.5t-53.5 79.5t-19.5 97.5v380h128v-130h308v-128h-308v-122q0 -25 9.5 -47.5t26 -39t39 -26t47.5 -9.5t47.5 9.5t39 26t26 39t9.5 47.5h128q0 -52 -19.5 -97.5t-53.5 -79.5t-79.5 -53.5t-97.5 -19.5zM321 -21v-277h-131v277h131z" />
    <glyph glyph-name="tcommaaccent" unicode="&#x21b;" 
d="M250 0q-52 0 -97.5 19.5t-79.5 53.5t-53.5 79.5t-19.5 97.5v380h128v-130h308v-128h-308v-122q0 -25 9.5 -47.5t26 -39t39 -26t47.5 -9.5t47.5 9.5t39 26t26 39t9.5 47.5h128q0 -52 -19.5 -97.5t-53.5 -79.5t-79.5 -53.5t-97.5 -19.5zM321 -21v-277h-131v277h131z" />
    <glyph glyph-name="Tcaron" unicode="&#x164;" horiz-adv-x="581" 
d="M531 502h-201v-502h-128v502h-202v128h531v-128zM417 952l91 -91l-218 -218l-218 218l91 91l127 -127z" />
    <glyph glyph-name="tcaron" unicode="&#x165;" horiz-adv-x="731" 
d="M250 0q-52 0 -97.5 19.5t-79.5 53.5t-53.5 79.5t-19.5 97.5v380h128v-130h308v-128h-308v-122q0 -25 9.5 -47.5t26 -39t39 -26t47.5 -9.5t47.5 9.5t39 26t26 39t9.5 47.5h128q0 -52 -19.5 -97.5t-53.5 -79.5t-79.5 -53.5t-97.5 -19.5zM681 630v-277h-131v277h131z" />
    <glyph glyph-name="Tbar" unicode="&#x166;" horiz-adv-x="581" 
d="M531 502h-201v-502h-128v502h-202v128h531v-128zM67 427h399v-131h-399v131z" />
    <glyph glyph-name="tbar" unicode="&#x167;" 
d="M0 691h438v-131h-438v131zM250 0q-52 0 -97.5 19.5t-79.5 53.5t-53.5 79.5t-19.5 97.5v380h128v-130h308v-128h-308v-122q0 -25 9.5 -47.5t26 -39t39 -26t47.5 -9.5t47.5 9.5t39 26t26 39t9.5 47.5h128q0 -52 -19.5 -97.5t-53.5 -79.5t-79.5 -53.5t-97.5 -19.5z" />
    <glyph glyph-name="Utilde" unicode="&#x168;" 
d="M372 630h128v-380q0 -52 -19.5 -97.5t-53.5 -79.5t-79.5 -53.5t-97.5 -19.5t-97.5 19.5t-79.5 53.5t-53.5 79.5t-19.5 97.5v380h128v-380q0 -25 9.5 -47.5t26 -39t39 -26t47.5 -9.5t47.5 9.5t39 26t26 39t9.5 47.5v380zM107 641q0 29 11.5 55t30.5 45t45 30t55 11
q58 0 96 -38q19 18 44 28t53 10v-95q-19 0 -33.5 -15t-16.5 -35h-93q0 21 -14.5 35.5t-35.5 14.5q-19 0 -32.5 -14.5t-17.5 -31.5h-92v0z" />
    <glyph glyph-name="utilde" unicode="&#x169;" 
d="M0 500h128v-250q0 -25 9.5 -47.5t26 -39t39 -26t47.5 -9.5t47.5 9.5t39 26t26 39t9.5 47.5v250h128v-250q0 -52 -19.5 -97.5t-53.5 -79.5t-79.5 -53.5t-97.5 -19.5t-97.5 19.5t-79.5 53.5t-53.5 79.5t-19.5 97.5v250zM107 511q0 29 11.5 55t30.5 45t45 30t55 11
q58 0 96 -38q19 18 44 28t53 10v-95q-19 0 -33.5 -15t-16.5 -35h-93q0 21 -14.5 35.5t-35.5 14.5q-19 0 -32.5 -14.5t-17.5 -31.5h-92v0z" />
    <glyph glyph-name="Umacron" unicode="&#x16a;" 
d="M372 630h128v-380q0 -52 -19.5 -97.5t-53.5 -79.5t-79.5 -53.5t-97.5 -19.5t-97.5 19.5t-79.5 53.5t-53.5 79.5t-19.5 97.5v380h128v-380q0 -25 9.5 -47.5t26 -39t39 -26t47.5 -9.5t47.5 9.5t39 26t26 39t9.5 47.5v380zM53 797h399v-131h-399v131z" />
    <glyph glyph-name="umacron" unicode="&#x16b;" 
d="M0 500h128v-250q0 -25 9.5 -47.5t26 -39t39 -26t47.5 -9.5t47.5 9.5t39 26t26 39t9.5 47.5v250h128v-250q0 -52 -19.5 -97.5t-53.5 -79.5t-79.5 -53.5t-97.5 -19.5t-97.5 19.5t-79.5 53.5t-53.5 79.5t-19.5 97.5v250zM57 667h399v-131h-399v131z" />
    <glyph glyph-name="Ubreve" unicode="&#x16c;" 
d="M372 630h128v-380q0 -52 -19.5 -97.5t-53.5 -79.5t-79.5 -53.5t-97.5 -19.5t-97.5 19.5t-79.5 53.5t-53.5 79.5t-19.5 97.5v380h128v-380q0 -25 9.5 -47.5t26 -39t39 -26t47.5 -9.5t47.5 9.5t39 26t26 39t9.5 47.5v380zM274 746q32 0 54.5 22.5t22.5 53.5v4h80v-4
q0 -32 -12.5 -60.5t-33.5 -49.5t-49.5 -33.5t-61.5 -12.5q-32 0 -60.5 12.5t-49.5 33.5t-33.5 49.5t-12.5 60.5v4h80v-4q0 -31 22.5 -53.5t53.5 -22.5z" />
    <glyph glyph-name="ubreve" unicode="&#x16d;" 
d="M0 500h128v-250q0 -25 9.5 -47.5t26 -39t39 -26t47.5 -9.5t47.5 9.5t39 26t26 39t9.5 47.5v250h128v-250q0 -52 -19.5 -97.5t-53.5 -79.5t-79.5 -53.5t-97.5 -19.5t-97.5 19.5t-79.5 53.5t-53.5 79.5t-19.5 97.5v250zM274 616q32 0 54.5 22.5t22.5 53.5v4h80v-4
q0 -32 -12.5 -60.5t-33.5 -49.5t-49.5 -33.5t-61.5 -12.5q-32 0 -60.5 12.5t-49.5 33.5t-33.5 49.5t-12.5 60.5v4h80v-4q0 -31 22.5 -53.5t53.5 -22.5z" />
    <glyph glyph-name="Uring" unicode="&#x16e;" 
d="M372 630h128v-380q0 -52 -19.5 -97.5t-53.5 -79.5t-79.5 -53.5t-97.5 -19.5t-97.5 19.5t-79.5 53.5t-53.5 79.5t-19.5 97.5v380h128v-380q0 -25 9.5 -47.5t26 -39t39 -26t47.5 -9.5t47.5 9.5t39 26t26 39t9.5 47.5v380zM168 747q0 35 24 59t59 24t59 -24t24 -59t-24 -59
t-59 -24t-59 24t-24 59zM230 747q0 -9 6 -14.5t15 -5.5t15 5.5t6 14.5t-6 15t-15 6t-15 -6t-6 -15z" />
    <glyph glyph-name="uring" unicode="&#x16f;" 
d="M0 500h128v-250q0 -25 9.5 -47.5t26 -39t39 -26t47.5 -9.5t47.5 9.5t39 26t26 39t9.5 47.5v250h128v-250q0 -52 -19.5 -97.5t-53.5 -79.5t-79.5 -53.5t-97.5 -19.5t-97.5 19.5t-79.5 53.5t-53.5 79.5t-19.5 97.5v250zM172 617q0 35 24 59t59 24t59 -24t24 -59t-24 -59
t-59 -24t-59 24t-24 59zM234 617q0 -9 6 -14.5t15 -5.5t15 5.5t6 14.5t-6 15t-15 6t-15 -6t-6 -15z" />
    <glyph glyph-name="Uhungarumlaut" unicode="&#x170;" 
d="M372 630h128v-380q0 -52 -19.5 -97.5t-53.5 -79.5t-79.5 -53.5t-97.5 -19.5t-97.5 19.5t-79.5 53.5t-53.5 79.5t-19.5 97.5v380h128v-380q0 -25 9.5 -47.5t26 -39t39 -26t47.5 -9.5t47.5 9.5t39 26t26 39t9.5 47.5v380zM-48 755l241 138l65 -113l-240 -138zM294 755
l241 138l65 -113l-240 -138z" />
    <glyph glyph-name="uhungarumlaut" unicode="&#x171;" 
d="M0 500h128v-250q0 -25 9.5 -47.5t26 -39t39 -26t47.5 -9.5t47.5 9.5t39 26t26 39t9.5 47.5v250h128v-250q0 -52 -19.5 -97.5t-53.5 -79.5t-79.5 -53.5t-97.5 -19.5t-97.5 19.5t-79.5 53.5t-53.5 79.5t-19.5 97.5v250zM-48 625l241 138l65 -113l-240 -138zM294 625
l241 138l65 -113l-240 -138z" />
    <glyph glyph-name="Uogonek" unicode="&#x172;" 
d="M411 -122h-78q-27 -5 -45.5 -26t-18.5 -50q0 -31 22 -53t54 -22q31 0 53 22t22 53h80q0 -32 -12 -60t-33 -49t-49.5 -33.5t-60.5 -12.5t-60.5 12.5t-49.5 33.5t-33.5 49t-12.5 60q0 29 9.5 54.5t27 46t41 34.5t50.5 19v136h94v-214zM372 630h128v-380q0 -52 -19.5 -97.5
t-53.5 -79.5t-79.5 -53.5t-97.5 -19.5t-97.5 19.5t-79.5 53.5t-53.5 79.5t-19.5 97.5v380h128v-380q0 -25 9.5 -47.5t26 -39t39 -26t47.5 -9.5t47.5 9.5t39 26t26 39t9.5 47.5v380z" />
    <glyph glyph-name="uogonek" unicode="&#x173;" 
d="M411 -122h-78q-27 -5 -45.5 -26t-18.5 -50q0 -31 22 -53t54 -22q31 0 53 22t22 53h80q0 -32 -12 -60t-33 -49t-49.5 -33.5t-60.5 -12.5t-60.5 12.5t-49.5 33.5t-33.5 49t-12.5 60q0 29 9.5 54.5t27 46t41 34.5t50.5 19v136h94v-214zM0 500h128v-250q0 -25 9.5 -47.5
t26 -39t39 -26t47.5 -9.5t47.5 9.5t39 26t26 39t9.5 47.5v250h128v-250q0 -52 -19.5 -97.5t-53.5 -79.5t-79.5 -53.5t-97.5 -19.5t-97.5 19.5t-79.5 53.5t-53.5 79.5t-19.5 97.5v250z" />
    <glyph glyph-name="Wcircumflex" unicode="&#x174;" horiz-adv-x="718" 
d="M540 630h128v-433q0 -41 -16 -77t-43 -62.5t-63 -42t-77 -15.5q-39 0 -73.5 14t-61.5 39q-26 -25 -61 -39t-74 -14q-41 0 -77 15.5t-63 42t-43 62.5t-16 77v433h128v-441q4 -26 24 -44t47 -18q28 0 48 18.5t23 45.5v439h128v-432q1 -29 21.5 -50t50.5 -21q26 0 45.5 17
t24.5 43v443zM232 644l-91 91l218 218l218 -218l-91 -91l-127 127z" />
    <glyph glyph-name="wcircumflex" unicode="&#x175;" horiz-adv-x="718" 
d="M128 187q4 -26 24 -43t47 -17q29 0 50 21t21 51v301h128v-303q1 -29 21.5 -49.5t49.5 -20.5q27 0 46.5 17t24.5 43v313h128v-301q0 -41 -15.5 -77.5t-42.5 -63.5t-63.5 -42.5t-77.5 -15.5q-39 0 -74 14t-61 39q-27 -25 -61.5 -39t-73.5 -14q-41 0 -77.5 15.5t-63.5 42.5
t-42.5 63.5t-15.5 77.5v301h128v-313zM232 514l-91 91l218 218l218 -218l-91 -91l-127 127z" />
    <glyph glyph-name="Ycircumflex" unicode="&#x176;" 
d="M372 630h128v-169q0 -43 -13.5 -81.5t-37.5 -70t-57 -54.5t-72 -34v-221h-128v218q-41 10 -76.5 32.5t-61 54.5t-40 72t-14.5 84v169h128v-169q0 -25 9.5 -47.5t26 -39t39 -26t47.5 -9.5t47.5 9.5t39 26t26 39t9.5 47.5v169zM122 644l-91 91l218 218l218 -218l-91 -91
l-127 127z" />
    <glyph glyph-name="ycircumflex" unicode="&#x177;" 
d="M0 500h128v-250q0 -25 9.5 -47.5t26 -39t39 -26t47.5 -9.5t47.5 9.5t39 26t26 39t9.5 47.5v250h128v-500q0 -52 -19.5 -97.5t-53.5 -79.5t-79.5 -53.5t-97.5 -19.5t-97.5 19.5t-79.5 53.5t-53.5 79.5t-19.5 97.5h128q0 -25 9.5 -47.5t26 -39t39 -26t47.5 -9.5t47.5 9.5
t39 26t26 39t9.5 47.5v31q-56 -31 -122 -31q-52 0 -97.5 19.5t-79.5 53.5t-53.5 79.5t-19.5 97.5v250zM125 514l-91 91l218 218l218 -218l-91 -91l-127 127z" />
    <glyph glyph-name="Ydieresis" unicode="&#x178;" 
d="M372 630h128v-169q0 -43 -13.5 -81.5t-37.5 -70t-57 -54.5t-72 -34v-221h-128v218q-41 10 -76.5 32.5t-61 54.5t-40 72t-14.5 84v169h128v-169q0 -25 9.5 -47.5t26 -39t39 -26t47.5 -9.5t47.5 9.5t39 26t26 39t9.5 47.5v169zM87 670v130h128v-130h-128zM287 670v130h128
v-130h-128z" />
    <glyph glyph-name="Zacute" unicode="&#x179;" horiz-adv-x="566" 
d="M516 128v-128h-531l306 502h-291v128h511l-306 -502h311zM130 755l241 138l65 -113l-240 -138z" />
    <glyph glyph-name="zacute" unicode="&#x17a;" horiz-adv-x="571" 
d="M-10 500h531l-286 -372h271v-128h-531l285 372h-270v128zM132 625l241 138l65 -113l-240 -138z" />
    <glyph glyph-name="Zdotaccent" unicode="&#x17b;" horiz-adv-x="566" 
d="M516 128v-128h-531l306 502h-291v128h511l-306 -502h311zM219 811h127v-127h-127v127z" />
    <glyph glyph-name="zdotaccent" unicode="&#x17c;" horiz-adv-x="571" 
d="M-10 500h531l-286 -372h271v-128h-531l285 372h-270v128zM222 681h127v-127h-127v127z" />
    <glyph glyph-name="Zcaron" unicode="&#x17d;" horiz-adv-x="566" 
d="M516 128v-128h-531l306 502h-291v128h511l-306 -502h311zM382 952l91 -91l-218 -218l-218 218l91 91l127 -127z" />
    <glyph glyph-name="zcaron" unicode="&#x17e;" horiz-adv-x="571" 
d="M-10 500h531l-286 -372h271v-128h-531l285 372h-270v128zM383 822l91 -91l-218 -218l-218 218l91 91l127 -127z" />
    <glyph glyph-name="florin" unicode="&#x192;" 
d="M250 630q52 0 97.5 -19.5t79.5 -53.5t53.5 -79.5t19.5 -97.5h-128q0 25 -9.5 47.5t-26 39t-39 26t-47.5 9.5t-47.5 -9.5t-39 -26t-26 -39t-9.5 -47.5v-142h301v-128h-301v-360h-128v630q0 52 19.5 97.5t53.5 79.5t79.5 53.5t97.5 19.5z" />
    <glyph glyph-name="Scommaaccent" unicode="&#x218;" horiz-adv-x="562" 
d="M461 315q23 -25 36.5 -57.5t14.5 -69.5q-1 -37 -14.5 -69.5t-36.5 -57.5q1 0 1 -1q-26 -27 -60.5 -43.5t-75.5 -16.5h-286v121h288q25 4 41.5 22.5t16.5 43.5v1q0 25 -16 42.5t-40 22.5h-146q-41 0 -75.5 16.5t-60.5 43.5v1q-23 25 -36.5 57.5t-13.5 69.5t13.5 69.5
t36.5 57.5v1q26 27 60.5 43.5t75.5 16.5h286v-121h-288q-25 -4 -41.5 -22.5t-16.5 -43.5v-1q0 -25 16 -43t39 -23h147q41 0 75.5 -16t60.5 -43q0 -1 -1 -1zM321 -21v-277h-131v277h131z" />
    <glyph glyph-name="scommaaccent" unicode="&#x219;" 
d="M250 500q44 0 82.5 -14t70.5 -38l-78 -102q-15 12 -34.5 19t-40.5 7q-34 0 -62 -17t-44 -45h349v-1q7 -27 7 -59q0 -52 -19.5 -97.5t-53.5 -79.5t-79.5 -53.5t-97.5 -19.5q-43 0 -81 13.5t-70 36.5l78 102q16 -11 34.5 -17.5t38.5 -6.5q34 0 62 17t44 45h-349
q-3 14 -5 29t-2 31q0 52 19.5 97.5t53.5 79.5t79.5 53.5t97.5 19.5zM321 -21v-277h-131v277h131z" />
    <glyph glyph-name="circumflex" unicode="&#x2c6;" horiz-adv-x="485" 
d="M90 514l-91 91l218 218l218 -218l-91 -91l-127 127z" />
    <glyph glyph-name="caron" unicode="&#x2c7;" horiz-adv-x="485" 
d="M344 822l91 -91l-218 -218l-218 218l91 91l127 -127z" />
    <glyph glyph-name="breve" unicode="&#x2d8;" horiz-adv-x="363" 
d="M156 616q32 0 54.5 22.5t22.5 53.5v4h80v-4q0 -32 -12.5 -60.5t-33.5 -49.5t-49.5 -33.5t-61.5 -12.5q-32 0 -60.5 12.5t-49.5 33.5t-33.5 49.5t-12.5 60.5v4h80v-4q0 -31 22.5 -53.5t53.5 -22.5z" />
    <glyph glyph-name="dotaccent" unicode="&#x2d9;" horiz-adv-x="177" 
d="M0 681h127v-127h-127v127z" />
    <glyph glyph-name="ring" unicode="&#x2da;" horiz-adv-x="266" 
d="M50 617q0 35 24 59t59 24t59 -24t24 -59t-24 -59t-59 -24t-59 24t-24 59zM112 617q0 -9 6 -14.5t15 -5.5t15 5.5t6 14.5t-6 15t-15 6t-15 -6t-6 -15z" />
    <glyph glyph-name="ogonek" unicode="&#x2db;" horiz-adv-x="318" 
d="M179 -122h-78q-27 -5 -45.5 -26t-18.5 -50q0 -31 22 -53t54 -22q31 0 53 22t22 53h80q0 -32 -12 -60t-33 -49t-49.5 -33.5t-60.5 -12.5t-60.5 12.5t-49.5 33.5t-33.5 49t-12.5 60q0 29 9.5 54.5t27 46t41 34.5t50.5 19v136h94v-214z" />
    <glyph glyph-name="tilde" unicode="&#x2dc;" horiz-adv-x="403" 
d="M18 511q0 29 11.5 55t30.5 45t45 30t55 11q58 0 96 -38q19 18 44 28t53 10v-95q-19 0 -33.5 -15t-16.5 -35h-93q0 21 -14.5 35.5t-35.5 14.5q-19 0 -32.5 -14.5t-17.5 -31.5h-92v0z" />
    <glyph glyph-name="hungarumlaut" unicode="&#x2dd;" horiz-adv-x="684" 
d="M-14 625l241 138l65 -113l-240 -138zM328 625l241 138l65 -113l-240 -138z" />
    <glyph glyph-name="tonos" unicode="&#x384;" horiz-adv-x="178" 
d="M0 540v130h128v-130h-128z" />
    <glyph glyph-name="dieresistonos" unicode="&#x385;" horiz-adv-x="485" 
d="M0 471v130h128v-130h-128zM307 471v130h128v-130h-128zM279 752v-277h-131v277h131z" />
    <glyph glyph-name="Alphatonos" unicode="&#x386;" horiz-adv-x="750" 
d="M131 630v-277h-131v277h131zM450 630q52 0 97.5 -19.5t79.5 -53.5t53.5 -79.5t19.5 -97.5v-380h-128v126h-244v-126h-128v380q0 52 19.5 97.5t53.5 79.5t79.5 53.5t97.5 19.5zM572 380q0 25 -9.5 47.5t-26 39t-39 26t-47.5 9.5t-47.5 -9.5t-39 -26t-26 -39t-9.5 -47.5
v-126h244v126z" />
    <glyph glyph-name="Epsilontonos" unicode="&#x388;" horiz-adv-x="722" 
d="M131 630v-277h-131v277h131zM672 630v-121h-288q-25 -4 -41.5 -22.5t-16.5 -43.5q0 -26 17 -45t43 -21h286v-123h-281q-27 -1 -46 -20t-19 -46q0 -25 16 -43t39 -23h291v-122h-286q-39 0 -72.5 15t-59 40.5t-40 59t-14.5 72.5q0 38 13.5 70.5t36.5 57.5
q-23 25 -36.5 57.5t-13.5 70.5q0 39 14.5 72.5t40 59t59 40.5t72.5 15h286z" />
    <glyph glyph-name="Etatonos" unicode="&#x389;" horiz-adv-x="759" 
d="M131 630v-277h-131v277h131zM581 630h128v-630h-128v228h-202v128h202v274zM200 630h128v-630h-128v630z" />
    <glyph glyph-name="Iotatonos" unicode="&#x38a;" horiz-adv-x="516" 
d="M131 630v-277h-131v277h131zM466 502h-69v-374h69v-128h-266v128h69v374h-69v128h266v-128z" />
    <glyph glyph-name="Omicrontonos" unicode="&#x38c;" horiz-adv-x="880" 
d="M131 630v-277h-131v277h131zM515 630q65 0 122.5 -25t100 -67.5t67.5 -100t25 -122.5t-25 -122.5t-67.5 -100.5t-100 -67.5t-122.5 -24.5t-122.5 24.5t-100.5 67.5t-67.5 100.5t-24.5 122.5t24.5 122.5t67.5 100t100.5 67.5t122.5 25zM516 127q39 0 73 15t59.5 40.5
t40.5 59.5t15 73t-15 73t-40.5 59.5t-59.5 40.5t-73 15t-73 -15t-59.5 -40.5t-40 -59.5t-14.5 -73t14.5 -73t40 -59.5t59.5 -40.5t73 -15z" />
    <glyph glyph-name="Upsilontonos" unicode="&#x38e;" horiz-adv-x="750" 
d="M131 630v-277h-131v277h131zM572 630h128v-169q0 -43 -13.5 -81.5t-37.5 -70t-57 -54.5t-72 -34v-221h-128v218q-41 10 -76.5 32.5t-61 54.5t-40 72t-14.5 84v169h128v-169q0 -25 9.5 -47.5t26 -39t39 -26t47.5 -9.5t47.5 9.5t39 26t26 39t9.5 47.5v169z" />
    <glyph glyph-name="Omegatonos" unicode="&#x38f;" horiz-adv-x="881" 
d="M200 134h57q-27 38 -42 84t-15 97q0 65 24.5 122.5t67.5 100t100.5 67.5t122.5 25t122.5 -25t100 -67.5t67.5 -100t25 -122.5q0 -51 -15 -97t-42 -84h58v-134h-271v134h7q30 8 55 25.5t43 41t28.5 53t10.5 61.5q0 39 -15 73t-40.5 59.5t-59.5 40.5t-73 15t-73 -15
t-59.5 -40.5t-40 -59.5t-14.5 -73q0 -32 10 -61t28 -53t42.5 -41t53.5 -26h8v-134h-271v134zM131 630v-277h-131v277h131z" />
    <glyph glyph-name="iotadieresistonos" unicode="&#x390;" horiz-adv-x="300" 
d="M-150 561v130h128v-130h-128zM157 561v130h128v-130h-128zM129 842v-277h-131v277h131zM250 0q-52 0 -97.5 19.5t-79.5 53.5t-53.5 79.5t-19.5 97.5v250h128v-250q0 -25 9.5 -47.5t26 -39t39 -26t47.5 -9.5v-128z" />
    <glyph glyph-name="Alpha" unicode="&#x391;" 
d="M250 630q52 0 97.5 -19.5t79.5 -53.5t53.5 -79.5t19.5 -97.5v-380h-128v126h-244v-126h-128v380q0 52 19.5 97.5t53.5 79.5t79.5 53.5t97.5 19.5zM372 380q0 25 -9.5 47.5t-26 39t-39 26t-47.5 9.5t-47.5 -9.5t-39 -26t-26 -39t-9.5 -47.5v-126h244v126z" />
    <glyph glyph-name="Beta" unicode="&#x392;" horiz-adv-x="521" 
d="M285 630q39 0 72.5 -15t59 -40.5t40 -59t14.5 -72.5q0 -38 -13.5 -70.5t-36.5 -57.5q23 -25 36.5 -57.5t13.5 -70.5q0 -39 -14.5 -72.5t-40 -59t-59 -40.5t-72.5 -15h-285v121h288q24 4 40.5 22.5t16.5 43.5q0 26 -17 45t-43 21h-285v123h280q27 1 46 20t19 46
q0 25 -16 43t-39 23h-290v122h285v0z" />
    <glyph glyph-name="Gamma" unicode="&#x393;" horiz-adv-x="457" 
d="M128 0h-128v630h407v-128h-279v-502z" />
    <glyph glyph-name="Delta" unicode="&#x394;" horiz-adv-x="561" 
d="M1 0l184 630h142l184 -630h-510zM256 401l-79 -270h158z" />
    <glyph glyph-name="Delta" unicode="&#x2206;" horiz-adv-x="561" 
d="M1 0l184 630h142l184 -630h-510zM256 401l-79 -270h158z" />
    <glyph glyph-name="Epsilon" unicode="&#x395;" horiz-adv-x="522" 
d="M472 630v-121h-288q-25 -4 -41.5 -22.5t-16.5 -43.5q0 -26 17 -45t43 -21h286v-123h-281q-27 -1 -46 -20t-19 -46q0 -25 16 -43t39 -23h291v-122h-286q-39 0 -72.5 15t-59 40.5t-40 59t-14.5 72.5q0 38 13.5 70.5t36.5 57.5q-23 25 -36.5 57.5t-13.5 70.5q0 39 14.5 72.5
t40 59t59 40.5t72.5 15h286z" />
    <glyph glyph-name="Zeta" unicode="&#x396;" horiz-adv-x="566" 
d="M516 128v-128h-531l306 502h-291v128h511l-306 -502h311z" />
    <glyph glyph-name="Eta" unicode="&#x397;" horiz-adv-x="559" 
d="M381 630h128v-630h-128v228h-202v128h202v274zM0 630h128v-630h-128v630z" />
    <glyph glyph-name="Theta" unicode="&#x398;" horiz-adv-x="680" 
d="M315 630q65 0 122.5 -25t100 -67.5t67.5 -100t25 -122.5t-25 -122.5t-67.5 -100.5t-100 -67.5t-122.5 -24.5t-122.5 24.5t-100.5 67.5t-67.5 100.5t-24.5 122.5t24.5 122.5t67.5 100t100.5 67.5t122.5 25zM316 127q39 0 73 15t59.5 40.5t40.5 59.5t15 73t-15 73
t-40.5 59.5t-59.5 40.5t-73 15t-73 -15t-59.5 -40.5t-40 -59.5t-14.5 -73t14.5 -73t40 -59.5t59.5 -40.5t73 -15zM181 377h277v-131h-277v131z" />
    <glyph glyph-name="Iota" unicode="&#x399;" horiz-adv-x="316" 
d="M266 502h-69v-374h69v-128h-266v128h69v374h-69v128h266v-128z" />
    <glyph glyph-name="Kappa" unicode="&#x39a;" horiz-adv-x="551" 
d="M501 630q0 -100 -45.5 -181.5t-121.5 -132.5q38 -26 69 -60t52.5 -74.5t33.5 -86.5t12 -95h-127q0 50 -18.5 94.5t-50.5 78.5t-75.5 55t-92.5 24h-9v-252h-128v630h128v-249h9q49 3 92.5 23.5t75.5 54t50.5 77.5t18.5 94h127v0z" />
    <glyph glyph-name="Lambda" unicode="&#x39b;" horiz-adv-x="561" 
d="M256 401l-117 -401h-138l184 630h142l184 -630h-138z" />
    <glyph glyph-name="Mu" unicode="&#x39c;" horiz-adv-x="718" 
d="M469 630q41 0 77 -15.5t63 -42t43 -62.5t16 -77v-433h-128v441q-4 26 -24 44t-47 18q-28 0 -48 -18.5t-23 -45.5v-439h-128v432q0 29 -21 50t-50 21q-27 0 -46.5 -17t-24.5 -43v-443h-128v433q0 41 16 77t43 62.5t63 42t77 15.5q39 0 74 -14t61 -39q27 25 61.5 39
t73.5 14z" />
    <glyph glyph-name="Nu" unicode="&#x39d;" horiz-adv-x="474" 
d="M0 630h128l168 -350v350h128v-630h-128l-168 350v-350h-128v630z" />
    <glyph glyph-name="Xi" unicode="&#x39e;" horiz-adv-x="449" 
d="M0 630h399v-131h-399v131zM0 131h399v-131h-399v131zM40 380h319v-131h-319v131z" />
    <glyph glyph-name="Omicron" unicode="&#x39f;" horiz-adv-x="680" 
d="M315 630q65 0 122.5 -25t100 -67.5t67.5 -100t25 -122.5t-25 -122.5t-67.5 -100.5t-100 -67.5t-122.5 -24.5t-122.5 24.5t-100.5 67.5t-67.5 100.5t-24.5 122.5t24.5 122.5t67.5 100t100.5 67.5t122.5 25zM316 127q39 0 73 15t59.5 40.5t40.5 59.5t15 73t-15 73
t-40.5 59.5t-59.5 40.5t-73 15t-73 -15t-59.5 -40.5t-40 -59.5t-14.5 -73t14.5 -73t40 -59.5t59.5 -40.5t73 -15z" />
    <glyph glyph-name="Pi" unicode="&#x3a0;" 
d="M250 630q52 0 97.5 -19.5t79.5 -53.5t53.5 -79.5t19.5 -97.5v-380h-128v380q0 25 -9.5 47.5t-26 39t-39 26t-47.5 9.5t-47.5 -9.5t-39 -26t-26 -39t-9.5 -47.5v-380h-128v380q0 52 19.5 97.5t53.5 79.5t79.5 53.5t97.5 19.5z" />
    <glyph glyph-name="Rho" unicode="&#x3a1;" horiz-adv-x="577" 
d="M330 630q41 0 77 -16t62.5 -43t42 -63t15.5 -77q0 -36 -12 -68.5t-33 -58t-50 -43t-63 -24.5l1 -5h-183v128h142q29 1 50 21.5t21 49.5q0 27 -17 46.5t-43 24.5h-212v-502h-128v630h330v0z" />
    <glyph glyph-name="Sigma" unicode="&#x3a3;" horiz-adv-x="566" 
d="M516 128v-128h-531l192 314l-192 316h531v-128h-311l85 -139l29 -48l-114 -187h311z" />
    <glyph glyph-name="Tau" unicode="&#x3a4;" horiz-adv-x="581" 
d="M531 502h-201v-502h-128v502h-202v128h531v-128z" />
    <glyph glyph-name="Upsilon" unicode="&#x3a5;" 
d="M372 630h128v-169q0 -43 -13.5 -81.5t-37.5 -70t-57 -54.5t-72 -34v-221h-128v218q-41 10 -76.5 32.5t-61 54.5t-40 72t-14.5 84v169h128v-169q0 -25 9.5 -47.5t26 -39t39 -26t47.5 -9.5t47.5 9.5t39 26t26 39t9.5 47.5v169z" />
    <glyph glyph-name="Phi" unicode="&#x3a6;" horiz-adv-x="422" 
d="M320 502h-69v-12q53 -20 87 -67t34 -107q0 -30 -9 -57.5t-25 -50t-38 -39.5t-49 -27v-14h69v-128h-266v128h69v14q-27 10 -49 27t-38.5 39.5t-25.5 50t-9 57.5t9 57.5t25.5 50.5t38.5 40t49 27v11h-69v128h266v-128zM96 316q0 -39 27 -64v129q-27 -27 -27 -65zM277 316
q0 19 -7 35t-19 29v-127q26 26 26 63z" />
    <glyph glyph-name="Chi" unicode="&#x3a7;" horiz-adv-x="544" 
d="M370 311q55 -42 88 -104t36 -136v-71h-131v60q0 29 -8.5 55.5t-24 49t-37 39.5t-46.5 27q-51 -20 -84 -66t-33 -105v-60h-130v60q0 76 33 141t89 108q-57 44 -90 108.5t-34 141.5v71h131v-70q0 -29 8.5 -55.5t24 -49t36.5 -39.5t47 -27q51 20 84 66t33 105v70h130v-70h1
q0 -76 -33 -141t-90 -108z" />
    <glyph glyph-name="Psi" unicode="&#x3a8;" 
d="M318 631v-368h-128v368h128zM372 630h128v-169q0 -43 -13.5 -81.5t-37.5 -70t-57 -54.5t-72 -34v-221h-128v218q-41 10 -76.5 32.5t-61 54.5t-40 72t-14.5 84v169h128v-169q0 -25 9.5 -47.5t26 -39t39 -26t47.5 -9.5t47.5 9.5t39 26t26 39t9.5 47.5v169z" />
    <glyph glyph-name="Omega" unicode="&#x3a9;" horiz-adv-x="681" 
d="M0 134h57q-27 38 -42 84t-15 97q0 65 24.5 122.5t67.5 100t100.5 67.5t122.5 25t122.5 -25t100 -67.5t67.5 -100t25 -122.5q0 -51 -15 -97t-42 -84h58v-134h-271v134h7q30 8 55 25.5t43 41t28.5 53t10.5 61.5q0 39 -15 73t-40.5 59.5t-59.5 40.5t-73 15t-73 -15
t-59.5 -40.5t-40 -59.5t-14.5 -73q0 -32 10 -61t28 -53t42.5 -41t53.5 -26h8v-134h-271v134z" />
    <glyph glyph-name="Omega" unicode="&#x2126;" horiz-adv-x="681" 
d="M0 134h57q-27 38 -42 84t-15 97q0 65 24.5 122.5t67.5 100t100.5 67.5t122.5 25t122.5 -25t100 -67.5t67.5 -100t25 -122.5q0 -51 -15 -97t-42 -84h58v-134h-271v134h7q30 8 55 25.5t43 41t28.5 53t10.5 61.5q0 39 -15 73t-40.5 59.5t-59.5 40.5t-73 15t-73 -15
t-59.5 -40.5t-40 -59.5t-14.5 -73q0 -32 10 -61t28 -53t42.5 -41t53.5 -26h8v-134h-271v134z" />
    <glyph glyph-name="Iotadieresis" unicode="&#x3aa;" horiz-adv-x="347" 
d="M266 502h-69v-374h69v-128h-266v128h69v374h-69v128h266v-128zM-30 670v130h128v-130h-128zM170 670v130h128v-130h-128z" />
    <glyph glyph-name="Upsilondieresis" unicode="&#x3ab;" 
d="M372 630h128v-169q0 -43 -13.5 -81.5t-37.5 -70t-57 -54.5t-72 -34v-221h-128v218q-41 10 -76.5 32.5t-61 54.5t-40 72t-14.5 84v169h128v-169q0 -25 9.5 -47.5t26 -39t39 -26t47.5 -9.5t47.5 9.5t39 26t26 39t9.5 47.5v169zM87 670v130h128v-130h-128zM287 670v130h128
v-130h-128z" />
    <glyph glyph-name="alphatonos" unicode="&#x3ac;" 
d="M187 557v198h131v-197zM500 500v-500h-128v31q-56 -31 -122 -31q-52 0 -97.5 19.5t-79.5 53.5t-53.5 79.5t-19.5 97.5t19.5 97.5t53.5 79.5t79.5 53.5t97.5 19.5q33 0 64 -8.5t58 -23.5v32h128zM250 372q-25 0 -47.5 -9.5t-39 -26t-26 -39t-9.5 -47.5t9.5 -47.5t26 -39
t39 -26t47.5 -9.5q24 0 46 9t38.5 25t26.5 37.5t11 45.5v10q-1 24 -11 45.5t-26.5 37t-38.5 25t-46 9.5z" />
    <glyph glyph-name="epsilontonos" unicode="&#x3ad;" 
d="M187 557v198h131v-197zM500 235q-3 -49 -23.5 -92t-54.5 -74.5t-78 -50t-94 -18.5q-52 0 -97.5 19.5t-79.5 53.5t-53.5 79.5t-19.5 97.5t19.5 97.5t53.5 79.5t79.5 53.5t97.5 19.5q50 0 94 -18.5t78 -50t54.5 -74.5t23.5 -92h-129q-3 22 -13.5 42t-26.5 34t-37 22.5
t-44 8.5q-32 0 -58.5 -15t-43.5 -40h160v-131h-162q17 -26 44 -42t60 -16q23 0 44 8.5t37 22.5t26.5 33.5t13.5 42.5h129z" />
    <glyph glyph-name="etatonos" unicode="&#x3ae;" 
d="M187 557v198h131v-197zM500 -250h-128v500q0 25 -9.5 47.5t-26 39t-39 26t-47.5 9.5t-47.5 -9.5t-39 -26t-26 -39t-9.5 -47.5v-250h-128v250q0 52 19.5 97.5t53.5 79.5t79.5 53.5t97.5 19.5t97.5 -19.5t79.5 -53.5t53.5 -79.5t19.5 -97.5v-500z" />
    <glyph glyph-name="iotatonos" unicode="&#x3af;" horiz-adv-x="300" 
d="M0 557v198h131v-197zM250 0q-52 0 -97.5 19.5t-79.5 53.5t-53.5 79.5t-19.5 97.5v250h128v-250q0 -25 9.5 -47.5t26 -39t39 -26t47.5 -9.5v-128z" />
    <glyph glyph-name="upsilondieresistonos" unicode="&#x3b0;" horiz-adv-x="833" 
d="M0 531v130h128v-130h-128zM307 531v130h128v-130h-128zM279 812v-277h-131v277h131zM372 250q0 25 -9.5 47.5t-26 39t-39 26t-47.5 9.5v128q52 0 97.5 -19.5t79.5 -53.5t53.5 -79.5t19.5 -97.5t-19.5 -97.5t-53.5 -79.5t-79.5 -53.5t-97.5 -19.5t-97.5 19.5t-79.5 53.5
t-53.5 79.5t-19.5 97.5v250h128v-250q0 -25 9.5 -47.5t26 -39t39 -26t47.5 -9.5t47.5 9.5t39 26t26 39t9.5 47.5z" />
    <glyph glyph-name="alpha" unicode="&#x3b1;" 
d="M500 500v-500h-128v31q-56 -31 -122 -31q-52 0 -97.5 19.5t-79.5 53.5t-53.5 79.5t-19.5 97.5t19.5 97.5t53.5 79.5t79.5 53.5t97.5 19.5q33 0 64 -8.5t58 -23.5v32h128zM250 372q-25 0 -47.5 -9.5t-39 -26t-26 -39t-9.5 -47.5t9.5 -47.5t26 -39t39 -26t47.5 -9.5
q24 0 46 9t38.5 25t26.5 37.5t11 45.5v10q-1 24 -11 45.5t-26.5 37t-38.5 25t-46 9.5z" />
    <glyph glyph-name="beta" unicode="&#x3b2;" horiz-adv-x="521" 
d="M126 -250h-126v696q0 38 15 71.5t40 58t59 39.5t72 15h99q39 0 72.5 -15t59 -40.5t40 -59t14.5 -72.5q0 -38 -13.5 -70.5t-36.5 -57.5q23 -25 36.5 -57.5t13.5 -70.5q0 -39 -14.5 -72.5t-40 -59t-59 -40.5t-72.5 -15h-95v121h98q24 4 40.5 22.5t16.5 43.5q0 26 -17 45
t-43 21h-95v123h90q27 1 46 20t19 46q0 25 -16 43t-39 23h-110q-23 -5 -38 -22.5t-16 -39.5v-696z" />
    <glyph glyph-name="gamma" unicode="&#x3b3;" horiz-adv-x="530" 
d="M-30 500h138l117 -318l117 318h138l-190 -500v-250h-128v246z" />
    <glyph glyph-name="delta" unicode="&#x3b4;" 
d="M250 500q52 0 97.5 -19.5t79.5 -53.5t53.5 -79.5t19.5 -97.5t-19.5 -97.5t-53.5 -79.5t-79.5 -53.5t-97.5 -19.5t-97.5 19.5t-79.5 53.5t-53.5 79.5t-19.5 97.5t19.5 97.5t53.5 79.5t79.5 53.5t97.5 19.5zM250 128q25 0 47.5 9.5t39 26t26 39t9.5 47.5t-9.5 47.5t-26 39
t-39 26t-47.5 9.5t-47.5 -9.5t-39 -26t-26 -39t-9.5 -47.5t9.5 -47.5t26 -39t39 -26t47.5 -9.5zM64 734h399v-131h-399v131zM157 695l282 -282l-143 -42l-232 232z" />
    <glyph glyph-name="epsilon" unicode="&#x3b5;" 
d="M500 235q-3 -49 -23.5 -92t-54.5 -74.5t-78 -50t-94 -18.5q-52 0 -97.5 19.5t-79.5 53.5t-53.5 79.5t-19.5 97.5t19.5 97.5t53.5 79.5t79.5 53.5t97.5 19.5q50 0 94 -18.5t78 -50t54.5 -74.5t23.5 -92h-129q-3 22 -13.5 42t-26.5 34t-37 22.5t-44 8.5q-32 0 -58.5 -15
t-43.5 -40h160v-131h-162q17 -26 44 -42t60 -16q23 0 44 8.5t37 22.5t26.5 33.5t13.5 42.5h129z" />
    <glyph glyph-name="zeta" unicode="&#x3b6;" 
d="M161 334q-33 -35 -33 -84q0 -25 9.5 -47.5t26 -39t39 -26t47.5 -9.5q52 0 97.5 -19.5t79.5 -53.5t53.5 -79.5t19.5 -97.5q0 -27 -19.5 -46.5t-46.5 -19.5h-214v131h133q-17 26 -44 41.5t-59 15.5q-52 0 -97.5 19.5t-79.5 53.5t-53.5 79.5t-19.5 97.5q0 51 19 95.5
t52 78.5l90 78h-161v128h511l-350 -296v0z" />
    <glyph glyph-name="eta" unicode="&#x3b7;" 
d="M500 -250h-128v500q0 25 -9.5 47.5t-26 39t-39 26t-47.5 9.5t-47.5 -9.5t-39 -26t-26 -39t-9.5 -47.5v-250h-128v250q0 52 19.5 97.5t53.5 79.5t79.5 53.5t97.5 19.5t97.5 -19.5t79.5 -53.5t53.5 -79.5t19.5 -97.5v-500z" />
    <glyph glyph-name="theta" unicode="&#x3b8;" 
d="M250 630q52 0 97.5 -19.5t79.5 -53.5t53.5 -79.5t19.5 -97.5v-130q0 -52 -19.5 -97.5t-53.5 -79.5t-79.5 -53.5t-97.5 -19.5t-97.5 19.5t-79.5 53.5t-53.5 79.5t-19.5 97.5v130q0 52 19.5 97.5t53.5 79.5t79.5 53.5t97.5 19.5zM250 128q25 0 47.5 9.5t39 26t26 39
t9.5 47.5v2h-244v-2q0 -25 9.5 -47.5t26 -39t39 -26t47.5 -9.5zM250 502q-25 0 -47 -9.5t-38.5 -25.5t-26.5 -38t-10 -46h244q-1 24 -10.5 46t-26 38t-38.5 25.5t-47 9.5z" />
    <glyph glyph-name="iota" unicode="&#x3b9;" horiz-adv-x="300" 
d="M250 0q-52 0 -97.5 19.5t-79.5 53.5t-53.5 79.5t-19.5 97.5v250h128v-250q0 -25 9.5 -47.5t26 -39t39 -26t47.5 -9.5v-128z" />
    <glyph glyph-name="kappa" unicode="&#x3ba;" horiz-adv-x="494" 
d="M128 0h-128v500h128v-184q38 0 71.5 14.5t58.5 39.5t39.5 58.5t14.5 71.5h130q0 -77 -33 -141.5t-89 -107.5q57 -44 90.5 -109t33.5 -142h-131q0 38 -14.5 72t-39.5 59t-59 39.5t-72 14.5v-185z" />
    <glyph glyph-name="lambda" unicode="&#x3bb;" 
d="M100 630h150q52 0 97.5 -19.5t79.5 -53.5t53.5 -79.5t19.5 -97.5v-380h-128v130q0 25 -9.5 47.5t-26 39t-39 26t-47.5 9.5t-47.5 -9.5t-39 -26t-26 -39t-9.5 -47.5v-130h-128v130q0 52 19.5 97.5t53.5 79.5t79.5 53.5t97.5 19.5q66 0 122 -31v31q0 44 -27 76.5t-69 42.5
h-176v131z" />
    <glyph glyph-name="nu" unicode="&#x3bd;" horiz-adv-x="530" 
d="M-30 500h138l117 -318l117 318h138l-184 -500h-142z" />
    <glyph glyph-name="xi" unicode="&#x3be;" horiz-adv-x="487" 
d="M186 0q-39 0 -72.5 15t-59 40.5t-40 59t-14.5 72.5q0 38 13.5 70.5t36.5 57.5q-23 25 -36.5 57.5t-13.5 70.5q0 51 24 92v99h399v-131h-259q-17 -8 -27.5 -24t-10.5 -36q0 -26 17 -45t43 -21h156v-123h-151q-27 -1 -46 -20t-19 -46q0 -25 16 -43t39 -23h6
q52 0 97.5 -18.5t79.5 -51.5t53.5 -77.5t19.5 -96.5q0 -27 -19.5 -46.5t-46.5 -19.5h-214v131h133q-17 26 -44 41.5t-59 15.5h-1z" />
    <glyph glyph-name="omicron" unicode="&#x3bf;" 
d="M250 500q52 0 97.5 -19.5t79.5 -53.5t53.5 -79.5t19.5 -97.5t-19.5 -97.5t-53.5 -79.5t-79.5 -53.5t-97.5 -19.5t-97.5 19.5t-79.5 53.5t-53.5 79.5t-19.5 97.5t19.5 97.5t53.5 79.5t79.5 53.5t97.5 19.5zM250 128q25 0 47.5 9.5t39 26t26 39t9.5 47.5t-9.5 47.5t-26 39
t-39 26t-47.5 9.5t-47.5 -9.5t-39 -26t-26 -39t-9.5 -47.5t9.5 -47.5t26 -39t39 -26t47.5 -9.5z" />
    <glyph glyph-name="pi" unicode="&#x3c0;" horiz-adv-x="458" 
d="M408 0h-128v372h-152v-372h-128v500h408v-500z" />
    <glyph glyph-name="rho" unicode="&#x3c1;" 
d="M500 250q0 -52 -19.5 -97.5t-53.5 -79.5t-79.5 -53.5t-97.5 -19.5q-66 0 -122 31v-161h-128v380q0 52 19.5 97.5t53.5 79.5t79.5 53.5t97.5 19.5t97.5 -19.5t79.5 -53.5t53.5 -79.5t19.5 -97.5zM372 250q0 25 -9.5 47.5t-26 39t-39 26t-47.5 9.5t-47.5 -9.5t-39 -26
t-26 -39t-9.5 -47.5t9.5 -47.5t26 -39t39 -26t47.5 -9.5t47.5 9.5t39 26t26 39t9.5 47.5z" />
    <glyph glyph-name="sigma1" unicode="&#x3c2;" 
d="M220 -57h133q-17 26 -44 41.5t-59 15.5q-52 0 -97.5 19.5t-79.5 53.5t-53.5 79.5t-19.5 97.5t19.5 97.5t53.5 79.5t79.5 53.5t97.5 19.5q50 0 94 -18.5t78 -50t54.5 -74.5t23.5 -92h-129q-3 22 -13.5 42t-26.5 34t-37 22.5t-44 8.5q-25 0 -47.5 -9.5t-39 -26t-26 -39
t-9.5 -47.5t9.5 -47.5t26 -39t39 -26t47.5 -9.5q52 0 97.5 -19.5t79.5 -53.5t53.5 -79.5t19.5 -97.5q0 -27 -19.5 -46.5t-46.5 -19.5h-6h-208v131z" />
    <glyph glyph-name="sigma" unicode="&#x3c3;" 
d="M260 500h240v-131h-30q14 -27 22 -57t8 -62q0 -52 -19.5 -97.5t-53.5 -79.5t-79.5 -53.5t-97.5 -19.5t-97.5 19.5t-79.5 53.5t-53.5 79.5t-19.5 97.5t19.5 97.5t53.5 79.5t79.5 53.5t97.5 19.5h10zM250 128q25 0 47.5 9.5t39 26t26 39t9.5 47.5t-9.5 47.5t-26 39t-39 26
t-47.5 9.5t-47.5 -9.5t-39 -26t-26 -39t-9.5 -47.5t9.5 -47.5t26 -39t39 -26t47.5 -9.5z" />
    <glyph glyph-name="tau" unicode="&#x3c4;" horiz-adv-x="481" 
d="M431 372h-151v-372h-128v372h-152v128h431v-128z" />
    <glyph glyph-name="upsilon" unicode="&#x3c5;" 
d="M372 250q0 25 -9.5 47.5t-26 39t-39 26t-47.5 9.5v128q52 0 97.5 -19.5t79.5 -53.5t53.5 -79.5t19.5 -97.5t-19.5 -97.5t-53.5 -79.5t-79.5 -53.5t-97.5 -19.5t-97.5 19.5t-79.5 53.5t-53.5 79.5t-19.5 97.5v250h128v-250q0 -25 9.5 -47.5t26 -39t39 -26t47.5 -9.5
t47.5 9.5t39 26t26 39t9.5 47.5z" />
    <glyph glyph-name="phi" unicode="&#x3c6;" 
d="M186 8q-40 11 -74 34t-59 54.5t-39 70.5t-14 83q0 43 14 82.5t39 71t59 54t74 33.5v137h128v-137q40 -11 74 -33.5t59 -54t39 -71t14 -82.5q0 -44 -14 -83t-39 -70.5t-59 -54.5t-74 -34v-258h-128v258zM128 250q0 -33 16 -60t42 -44v207q-26 -16 -42 -43.5t-16 -59.5z
M372 250q0 32 -16 59.5t-42 43.5v-207q26 17 42 44t16 60z" />
    <glyph glyph-name="chi" unicode="&#x3c7;" horiz-adv-x="544" 
d="M363 -250q0 19 -4 47t-11 59t-17.5 63t-23.5 59t-28 46.5t-32 26.5q-26 -10 -47.5 -47t-37 -84t-24 -94t-8.5 -76h-130q0 38 8.5 93.5t24.5 112t38.5 104t50.5 69.5q-29 21 -51.5 67.5t-39 101t-25 109t-8.5 93.5h131q0 -20 4 -47t11 -57t17.5 -60.5t23.5 -56.5t28 -45
t32 -26q25 10 46.5 46t37.5 80.5t24.5 90t8.5 75.5h130q0 -38 -8.5 -92.5t-24.5 -109t-38.5 -100.5t-50.5 -67q19 -14 35.5 -41t30 -61t24.5 -72t18.5 -75.5t11.5 -72t4 -59.5h-131z" />
    <glyph glyph-name="psi" unicode="&#x3c8;" 
d="M0 500h128v-250q0 -25 9.5 -47.5t26 -39t39 -26t47.5 -9.5t47.5 9.5t39 26t26 39t9.5 47.5v250h128v-250q0 -52 -19.5 -97.5t-53.5 -79.5t-79.5 -53.5t-97.5 -19.5t-97.5 19.5t-79.5 53.5t-53.5 79.5t-19.5 97.5v250zM186 628h128v-878h-128v878z" />
    <glyph glyph-name="omega" unicode="&#x3c9;" horiz-adv-x="718" 
d="M128 187q4 -26 24 -43t47 -17q29 0 50 21t21 51v301h128v-303q1 -29 21.5 -49.5t49.5 -20.5q27 0 46.5 17t24.5 43v313h128v-301q0 -41 -15.5 -77.5t-42.5 -63.5t-63.5 -42.5t-77.5 -15.5q-39 0 -74 14t-61 39q-27 -25 -61.5 -39t-73.5 -14q-41 0 -77.5 15.5t-63.5 42.5
t-42.5 63.5t-15.5 77.5v301h128v-313z" />
    <glyph glyph-name="iotadieresis" unicode="&#x3ca;" horiz-adv-x="300" 
d="M250 0q-52 0 -97.5 19.5t-79.5 53.5t-53.5 79.5t-19.5 97.5v250h128v-250q0 -25 9.5 -47.5t26 -39t39 -26t47.5 -9.5v-128zM-93 540v130h128v-130h-128zM107 540v130h128v-130h-128z" />
    <glyph glyph-name="upsilondieresis" unicode="&#x3cb;" 
d="M372 250q0 25 -9.5 47.5t-26 39t-39 26t-47.5 9.5v128q52 0 97.5 -19.5t79.5 -53.5t53.5 -79.5t19.5 -97.5t-19.5 -97.5t-53.5 -79.5t-79.5 -53.5t-97.5 -19.5t-97.5 19.5t-79.5 53.5t-53.5 79.5t-19.5 97.5v250h128v-250q0 -25 9.5 -47.5t26 -39t39 -26t47.5 -9.5
t47.5 9.5t39 26t26 39t9.5 47.5zM51 540v130h128v-130h-128zM251 540v130h128v-130h-128z" />
    <glyph glyph-name="omicrontonos" unicode="&#x3cc;" 
d="M187 557v198h131v-197zM250 500q52 0 97.5 -19.5t79.5 -53.5t53.5 -79.5t19.5 -97.5t-19.5 -97.5t-53.5 -79.5t-79.5 -53.5t-97.5 -19.5t-97.5 19.5t-79.5 53.5t-53.5 79.5t-19.5 97.5t19.5 97.5t53.5 79.5t79.5 53.5t97.5 19.5zM250 128q25 0 47.5 9.5t39 26t26 39
t9.5 47.5t-9.5 47.5t-26 39t-39 26t-47.5 9.5t-47.5 -9.5t-39 -26t-26 -39t-9.5 -47.5t9.5 -47.5t26 -39t39 -26t47.5 -9.5z" />
    <glyph glyph-name="upsilontonos" unicode="&#x3cd;" 
d="M187 557v198h131v-197zM372 250q0 25 -9.5 47.5t-26 39t-39 26t-47.5 9.5v128q52 0 97.5 -19.5t79.5 -53.5t53.5 -79.5t19.5 -97.5t-19.5 -97.5t-53.5 -79.5t-79.5 -53.5t-97.5 -19.5t-97.5 19.5t-79.5 53.5t-53.5 79.5t-19.5 97.5v250h128v-250q0 -25 9.5 -47.5t26 -39
t39 -26t47.5 -9.5t47.5 9.5t39 26t26 39t9.5 47.5z" />
    <glyph glyph-name="omegatonos" unicode="&#x3ce;" horiz-adv-x="718" 
d="M268 557v198h131v-197zM128 187q4 -26 24 -43t47 -17q29 0 50 21t21 51v301h128v-303q1 -29 21.5 -49.5t49.5 -20.5q27 0 46.5 17t24.5 43v313h128v-301q0 -41 -15.5 -77.5t-42.5 -63.5t-63.5 -42.5t-77.5 -15.5q-39 0 -74 14t-61 39q-27 -25 -61.5 -39t-73.5 -14
q-41 0 -77.5 15.5t-63.5 42.5t-42.5 63.5t-15.5 77.5v301h128v-313z" />
    <glyph glyph-name="uni1E02" unicode="&#x1e02;" horiz-adv-x="521" 
d="M285 630q39 0 72.5 -15t59 -40.5t40 -59t14.5 -72.5q0 -38 -13.5 -70.5t-36.5 -57.5q23 -25 36.5 -57.5t13.5 -70.5q0 -39 -14.5 -72.5t-40 -59t-59 -40.5t-72.5 -15h-285v121h288q24 4 40.5 22.5t16.5 43.5q0 26 -17 45t-43 21h-285v123h280q27 1 46 20t19 46
q0 25 -16 43t-39 23h-290v122h285v0zM197 811h127v-127h-127v127z" />
    <glyph glyph-name="uni1E03" unicode="&#x1e03;" 
d="M128 468q27 15 58 23.5t64 8.5q52 0 97.5 -19.5t79.5 -53.5t53.5 -79.5t19.5 -97.5t-19.5 -97.5t-53.5 -79.5t-79.5 -53.5t-97.5 -19.5t-97.5 19.5t-79.5 53.5t-53.5 79.5t-19.5 97.5v380h128v-162zM250 128q25 0 47.5 9.5t39 26t26 39t9.5 47.5t-9.5 47.5t-26 39t-39 26
t-47.5 9.5t-47 -9.5t-38.5 -25t-26 -37t-10.5 -45.5v-5q0 -25 9.5 -47.5t26 -39t39 -26t47.5 -9.5zM211 681h127v-127h-127v127z" />
    <glyph glyph-name="uni1E0A" unicode="&#x1e0a;" horiz-adv-x="545" 
d="M180 630q65 0 122.5 -25t100 -67.5t67.5 -100t25 -122.5t-24.5 -122t-67 -100t-99.5 -68t-122 -25h-182v127h181q39 0 73 15t59.5 40.5t40.5 59.5t15 73t-15 73t-40.5 59.5t-59.5 40.5t-73 15h-181v127h180v0zM209 811h127v-127h-127v127z" />
    <glyph glyph-name="uni1E0B" unicode="&#x1e0b;" 
d="M0 250q0 52 19.5 97.5t53.5 79.5t79.5 53.5t97.5 19.5q33 0 64 -8.5t58 -23.5v162h128v-380q0 -52 -19.5 -97.5t-53.5 -79.5t-79.5 -53.5t-97.5 -19.5t-97.5 19.5t-79.5 53.5t-53.5 79.5t-19.5 97.5zM128 250q0 -25 9.5 -47.5t26 -39t39 -26t47.5 -9.5t47.5 9.5t39 26
t26 39t9.5 47.5t-9.5 47.5t-26 39t-39 26t-47.5 9.5t-47.5 -9.5t-39 -26t-26 -39t-9.5 -47.5zM211 681h127v-127h-127v127z" />
    <glyph glyph-name="uni1E1E" unicode="&#x1e1e;" horiz-adv-x="522" 
d="M472 630v-121h-288q-25 -4 -41.5 -22.5t-16.5 -43.5q0 -26 17 -45t43 -21h286v-123h-281q-27 -1 -46 -20t-19 -46v-188h-126v188q0 37 13.5 69.5t36.5 57.5q-23 25 -36.5 57.5t-13.5 70.5q0 39 14.5 72.5t40 59t59 40.5t72.5 15h286zM197 811h127v-127h-127v127z" />
    <glyph glyph-name="uni1E1F" unicode="&#x1e1f;" 
d="M250 630q52 0 97.5 -19.5t79.5 -53.5t53.5 -79.5t19.5 -97.5h-128q0 25 -9.5 47.5t-26 39t-39 26t-47.5 9.5t-47.5 -9.5t-39 -26t-26 -39t-9.5 -47.5v-142h301v-128h-301v-110h-128v380q0 52 19.5 97.5t53.5 79.5t79.5 53.5t97.5 19.5zM191 785h127v-127h-127v127z" />
    <glyph glyph-name="uni1E40" unicode="&#x1e40;" horiz-adv-x="718" 
d="M469 630q41 0 77 -15.5t63 -42t43 -62.5t16 -77v-433h-128v441q-4 26 -24 44t-47 18q-28 0 -48 -18.5t-23 -45.5v-439h-128v432q0 29 -21 50t-50 21q-27 0 -46.5 -17t-24.5 -43v-443h-128v433q0 41 16 77t43 62.5t63 42t77 15.5q39 0 74 -14t61 -39q27 25 61.5 39
t73.5 14zM295 811h127v-127h-127v127z" />
    <glyph glyph-name="uni1E41" unicode="&#x1e41;" horiz-adv-x="718" 
d="M540 313q-5 26 -24.5 43t-46.5 17q-28 0 -48.5 -19t-22.5 -47v-307h-128v303q-1 29 -21.5 49.5t-49.5 20.5q-27 0 -47 -17t-24 -43v-313h-128v303q0 41 16 77t43 62.5t63 42t77 15.5q39 0 73.5 -14.5t61.5 -39.5q26 25 61 39.5t74 14.5q41 0 77 -15.5t63 -42t43 -62.5
t16 -77v-303h-128v313zM295 681h127v-127h-127v127z" />
    <glyph glyph-name="uni1E56" unicode="&#x1e56;" horiz-adv-x="577" 
d="M330 630q41 0 77 -16t62.5 -43t42 -63t15.5 -77q0 -36 -12 -68.5t-33 -58t-50 -43t-63 -24.5l1 -5h-183v128h142q29 1 50 21.5t21 49.5q0 27 -17 46.5t-43 24.5h-212v-502h-128v630h330v0zM225 811h127v-127h-127v127z" />
    <glyph glyph-name="uni1E57" unicode="&#x1e57;" 
d="M500 250q0 -52 -19.5 -97.5t-53.5 -79.5t-79.5 -53.5t-97.5 -19.5q-66 0 -122 31v-161h-128v380q0 52 19.5 97.5t53.5 79.5t79.5 53.5t97.5 19.5t97.5 -19.5t79.5 -53.5t53.5 -79.5t19.5 -97.5zM372 250q0 25 -9.5 47.5t-26 39t-39 26t-47.5 9.5t-47.5 -9.5t-39 -26
t-26 -39t-9.5 -47.5t9.5 -47.5t26 -39t39 -26t47.5 -9.5t47.5 9.5t39 26t26 39t9.5 47.5zM211 681h127v-127h-127v127z" />
    <glyph glyph-name="uni1E60" unicode="&#x1e60;" horiz-adv-x="562" 
d="M461 315q23 -25 36.5 -57.5t14.5 -69.5q-1 -37 -14.5 -69.5t-36.5 -57.5q1 0 1 -1q-26 -27 -60.5 -43.5t-75.5 -16.5h-286v121h288q25 4 41.5 22.5t16.5 43.5v1q0 25 -16 42.5t-40 22.5h-146q-41 0 -75.5 16.5t-60.5 43.5v1q-23 25 -36.5 57.5t-13.5 69.5t13.5 69.5
t36.5 57.5v1q26 27 60.5 43.5t75.5 16.5h286v-121h-288q-25 -4 -41.5 -22.5t-16.5 -43.5v-1q0 -25 16 -43t39 -23h147q41 0 75.5 -16t60.5 -43q0 -1 -1 -1zM217 811h127v-127h-127v127z" />
    <glyph glyph-name="uni1E61" unicode="&#x1e61;" 
d="M250 500q44 0 82.5 -14t70.5 -38l-78 -102q-15 12 -34.5 19t-40.5 7q-34 0 -62 -17t-44 -45h349v-1q7 -27 7 -59q0 -52 -19.5 -97.5t-53.5 -79.5t-79.5 -53.5t-97.5 -19.5q-43 0 -81 13.5t-70 36.5l78 102q16 -11 34.5 -17.5t38.5 -6.5q34 0 62 17t44 45h-349
q-3 14 -5 29t-2 31q0 52 19.5 97.5t53.5 79.5t79.5 53.5t97.5 19.5zM167 681h127v-127h-127v127z" />
    <glyph glyph-name="uni1E6A" unicode="&#x1e6a;" horiz-adv-x="581" 
d="M531 502h-201v-502h-128v502h-202v128h531v-128zM227 811h127v-127h-127v127z" />
    <glyph glyph-name="uni1E6B" unicode="&#x1e6b;" 
d="M250 0q-52 0 -97.5 19.5t-79.5 53.5t-53.5 79.5t-19.5 97.5v380h128v-130h308v-128h-308v-122q0 -25 9.5 -47.5t26 -39t39 -26t47.5 -9.5t47.5 9.5t39 26t26 39t9.5 47.5h128q0 -52 -19.5 -97.5t-53.5 -79.5t-79.5 -53.5t-97.5 -19.5zM211 681h127v-127h-127v127z" />
    <glyph glyph-name="Wgrave" unicode="&#x1e80;" horiz-adv-x="718" 
d="M540 630h128v-433q0 -41 -16 -77t-43 -62.5t-63 -42t-77 -15.5q-39 0 -73.5 14t-61.5 39q-26 -25 -61 -39t-74 -14q-41 0 -77 15.5t-63 42t-43 62.5t-16 77v433h128v-441q4 -26 24 -44t47 -18q28 0 48 18.5t23 45.5v439h128v-432q1 -29 21.5 -50t50.5 -21q26 0 45.5 17
t24.5 43v443zM271 893l240 -139l-65 -113l-240 139z" />
    <glyph glyph-name="wgrave" unicode="&#x1e81;" horiz-adv-x="718" 
d="M128 187q4 -26 24 -43t47 -17q29 0 50 21t21 51v301h128v-303q1 -29 21.5 -49.5t49.5 -20.5q27 0 46.5 17t24.5 43v313h128v-301q0 -41 -15.5 -77.5t-42.5 -63.5t-63.5 -42.5t-77.5 -15.5q-39 0 -74 14t-61 39q-27 -25 -61.5 -39t-73.5 -14q-41 0 -77.5 15.5t-63.5 42.5
t-42.5 63.5t-15.5 77.5v301h128v-313zM271 763l240 -139l-65 -113l-240 139z" />
    <glyph glyph-name="Wacute" unicode="&#x1e82;" horiz-adv-x="718" 
d="M540 630h128v-433q0 -41 -16 -77t-43 -62.5t-63 -42t-77 -15.5q-39 0 -73.5 14t-61.5 39q-26 -25 -61 -39t-74 -14q-41 0 -77 15.5t-63 42t-43 62.5t-16 77v433h128v-441q4 -26 24 -44t47 -18q28 0 48 18.5t23 45.5v439h128v-432q1 -29 21.5 -50t50.5 -21q26 0 45.5 17
t24.5 43v443zM206 755l241 138l65 -113l-240 -138z" />
    <glyph glyph-name="wacute" unicode="&#x1e83;" horiz-adv-x="718" 
d="M128 187q4 -26 24 -43t47 -17q29 0 50 21t21 51v301h128v-303q1 -29 21.5 -49.5t49.5 -20.5q27 0 46.5 17t24.5 43v313h128v-301q0 -41 -15.5 -77.5t-42.5 -63.5t-63.5 -42.5t-77.5 -15.5q-39 0 -74 14t-61 39q-27 -25 -61.5 -39t-73.5 -14q-41 0 -77.5 15.5t-63.5 42.5
t-42.5 63.5t-15.5 77.5v301h128v-313zM206 625l241 138l65 -113l-240 -138z" />
    <glyph glyph-name="Wdieresis" unicode="&#x1e84;" horiz-adv-x="718" 
d="M540 630h128v-433q0 -41 -16 -77t-43 -62.5t-63 -42t-77 -15.5q-39 0 -73.5 14t-61.5 39q-26 -25 -61 -39t-74 -14q-41 0 -77 15.5t-63 42t-43 62.5t-16 77v433h128v-441q4 -26 24 -44t47 -18q28 0 48 18.5t23 45.5v439h128v-432q1 -29 21.5 -50t50.5 -21q26 0 45.5 17
t24.5 43v443zM195 670v130h128v-130h-128zM395 670v130h128v-130h-128z" />
    <glyph glyph-name="wdieresis" unicode="&#x1e85;" horiz-adv-x="718" 
d="M128 187q4 -26 24 -43t47 -17q29 0 50 21t21 51v301h128v-303q1 -29 21.5 -49.5t49.5 -20.5q27 0 46.5 17t24.5 43v313h128v-301q0 -41 -15.5 -77.5t-42.5 -63.5t-63.5 -42.5t-77.5 -15.5q-39 0 -74 14t-61 39q-27 -25 -61.5 -39t-73.5 -14q-41 0 -77.5 15.5t-63.5 42.5
t-42.5 63.5t-15.5 77.5v301h128v-313zM195 540v130h128v-130h-128zM395 540v130h128v-130h-128z" />
    <glyph glyph-name="Ygrave" unicode="&#x1ef2;" 
d="M372 630h128v-169q0 -43 -13.5 -81.5t-37.5 -70t-57 -54.5t-72 -34v-221h-128v218q-41 10 -76.5 32.5t-61 54.5t-40 72t-14.5 84v169h128v-169q0 -25 9.5 -47.5t26 -39t39 -26t47.5 -9.5t47.5 9.5t39 26t26 39t9.5 47.5v169zM187 893l240 -139l-65 -113l-240 139z" />
    <glyph glyph-name="ygrave" unicode="&#x1ef3;" 
d="M0 500h128v-250q0 -25 9.5 -47.5t26 -39t39 -26t47.5 -9.5t47.5 9.5t39 26t26 39t9.5 47.5v250h128v-500q0 -52 -19.5 -97.5t-53.5 -79.5t-79.5 -53.5t-97.5 -19.5t-97.5 19.5t-79.5 53.5t-53.5 79.5t-19.5 97.5h128q0 -25 9.5 -47.5t26 -39t39 -26t47.5 -9.5t47.5 9.5
t39 26t26 39t9.5 47.5v31q-56 -31 -122 -31q-52 0 -97.5 19.5t-79.5 53.5t-53.5 79.5t-19.5 97.5v250zM187 763l240 -139l-65 -113l-240 139z" />
    <glyph glyph-name="endash" unicode="&#x2013;" horiz-adv-x="450" 
d="M1 327h399v-131h-399v131z" />
    <glyph glyph-name="emdash" unicode="&#x2014;" horiz-adv-x="629" 
d="M1 327h578v-131h-578v131z" />
    <glyph glyph-name="afii00208" unicode="&#x2015;" horiz-adv-x="629" 
d="M1 327h578v-131h-578v131z" />
    <glyph glyph-name="quoteleft" unicode="&#x2018;" horiz-adv-x="181" 
d="M131 630v-277h-131v277h131z" />
    <glyph glyph-name="quoteright" unicode="&#x2019;" horiz-adv-x="181" 
d="M131 630v-277h-131v277h131z" />
    <glyph glyph-name="quotesinglbase" unicode="&#x201a;" horiz-adv-x="181" 
d="M131 172v-277h-131v277h131z" />
    <glyph glyph-name="quotedblleft" unicode="&#x201c;" horiz-adv-x="351" 
d="M131 630v-277h-131v277h131zM301 630v-277h-131v277h131z" />
    <glyph glyph-name="quotedblright" unicode="&#x201d;" horiz-adv-x="351" 
d="M131 630v-277h-131v277h131zM301 630v-277h-131v277h131z" />
    <glyph glyph-name="quotedblbase" unicode="&#x201e;" horiz-adv-x="361" 
d="M131 172v-277h-131v277h131zM311 172v-277h-131v277h131z" />
    <glyph glyph-name="dagger" unicode="&#x2020;" horiz-adv-x="321" 
d="M-6 564h74v166h128v-166h75v-131h-75v-533h-128v533h-74v131z" />
    <glyph glyph-name="daggerdbl" unicode="&#x2021;" horiz-adv-x="382" 
d="M-67 541h135v189h128v-189h136v-131h-136v-163h136v-131h-136v-216h-128v216h-135v131h135v163h-135v131z" />
    <glyph glyph-name="bullet" unicode="&#x2022;" horiz-adv-x="286" 
d="M0 270q0 25 9 46.5t25 37.5t37.5 25t46.5 9q24 0 45.5 -9t37.5 -25t25.5 -37.5t9.5 -46.5q0 -24 -9.5 -45.5t-25.5 -37.5t-37.5 -25.5t-45.5 -9.5q-25 0 -46.5 9.5t-37.5 25.5t-25 37.5t-9 45.5z" />
    <glyph glyph-name="ellipsis" unicode="&#x2026;" horiz-adv-x="528" 
d="M0 63q0 26 18.5 44.5t44.5 18.5t44.5 -18.5t18.5 -44.5t-18.5 -44.5t-44.5 -18.5t-44.5 18.5t-18.5 44.5zM176 63q0 26 18.5 44.5t44.5 18.5t44.5 -18.5t18.5 -44.5t-18.5 -44.5t-44.5 -18.5t-44.5 18.5t-18.5 44.5zM352 63q0 26 18.5 44.5t44.5 18.5t44.5 -18.5
t18.5 -44.5t-18.5 -44.5t-44.5 -18.5t-44.5 18.5t-18.5 44.5z" />
    <glyph glyph-name="perthousand" unicode="&#x2030;" horiz-adv-x="586" 
d="M270 77q0 35 24 59t59 24q14 0 26.5 -4.5t23.5 -12.5q11 8 23.5 12.5t26.5 4.5q35 0 59 -24t24 -59t-24 -59t-59 -24q-28 0 -50 17q-22 -17 -50 -17q-35 0 -59 24t-24 59zM0 537q0 35 24 59t59 24t59 -24t24 -59t-24 -59t-59 -24t-59 24t-24 59zM62 537q0 -9 6 -14.5
t15 -5.5t15 5.5t6 14.5t-6 15t-15 6t-15 -6t-6 -15zM370 88q-5 10 -17 10q-9 0 -15 -6t-6 -15t6 -14.5t15 -5.5q12 0 17 8v12v11zM436 77q0 -8 -1 -12q6 -8 18 -8q9 0 15 5.5t6 14.5t-6 15t-15 6q-11 0 -18 -10q1 -4 1 -11zM371 630h158l-400 -630h-158z" />
    <glyph glyph-name="guilsinglleft" unicode="&#x2039;" horiz-adv-x="412" 
d="M362 128l-91 -91l-268 268l268 268l91 -91l-177 -177z" />
    <glyph glyph-name="guilsinglright" unicode="&#x203a;" horiz-adv-x="411" 
d="M2 482l91 91l268 -268l-268 -268l-91 91l177 177z" />
    <glyph glyph-name="fraction" unicode="&#x2044;" horiz-adv-x="579" 
d="M371 630h158l-400 -630h-158z" />
    <glyph glyph-name="fraction" unicode="&#x2215;" horiz-adv-x="579" 
d="M371 630h158l-400 -630h-158z" />
    <glyph glyph-name="Euro" unicode="&#x20ac;" horiz-adv-x="662" 
d="M316 127q62 0 109.5 35.5t67.5 89.5l119 -42q-16 -46 -45 -84.5t-68 -66.5t-86 -43.5t-98 -15.5q-65 0 -122.5 24.5t-100.5 67.5t-67.5 100.5t-24.5 122.5t24.5 122.5t67.5 100t100.5 67.5t122.5 25q51 0 96.5 -15t84 -42t67.5 -64t46 -82l-118 -43q-20 53 -67.5 86
t-107.5 33q-31 0 -59.5 -9.5t-51.5 -26.5h123v-131h-198q-1 -5 -1 -10.5v-10.5v-9t1 -9h198v-131h-126q50 -39 114 -39z" />
    <glyph glyph-name="trademark" unicode="&#x2122;" horiz-adv-x="587" 
d="M441 630q40 0 67.5 -27.5t28.5 -67.5v-209h-62v213q-2 13 -11.5 21.5t-22.5 8.5q-14 0 -23.5 -9t-11.5 -22v-212h-61v208q0 14 -10.5 24.5t-24.5 10.5v-1h-9q-22 -7 -25 -28v-214h-62v209q0 18 6 33h-61v-242h-62v242h-97v62h310q39 0 65 -26q29 26 66 26z" />
    <glyph glyph-name="product" unicode="&#x220f;" horiz-adv-x="458" 
d="M408 0h-128v502h-152v-502h-128v630h408v-630z" />
    <glyph glyph-name="summation" unicode="&#x2211;" horiz-adv-x="566" 
d="M516 128v-128h-531l192 314l-192 316h531v-128h-311l85 -139l29 -48l-114 -187h311z" />
    <glyph glyph-name="minus" unicode="&#x2212;" horiz-adv-x="450" 
d="M1 327h399v-131h-399v131z" />
    <glyph glyph-name="approxequal" unicode="&#x2248;" horiz-adv-x="419" 
d="M28 128q0 29 11.5 55t30.5 45t45 30t55 11q58 0 96 -38q19 18 44 28t53 10v-95q-19 0 -33.5 -15t-16.5 -35h-93q0 21 -14.5 35.5t-35.5 14.5q-19 0 -32.5 -14.5t-17.5 -31.5h-92v0zM34 287q0 29 11.5 55t30.5 45t45 30t55 11q58 0 96 -38q19 18 44 28t53 10v-95
q-19 0 -33.5 -15t-16.5 -35h-93q0 21 -14.5 35.5t-35.5 14.5q-19 0 -32.5 -14.5t-17.5 -31.5h-92v0z" />
    <glyph glyph-name="notequal" unicode="&#x2260;" horiz-adv-x="450" 
d="M281 472h110l-277 -432h-110zM1 247h399v-131h-399v131zM1 427h399v-131h-399v131z" />
    <glyph glyph-name="lessequal" unicode="&#x2264;" horiz-adv-x="382" 
d="M312 258l-91 -91l-268 268l268 268l91 -91l-177 -177zM-67 2h399v131h-399v-131z" />
    <glyph glyph-name="greaterequal" unicode="&#x2265;" horiz-adv-x="382" 
d="M-47 612l91 91l268 -268l-268 -268l-91 91l177 177zM-67 0h399v131h-399v-131z" />
    <glyph glyph-name="fi" unicode="&#xfb01;" 
d="M250 630q52 0 97.5 -19.5t79.5 -53.5t53.5 -79.5t19.5 -97.5h-128q0 25 -9.5 47.5t-26 39t-39 26t-47.5 9.5t-47.5 -9.5t-39 -26t-26 -39t-9.5 -47.5v-142h211v-128h-211v-110h-128v380q0 52 19.5 97.5t53.5 79.5t79.5 53.5t97.5 19.5zM500 338v-338h-128v338h128z" />
    <glyph glyph-name="fl" unicode="&#xfb02;" horiz-adv-x="551" 
d="M250 502q-25 0 -47.5 -9.5t-39 -26t-26 -39t-9.5 -47.5v-142h201v-128h-201v-110h-128v380q0 52 19.5 97.5t53.5 79.5t79.5 53.5t97.5 19.5v1h82v-129h-82zM501 0h-128v630h128v-630z" />
    <glyph glyph-name="period.001" horiz-adv-x="177" 
d="M0 127h127v-127h-127v127z" />
    <glyph glyph-name="bullet.001" horiz-adv-x="833" 
 />
    <glyph glyph-name="brokenbar.001" horiz-adv-x="833" 
 />
    <glyph glyph-name="section.001" horiz-adv-x="562" 
d="M461 315q23 -25 36.5 -57.5t14.5 -69.5q-1 -37 -14.5 -69.5t-36.5 -57.5q1 0 1 -1q-26 -27 -60.5 -43.5t-75.5 -16.5h-286v121h288q25 4 41.5 22.5t16.5 43.5v1q0 25 -16 43t-40 23h-60v-1h-86q-41 0 -75.5 16.5t-60.5 43.5v1q-23 25 -36.5 57.5t-13.5 69.5t13.5 69.5
t36.5 57.5v1q26 27 60.5 43.5t75.5 16.5h286v-121h-288q-25 -4 -41.5 -22.5t-16.5 -43.5v-1q0 -25 16 -43t39 -23h52v1h95q41 0 75.5 -16.5t60.5 -43.5q0 -1 -1 -1z" />
    <glyph glyph-name="cedilla.001" horiz-adv-x="833" 
 />
    <glyph glyph-name="Pi.001" horiz-adv-x="458" 
d="M408 0h-128v502h-152v-502h-128v630h408v-630z" />
    <glyph glyph-name="Alphatonos.001" horiz-adv-x="181" 
d="M131 630v-277h-131v277h131z" />
    <glyph glyph-name="uni00AD.001" horiz-adv-x="833" 
 />
    <glyph glyph-name="phi.001" horiz-adv-x="833" 
 />
    <glyph glyph-name="pi.001" horiz-adv-x="178" 
d="M128 468v-468h-128v468h128zM-110 667h399v-131h-399v131zM153 468v-468h-128v468h128z" />
  </font>
</defs>
</svg>
